<svg xmlns="http://www.w3.org/2000/svg" xmlns:xlink="http://www.w3.org/1999/xlink" viewBox="0 0 35.51 32.01"><defs><linearGradient id="a" x1="-270.64" y1="346.71" x2="-270.66" y2="353.85" gradientTransform="matrix(35.51, 0, 0, -4.54, 9627.28, 1607.68)" gradientUnits="userSpaceOnUse"><stop offset="0" stop-color="#c47f2a"/><stop offset="0.89" stop-color="#fecf8a"/><stop offset="1" stop-color="#ffdfb1"/></linearGradient><linearGradient id="b" x1="-270.63" y1="343.71" x2="-270.65" y2="350.85" gradientTransform="matrix(35.51, 0, 0, -4.54, 9627.28, 1594.04)" xlink:href="#a"/><linearGradient id="c" x1="-270.63" y1="340.71" x2="-270.64" y2="347.85" gradientTransform="matrix(35.51, 0, 0, -4.54, 9628.4, 1580.41)" xlink:href="#a"/></defs><rect x="0.94" width="32.39" height="32.01" fill="none"/><path d="M2.22,27.45H33.33a2.25,2.25,0,0,1,2.18,2.27h0A2.24,2.24,0,0,1,33.33,32H2.22A2.25,2.25,0,0,1,0,29.72H0a2.24,2.24,0,0,1,2.22-2.27Z" transform="translate(0 0)" fill="url(#a)"/><path d="M2.22,13.81H33.33a2.26,2.26,0,0,1,2.18,2.28h0a2.24,2.24,0,0,1-2.18,2.27H2.22A2.25,2.25,0,0,1,0,16.09H0a2.25,2.25,0,0,1,2.22-2.28Z" transform="translate(0 0)" fill="url(#b)"/><path d="M2.22.18H33.33a2.25,2.25,0,0,1,2.18,2.28h0a2.25,2.25,0,0,1-2.18,2.27H2.22A2.25,2.25,0,0,1,0,2.46H0A2.25,2.25,0,0,1,2.22.18Z" transform="translate(0 0)" fill="url(#c)"/></svg>