<svg xmlns="http://www.w3.org/2000/svg" viewBox="0 0 79.06 78.48"><path d="M23.46,75.35A38.7,38.7,0,0,1,4.93,58.06,38.46,38.46,0,0,1,.3,43.85,37.17,37.17,0,0,1,4,22.23,34.79,34.79,0,0,1,16.67,7.41,39.31,39.31,0,0,1,31.8.62,60.26,60.26,0,0,1,39.52,0a3.83,3.83,0,0,1,4,3.64v.07a3.49,3.49,0,0,1-3.28,3.7h-.12a15.3,15.3,0,0,0-3.7.31,33.53,33.53,0,0,0-16.68,7.1A30.76,30.76,0,0,0,8.63,32.73a30.39,30.39,0,0,0,6.18,26.56A31.69,31.69,0,0,0,34,70.72a31.24,31.24,0,0,0,19.76-2.78,34.62,34.62,0,0,0,11.12-9,3.87,3.87,0,0,1,2.47-1.85,4.56,4.56,0,0,1,4.32,1.54,3.75,3.75,0,0,1-.3,4.33A41.61,41.61,0,0,1,55.27,75.35C46.53,79.35,31.74,79.69,23.46,75.35Z" transform="translate(0.02 0)" fill="#63d5ac"/><path d="M79,40.15a53.23,53.23,0,0,1-1.23,9.57A3.29,3.29,0,0,1,75,52.5,3.71,3.71,0,0,1,70.4,50a3.65,3.65,0,0,1,0-2.17,21.5,21.5,0,0,0,.93-6.17A29.54,29.54,0,0,0,69.17,28.1a33.38,33.38,0,0,0-6.49-10.5,28.32,28.32,0,0,0-10.81-7.41A4.35,4.35,0,0,1,49.4,7.41a3.79,3.79,0,0,1,2.84-4.55,4.2,4.2,0,0,1,1.17-.08c.62,0,.93.31,1.55.31A37.15,37.15,0,0,1,73.18,18.53a40.93,40.93,0,0,1,5.56,14.82C78.74,35.2,79,37.68,79,40.15Z" transform="translate(0.02 0)" fill="#63d5ac"/><path d="M41.06,41.69H52.18a4.25,4.25,0,0,1,2.78.93,3.54,3.54,0,0,1,1.23,3.7,3.62,3.62,0,0,1-3.08,2.78H37.36a3.74,3.74,0,0,1-3.71-2.16,3.91,3.91,0,0,1-.31-1.85V24.4a3.76,3.76,0,0,1,2.78-4A4,4,0,0,1,41,23.31a3.55,3.55,0,0,1,.09.47V41.69Z" transform="translate(0.02 0)" fill="#63d5ac"/></svg>