<svg xmlns="http://www.w3.org/2000/svg" width="79.046" height="78.479" viewBox="0 0 79.046 78.479"><g transform="translate(-0.004)"><path d="M23.463,75.351A38.7,38.7,0,0,1,4.934,58.057,38.469,38.469,0,0,1,.3,43.852,37.122,37.122,0,0,1,4.007,22.235,34.77,34.77,0,0,1,16.669,7.412,39.442,39.442,0,0,1,31.8.618,60.162,60.162,0,0,1,39.521,0a3.829,3.829,0,0,1,4.015,3.706,3.5,3.5,0,0,1-3.4,3.706,15.035,15.035,0,0,0-3.706.309,33.557,33.557,0,0,0-16.676,7.1A30.7,30.7,0,0,0,8.639,32.734a30.394,30.394,0,0,0,6.176,26.558A31.689,31.689,0,0,0,33.962,70.719,31.223,31.223,0,0,0,53.727,67.94a34.726,34.726,0,0,0,11.117-8.956,3.835,3.835,0,0,1,2.471-1.853,4.539,4.539,0,0,1,4.323,1.544A3.734,3.734,0,0,1,71.329,63,41.615,41.615,0,0,1,55.271,75.351C46.532,79.349,31.746,79.69,23.463,75.351Z" transform="translate(0)" fill="#769cc1"/><path d="M45.718,38.284a54.258,54.258,0,0,1-1.235,9.573A3.275,3.275,0,0,1,41.7,50.637,3.712,3.712,0,0,1,37.072,46,21.4,21.4,0,0,0,38,39.829a29.31,29.31,0,0,0-2.162-13.588,33.3,33.3,0,0,0-6.485-10.5A28.277,28.277,0,0,0,18.543,8.329,4.383,4.383,0,0,1,16.072,5.55,3.794,3.794,0,0,1,20.087.918c.618,0,.926.309,1.544.309a37.14,37.14,0,0,1,18.22,15.441A40.932,40.932,0,0,1,45.41,31.491C45.41,33.343,45.718,35.814,45.718,38.284Z" transform="translate(33.331 1.862)" fill="#769cc1"/><path d="M18.52,28H29.638a4.311,4.311,0,0,1,2.779.926,3.544,3.544,0,0,1,1.235,3.706,3.625,3.625,0,0,1-3.088,2.779H14.815a3.745,3.745,0,0,1-3.706-2.162A3.917,3.917,0,0,1,10.8,31.4V10.707a3.756,3.756,0,0,1,2.779-4.015,4.006,4.006,0,0,1,4.941,3.4V27.074Q18.52,27.537,18.52,28Z" transform="translate(22.545 13.69)" fill="#769cc1"/></g></svg>