<svg xmlns="http://www.w3.org/2000/svg" width="42" height="42" viewBox="0 0 42 42"><path d="M41.363,2.265,39.655.554a1.9,1.9,0,0,0-2.672,0L20.912,16.659,4.932.554a1.9,1.9,0,0,0-2.672,0L.552,2.265a1.905,1.905,0,0,0,0,2.678L16.623,21.048.552,37.063a1.905,1.905,0,0,0,0,2.678L2.26,41.452a1.9,1.9,0,0,0,2.672,0L21,25.346,37.074,41.452a1.9,1.9,0,0,0,2.672,0l1.708-1.711a1.905,1.905,0,0,0,0-2.678L25.382,20.958,41.453,4.9a1.905,1.905,0,0,0-.09-2.637Z" transform="translate(-0.003 -0.003)" fill="#8ca6bf" opacity="0.7"/></svg>