<svg xmlns="http://www.w3.org/2000/svg" viewBox="0 0 16.15 16.15"><defs><linearGradient id="a" x1="-270.05" y1="402.26" x2="-271.13" y2="403.34" gradientTransform="matrix(16.15, 0, 0, -16.15, 4378.58, 6513.18)" gradientUnits="userSpaceOnUse"><stop offset="0" stop-color="#c47f2a"/><stop offset="0.88" stop-color="#fecf8a"/><stop offset="1" stop-color="#ffdfb1"/></linearGradient></defs><path d="M15.9.87,15.25.21a.74.74,0,0,0-1,0L8,6.4,1.9.21a.74.74,0,0,0-1,0L.21.87a.74.74,0,0,0,0,1L6.39,8.1.21,14.25a.74.74,0,0,0,0,1l.66.66a.74.74,0,0,0,1,0l6.18-6.2,6.17,6.2a.74.74,0,0,0,1,0l.66-.66a.74.74,0,0,0,0-1L9.76,8.06l6.18-6.18A.73.73,0,0,0,15.9.87Z" transform="translate(0 0)" fill="url(#a)"/></svg>
