<svg xmlns="http://www.w3.org/2000/svg" width="32" height="32" viewBox="0 0 32 32"><g transform="translate(-565.751 -739.415)"><path d="M2.179.007,4.23,0A2.034,2.034,0,0,1,6.275,2.044L6.154,36.915A2.068,2.068,0,0,1,4.1,38.973l-2.051.007A2.034,2.034,0,0,1,0,36.936L.121,2.065A2.068,2.068,0,0,1,2.179.007Z" transform="translate(565.751 743.852) rotate(-45)" fill="#fff"/><path d="M2.044,0,4.1.007A2.068,2.068,0,0,1,6.154,2.065l.121,34.871A2.034,2.034,0,0,1,4.23,38.98l-2.051-.007A2.068,2.068,0,0,1,.121,36.915L0,2.044A2.034,2.034,0,0,1,2.044,0Z" transform="translate(593.314 739.415) rotate(45)" fill="#fff"/></g></svg>