<svg xmlns="http://www.w3.org/2000/svg" xmlns:xlink="http://www.w3.org/1999/xlink" viewBox="0 0 71.1 44"><defs><linearGradient id="a" x1="-252.64" y1="430.84" x2="-252.71" y2="432.07" gradientTransform="matrix(29.71, 0, 0, -37.42, 7562.6, 16176.41)" gradientUnits="userSpaceOnUse"><stop offset="0" stop-color="#c47f2a"/><stop offset="0.88" stop-color="#fecf8a"/><stop offset="1" stop-color="#ffdfb1"/></linearGradient><linearGradient id="b" x1="-255.51" y1="432.53" x2="-255.56" y2="433.58" gradientTransform="matrix(44, 0, 0, -44, 11265.9, 19088.15)" xlink:href="#a"/><linearGradient id="c" x1="-247.99" y1="235.72" x2="-248.1" y2="257.61" gradientTransform="matrix(19.52, 0, 0, -2.11, 4865.32, 553.34)" xlink:href="#a"/><linearGradient id="d" x1="-136.06" y1="420.28" x2="-137.15" y2="422.64" gradientTransform="matrix(2.1, 0, 0, -19.57, 309.75, 8277.44)" xlink:href="#a"/><linearGradient id="e" x1="-244.8" y1="236.83" x2="-244.94" y2="258.72" gradientTransform="matrix(15.79, 0, 0, -2.11, 3919.83, 554.09)" xlink:href="#a"/><linearGradient id="f" x1="-136.09" y1="415.13" x2="-137.18" y2="418.05" gradientTransform="matrix(2.1, 0, 0, -15.82, 341.23, 6621.44)" xlink:href="#a"/></defs><path d="M52.45,40.72A18.64,18.64,0,0,1,41.29,37l1.26-1.69A16.6,16.6,0,1,0,43.3,8.14L42,6.37A18.71,18.71,0,1,1,52.31,40.72Z" transform="translate(0.1 0)" fill="url(#a)"/><path d="M22,44a22,22,0,1,1,22-22V22h0A22.07,22.07,0,0,1,22,44ZM22,1.87A19.9,19.9,0,1,0,42,22,20.11,20.11,0,0,0,22,1.87Z" transform="translate(0.1 0)" fill="url(#b)"/><rect x="12.29" y="19.61" width="19.52" height="2.11" fill="url(#c)"/><rect x="21.02" y="10.86" width="2.1" height="19.57" fill="url(#d)"/><rect x="45.64" y="20.36" width="15.79" height="2.11" fill="url(#e)"/><rect x="52.5" y="13.48" width="2.1" height="15.82" fill="url(#f)"/></svg>