<svg xmlns="http://www.w3.org/2000/svg" xmlns:xlink="http://www.w3.org/1999/xlink" viewBox="0 0 119.99 101"><defs><linearGradient id="a" x1="-234.52" y1="468.23" x2="-234.52" y2="467.23" gradientTransform="matrix(119.99, 0, 0, -101, 28201.09, 47292.21)" gradientUnits="userSpaceOnUse"><stop offset="0" stop-color="#ffdfb1"/><stop offset="0.15" stop-color="#fece89"/><stop offset="1" stop-color="#c47f25"/></linearGradient></defs><path d="M118.2,79.64,72.13,6.71a14.23,14.23,0,0,0-24.28.18L2,79.64v.17A14.05,14.05,0,0,0,14.18,101H105.8A14.2,14.2,0,0,0,120,86.87,13.27,13.27,0,0,0,118.2,79.64ZM106,92.88H14.17a5.9,5.9,0,0,1-5.85-5.83A7.43,7.43,0,0,1,9,84.23L55.11,11.48a5.88,5.88,0,0,1,5-2.83,5.68,5.68,0,0,1,5,2.83l46.07,72.57a5.42,5.42,0,0,1,.71,3A5.89,5.89,0,0,1,106,92.88Z" transform="translate(0 0)" fill="url(#a)"/><path d="M60.42,70.53A5.27,5.27,0,0,0,56.64,72a5.08,5.08,0,0,0-1.48,3.7,4.76,4.76,0,0,0,1.65,3.87A5.23,5.23,0,0,0,60.58,81a5.55,5.55,0,0,0,3.78-1.45,5,5,0,0,0,1.48-3.87A5.08,5.08,0,0,0,64.36,72,6,6,0,0,0,60.42,70.53Z" transform="translate(0 0)" fill="#fff"/><path d="M60.75,28a5.25,5.25,0,0,0-4.1,1.61A6.06,6.06,0,0,0,55,34.28c0,1.45.16,3.87.33,6.93L56.48,58a13.61,13.61,0,0,0,1,4.84,3,3,0,0,0,2.79,1.61,2.91,2.91,0,0,0,2.8-1.61,11.71,11.71,0,0,0,1-4.67l1.64-17.24A46.15,46.15,0,0,0,66,36.22a14.09,14.09,0,0,0-1-6A4.48,4.48,0,0,0,60.75,28Z" transform="translate(0 0)" fill="#fff"/></svg>