<svg xmlns="http://www.w3.org/2000/svg" viewBox="0 0 67.76 57.19"><path d="M66.73,45,40.7,3.79A8.1,8.1,0,0,0,27,3.79L1.1,45v.08a7.92,7.92,0,0,0-1.1,4,8.08,8.08,0,0,0,8.05,8H59.72a8.08,8.08,0,0,0,8-8A7.48,7.48,0,0,0,66.73,45Zm-6.94,7.42H8.05a3.34,3.34,0,0,1-3.32-3.32,3.55,3.55,0,0,1,.4-1.57l26-41.18a3.34,3.34,0,0,1,5.68,0l26,41.1a2.84,2.84,0,0,1,.39,1.66A3.33,3.33,0,0,1,59.79,52.46Z" transform="translate(0 0)" fill="#40838a"/><path d="M33.92,41.81a3,3,0,0,0-2.29.94A3.23,3.23,0,0,0,30.68,45a2.81,2.81,0,0,0,1,2.37,3.45,3.45,0,0,0,4.58,0A3,3,0,0,0,37.23,45a3.18,3.18,0,0,0-.94-2.29A3.49,3.49,0,0,0,33.92,41.81Z" transform="translate(0 0)" fill="#c6dadc"/><path d="M34.08,15.38a3.22,3.22,0,0,0-2.53,1,4,4,0,0,0-.94,2.84c0,.87.07,2.36.15,4.34L31.47,34a10.3,10.3,0,0,0,.63,3,1.76,1.76,0,0,0,1.66,1,1.64,1.64,0,0,0,1.66-1,8.63,8.63,0,0,0,.63-2.92l1-10.73c.08-1,.16-2,.16-2.92a8.91,8.91,0,0,0-.63-3.71A2.48,2.48,0,0,0,34.08,15.38Z" transform="translate(0 0)" fill="#c6dadc"/></svg>