<svg xmlns="http://www.w3.org/2000/svg" xmlns:xlink="http://www.w3.org/1999/xlink" viewBox="0 0 32.68 32.3"><defs><linearGradient id="a" x1="-260.25" y1="406.48" x2="-259.25" y2="406.48" gradientTransform="matrix(13.54, 0, 0, -13.54, 3524.59, 5510.94)" gradientUnits="userSpaceOnUse"><stop offset="0" stop-color="#c47f2a"/><stop offset="0.89" stop-color="#fecf8a"/><stop offset="1" stop-color="#ffdfb1"/></linearGradient><linearGradient id="b" x1="-260.26" y1="406.47" x2="-259.26" y2="406.47" gradientTransform="matrix(13.55, 0, 0, -13.54, 3545.76, 5508.48)" xlink:href="#a"/><linearGradient id="c" x1="-260.26" y1="406.41" x2="-259.26" y2="406.41" gradientTransform="matrix(13.55, 0, 0, -13.51, 3545.71, 5514.87)" xlink:href="#a"/><linearGradient id="d" x1="-260.26" y1="406.5" x2="-259.26" y2="406.5" gradientTransform="matrix(13.55, 0, 0, -13.55, 3526.83, 5533.55)" xlink:href="#a"/></defs><path d="M.15,11,0,.93A.92.92,0,0,1,.93,0L11.05.15a.91.91,0,0,1,.63,1.56L8.87,4.52l4.68,4.69L9.2,13.56,4.52,8.87,1.71,11.69a.93.93,0,0,1-1.3,0A.93.93,0,0,1,.15,11" transform="translate(0 0)" fill="url(#a)"/><path d="M28.16,8.93,31,11.75a.91.91,0,0,0,1.29,0,.88.88,0,0,0,.28-.65L32.68,1A.9.9,0,0,0,31.8.07h-.05L21.64.22A.92.92,0,0,0,21,1.78l2.81,2.8L19.13,9.26l4.35,4.35Z" transform="translate(0 0)" fill="url(#b)"/><path d="M21,30.58a.92.92,0,0,0,0,1.3,1,1,0,0,0,.64.27l10.11.14a.92.92,0,0,0,.93-.9v0l-.15-10.07a.91.91,0,0,0-.93-.9.86.86,0,0,0-.63.26l-2.82,2.82-4.67-4.68-4.35,4.34,4.68,4.68Z" transform="translate(0 0)" fill="url(#c)"/><path d="M.94,32.23l10.11-.15a.92.92,0,0,0,.9-.94,1,1,0,0,0-.26-.63l-2.82-2.8L13.55,23,9.2,18.69,4.52,23.37,1.71,20.56a.92.92,0,0,0-1.3,0,.94.94,0,0,0-.26.63L0,31.31a.93.93,0,0,0,.94.93" transform="translate(0 0)" fill="url(#d)"/><rect width="32.68" height="32.29" fill="none"/></svg>