<svg xmlns="http://www.w3.org/2000/svg" viewBox="0 0 16.07 16.14"><defs><linearGradient id="a" x1="-812.7" y1="352.06" x2="-812.7" y2="351" gradientTransform="matrix(16.13, 0, 0, -16.12, 13116.86, 5676.06)" gradientUnits="userSpaceOnUse"><stop offset="0" stop-color="#ffdfb1"/><stop offset="0.11" stop-color="#fecf8a"/><stop offset="1" stop-color="#c47f2a"/></linearGradient></defs><path d="M15.68,7h0L9.1.45A1.47,1.47,0,0,0,7,.38l0,0H7L.43,7h0a1.49,1.49,0,0,0,1,2.54h.31v4.83a1.72,1.72,0,0,0,1.7,1.74H6a.47.47,0,0,0,.47-.47h0v-3.8a.79.79,0,0,1,.79-.79H8.81a.79.79,0,0,1,.79.79v3.8a.47.47,0,0,0,.47.47h2.58a1.77,1.77,0,0,0,1.74-1.73V9.56h.24a1.49,1.49,0,0,0,1-2.54Z" transform="translate(0 0.02)" fill="url(#a)"/></svg>
