<svg xmlns="http://www.w3.org/2000/svg" viewBox="0 0 49.3 111.58"><path d="M47.82,99.54l-1.56,6.37c-4.67,1.85-8.41,3.25-11.19,4.22a29.52,29.52,0,0,1-9.71,1.45c-5.66,0-10.07-1.39-13.21-4.14A13.43,13.43,0,0,1,7.44,96.91a38.33,38.33,0,0,1,.35-5.06C8,90.12,8.41,88.18,8.93,86l5.85-20.69c.52-2,1-3.85,1.31-5.63a24.45,24.45,0,0,0,.54-4.85c0-2.64-.55-4.49-1.64-5.53s-3.17-1.56-6.25-1.56a16.32,16.32,0,0,0-4.65.71c-1.59.47-2.95.93-4.09,1.35l1.56-6.38q5.74-2.34,11-4a32.91,32.91,0,0,1,9.94-1.67q8.43,0,13,4.08a13.51,13.51,0,0,1,4.57,10.59c0,.9-.1,2.48-.32,4.75a31.63,31.63,0,0,1-1.17,6.23L32.76,84c-.47,1.65-.9,3.55-1.28,5.68a29.48,29.48,0,0,0-.56,4.81c0,2.74.61,4.6,1.83,5.6s3.35,1.48,6.37,1.48a18.5,18.5,0,0,0,4.81-.74A26.38,26.38,0,0,0,47.82,99.54ZM49.3,13a12.06,12.06,0,0,1-4.07,9.18A13.86,13.86,0,0,1,35.42,26a14,14,0,0,1-9.85-3.79A12,12,0,0,1,21.46,13a12.17,12.17,0,0,1,4.11-9.21A13.94,13.94,0,0,1,35.42,0a13.84,13.84,0,0,1,9.81,3.82A12.2,12.2,0,0,1,49.3,13Z" fill="#fff"/></svg>