<?xml version="1.0" encoding="utf-8"?>
<!-- Generator: Adobe Illustrator 24.2.3, SVG Export Plug-In . SVG Version: 6.00 Build 0)  -->
<svg version="1.1" id="Capa_1" xmlns="http://www.w3.org/2000/svg" xmlns:xlink="http://www.w3.org/1999/xlink" x="0px" y="0px"
	 viewBox="0 0 356.4 392.7" style="enable-background:new 0 0 356.4 392.7;" xml:space="preserve">
<style type="text/css">
	.st0{fill:#E6AE62;}
</style>
<g>
	<path class="st0" d="M248.1,62.7c15,21.1,21.5,46.8,18.3,73.2c-0.7,5.5,6.1,6.4,9,6.8c1.3,0.2,2.6,0.2,3.6,0.2
		c5.4,0,6.6-2.9,6.9-5.4c3.8-30.4-4-61-21.8-86.2c-9.5-13.3-21.3-24.4-35.1-32.9C209.6,6.4,187.3,0,164.5,0
		c-30.3,0-59.4,11.1-81.9,31.4c-1,0.9-3,1.1-4,0.3l-8.3-6.4c-3.8-2.9-8-2.7-10.4,0c-1,1.2-2.2,3.3-1.7,6.9l3.4,26.6
		c0.7,5.7,5.6,10,11.4,10l28-3.5c5.4-0.7,6.8-3.9,7.2-5.3c0.4-1.4,0.8-4.9-3.5-8.2L97.3,46l-0.2-1.3c18.7-16.2,42.6-25.2,67.5-25.2
		c19.1,0,37.8,5.3,54.1,15.4C230.2,42.2,240.1,51.6,248.1,62.7z"/>
	<path class="st0" d="M356.4,351.1V218.2c0-10.9-8.9-19.8-19.8-19.8H184.3v26.7h134.1c3,0,5.4,2.4,5.4,5.4v108.2
		c0,3-2.4,5.4-5.4,5.4H184.3v26.7h152.4C347.6,370.9,356.4,362,356.4,351.1z"/>
	<path class="st0" d="M19.8,392.7h132.9c10.9,0,19.8-8.9,19.8-19.8V119.3c0-10.9-8.9-19.8-19.8-19.8H19.8C8.8,99.5,0,108.4,0,119.3
		v253.6C0,383.8,8.8,392.7,19.8,392.7z M85.9,380.6c-6.9,0-12.4-5.6-12.4-12.4s5.6-12.4,12.4-12.4c6.9,0,12.4,5.6,12.4,12.4
		S92.8,380.6,85.9,380.6z M26.7,137.6c0-3,2.4-5.4,5.4-5.4h108.2c3,0,5.4,2.4,5.4,5.4v195.2c0,3-2.4,5.4-5.4,5.4H32.1
		c-3,0-5.4-2.4-5.4-5.4L26.7,137.6L26.7,137.6z"/>
</g>
</svg>
