<svg xmlns="http://www.w3.org/2000/svg" xmlns:xlink="http://www.w3.org/1999/xlink" viewBox="0 0 21.85 16.88"><defs><linearGradient id="a" x1="-264.53" y1="404.49" x2="-264.53" y2="405.49" gradientTransform="matrix(13.64, 0, 0, -16.88, 3615.33, 6845.44)" gradientUnits="userSpaceOnUse"><stop offset="0" stop-color="#c47f2a"/><stop offset="0.89" stop-color="#fecf8a"/><stop offset="1" stop-color="#ffdfb1"/></linearGradient><linearGradient id="b" x1="-201.75" y1="386.2" x2="-201.75" y2="387.2" gradientTransform="matrix(3.41, 0, 0, -9.65, 705.45, 3740.75)" xlink:href="#a"/><linearGradient id="c" x1="-225.04" y1="400.76" x2="-225.04" y2="401.76" gradientTransform="matrix(4.73, 0, 0, -14.65, 1084.11, 5886.08)" xlink:href="#a"/></defs><path d="M13,0A8.68,8.68,0,0,0,5.73,3.91H2.43A2.41,2.41,0,0,0,0,6.29H0v4.3A2.41,2.41,0,0,0,2.43,13h3.3A8.67,8.67,0,0,0,13,16.88a.61.61,0,0,0,.62-.61h0V.61A.61.61,0,0,0,13,0" transform="translate(0 0)" fill="url(#a)"/><path d="M15.73,3.73a.59.59,0,0,0-.83.14h0a.6.6,0,0,0,.15.85A4.51,4.51,0,0,1,16.17,11,4.37,4.37,0,0,1,15,12.16a.61.61,0,0,0,.35,1.11.6.6,0,0,0,.34-.11,5.75,5.75,0,0,0,1.42-8,5.64,5.64,0,0,0-1.42-1.42" transform="translate(0 0)" fill="url(#b)"/><path d="M18.07,1.21a.61.61,0,0,0-.84.21.6.6,0,0,0,.14.79,7.59,7.59,0,0,1,0,12.46.62.62,0,0,0-.14.85.63.63,0,0,0,.84.15A8.81,8.81,0,0,0,20.28,3.42a8.92,8.92,0,0,0-2.21-2.21" transform="translate(0 0)" fill="url(#c)"/></svg>