<svg xmlns="http://www.w3.org/2000/svg" viewBox="0 0 25.01 24.86"><path d="M11.64,24.86a12.39,12.39,0,0,1-4.1-1,12.61,12.61,0,0,1-5.78-5.38A12,12,0,0,1,.08,14,12.3,12.3,0,0,1,1.29,7.11,13,13,0,0,1,5.22,2.43,13.57,13.57,0,0,1,10,.06a13,13,0,0,1,2.49,0,1.22,1.22,0,0,1,1.27,1.16v.06a1.21,1.21,0,0,1-1,1.21h-1.1a10,10,0,0,0-5.37,2.2,10.14,10.14,0,0,0-3.53,5.78,9.8,9.8,0,0,0,2,8.27,9.61,9.61,0,0,0,5.78,3.58,10,10,0,0,0,9.71-3.7A1.44,1.44,0,0,1,21,18a1.25,1.25,0,0,1,1.51.93,1.22,1.22,0,0,1-.18,1,12.55,12.55,0,0,1-4.91,4,12.44,12.44,0,0,1-3.3.86Z" transform="translate(0 0)" fill="#e7ae5f"/><path d="M24.93,12.66a13.22,13.22,0,0,1-.4,3,1.28,1.28,0,0,1-.86.93,1.23,1.23,0,0,1-1.22-.35,1.18,1.18,0,0,1-.29-1.16,4.54,4.54,0,0,1,.29-1.9,10,10,0,0,0-.64-4.34,9.18,9.18,0,0,0-2.08-3,10.71,10.71,0,0,0-3.41-2.6,1.2,1.2,0,0,1-.78-1.52A1.2,1.2,0,0,1,16.72.87l.7.12A12.34,12.34,0,0,1,23.2,5.84,12.08,12.08,0,0,1,25,10.47,13.33,13.33,0,0,1,24.93,12.66Z" transform="translate(0 0)" fill="#e7ae5f"/><path d="M13,13.13h3.47a1.31,1.31,0,0,1,1,.34,1.23,1.23,0,0,1,.34,1.22,1,1,0,0,1-1,.86H11.64a1.15,1.15,0,0,1-1.16-.75,1.88,1.88,0,0,1,0-.58V7.81a1.27,1.27,0,0,1,1.16-1.27,1.16,1.16,0,0,1,1.45.75,1.47,1.47,0,0,1,.05.29v5.78Z" transform="translate(0 0)" fill="#e7ae5f"/></svg>