<svg xmlns="http://www.w3.org/2000/svg" xmlns:xlink="http://www.w3.org/1999/xlink" viewBox="0 0 71.1 44"><defs><linearGradient id="a" x1="-252.72" y1="430.75" x2="-252.67" y2="431.99" gradientTransform="matrix(29.71, 0, 0, -37.42, 7563.88, 16176.99)" gradientUnits="userSpaceOnUse"><stop offset="0" stop-color="#c47f2a"/><stop offset="0.88" stop-color="#fecf8a"/><stop offset="1" stop-color="#ffdfb1"/></linearGradient><linearGradient id="b" x1="-251.81" y1="417.83" x2="-251.75" y2="420.52" gradientTransform="matrix(26.95, 0, 0, -17.33, 6840.19, 7298.83)" xlink:href="#a"/><linearGradient id="c" x1="-240.25" y1="406.4" x2="-240.13" y2="410.19" gradientTransform="matrix(12.26, 0, 0, -12.26, 2997.48, 5042.52)" xlink:href="#a"/><linearGradient id="d" x1="-255.57" y1="432.51" x2="-255.54" y2="433.57" gradientTransform="matrix(44, 0, 0, -44, 11265.9, 19088.15)" xlink:href="#a"/><linearGradient id="e" x1="-248.14" y1="235.43" x2="-248.06" y2="257.54" gradientTransform="matrix(19.52, 0, 0, -2.11, 4865.53, 553.34)" xlink:href="#a"/><linearGradient id="f" x1="-137.4" y1="420.17" x2="-136.69" y2="422.55" gradientTransform="matrix(2.1, 0, 0, -19.57, 309.7, 8277.44)" xlink:href="#a"/></defs><path d="M52.45,40.72A18.64,18.64,0,0,1,41.29,37l1.21-1.69a16.6,16.6,0,1,0,10-29.91,16.24,16.24,0,0,0-9.34,2.76L42,6.37A18.7,18.7,0,1,1,52.45,40.72Z" transform="translate(0.1 0)" fill="url(#a)"/><path d="M52.45,40.72A18.64,18.64,0,0,1,41.29,37l1.21-1.69a16.61,16.61,0,0,0,23.28-3.07.76.76,0,0,1,.08-.11h0a16.53,16.53,0,0,0-13.22-6.6,17.62,17.62,0,0,0-5,.75l-1-2a16.94,16.94,0,0,1,5.74-.85,18.7,18.7,0,0,1,15.37,8.1l.42.61-.42.65A18.66,18.66,0,0,1,52.45,40.72Z" transform="translate(0.1 0)" fill="url(#b)"/><path d="M52.45,22.19A6.14,6.14,0,1,1,58.57,16h0a6.12,6.12,0,0,1-6.12,6.14ZM52,12a4,4,0,1,0,.84,0Z" transform="translate(0.1 0)" fill="url(#c)"/><path d="M22,44a22,22,0,1,1,22-22V22h0A22.07,22.07,0,0,1,22,44ZM21.67,1.87a20,20,0,1,0,.24,0Z" transform="translate(0.1 0)" fill="url(#d)"/><rect x="12.24" y="19.61" width="19.52" height="2.11" fill="url(#e)"/><rect x="20.98" y="10.86" width="2.1" height="19.57" fill="url(#f)"/></svg>