<svg xmlns="http://www.w3.org/2000/svg" viewBox="0 0 839.7 830"><g opacity="0.5"><path d="M827.31,409.12a.68.68,0,0,1-.54-.23l-8.38-9.52a.75.75,0,0,1,0-.71.71.71,0,0,1,.53-.51l12.43-2.5a.7.7,0,0,1,.68.24.72.72,0,0,1,.15.74l-4,11.9a.73.73,0,0,1-.57.5Zm-6.93-9.75,6.66,7.55,3.21-9.54Z" transform="translate(-0.07 -0.01)" fill="#35434f" stroke="#35434f"/><path d="M259.2,822.46h-.3L251.47,820a.76.76,0,0,1-.51-.56.73.73,0,0,1,.24-.72l5.95-5.2a.76.76,0,0,1,.71-.14.75.75,0,0,1,.51.56l1.57,7.67a.71.71,0,0,1-.24.72A.69.69,0,0,1,259.2,822.46ZM253.25,819l5,1.67-1-5.18Z" transform="translate(-0.07 -0.01)" fill="#35434f" stroke="#35434f"/><path d="M513.76,203.16h-.33a.77.77,0,0,1-.41-.63l-.93-11.89a.81.81,0,0,1,.33-.69.75.75,0,0,1,.74,0l10.7,5.15a.65.65,0,0,1,.42.59.76.76,0,0,1-.3.69l-9.81,6.72a.76.76,0,0,1-.42.06Zm0-11.36.74,9.27,7.67-5.26Z" transform="translate(-0.07 -0.01)" fill="#35434f" stroke="#35434f"/><path d="M409.09,396.22a.79.79,0,0,1-.62-.36l-4.94-8a.75.75,0,0,1,0-.74.7.7,0,0,1,.63-.39l9.36-.26a.71.71,0,0,1,.66.32.77.77,0,0,1,0,.75L409.75,396a.7.7,0,0,1-.63.39Zm-3.6-8,3.57,5.77,3.21-5.95Z" transform="translate(-0.07 -0.01)" fill="#35434f" stroke="#35434f"/><path d="M685.51,719.58h-.24a.72.72,0,0,1-.48-.56l-5.94-36.37a.76.76,0,0,1,.27-.71.81.81,0,0,1,.74,0l34.43,13.11a.82.82,0,0,1,.48.56.84.84,0,0,1-.27.72l-28.58,23.25a.72.72,0,0,1-.41,0Zm-4.91-36L686,717.44l26.59-21.64Z" transform="translate(-0.07 -0.01)" fill="#35434f" stroke="#35434f"/><path d="M107.83,301.43a.86.86,0,0,1-.45,0,.76.76,0,0,1-.27-.72l2.56-16.2a.72.72,0,0,1,.44-.6.77.77,0,0,1,.75,0l12.78,10.32a.79.79,0,0,1,.27.72.83.83,0,0,1-.47.56l-15.35,5.95Zm3-15.58-2.15,13.67,12.94-5Z" transform="translate(-0.07 -0.01)" fill="#35434f" stroke="#35434f"/><path d="M322.63,520.87a.89.89,0,0,1-.54-.21.83.83,0,0,1-.21-.72l3-12.57a.74.74,0,0,1,.91-.55.67.67,0,0,1,.3.16l9.37,8.92a.7.7,0,0,1,.21.71.83.83,0,0,1-.51.54l-12.43,3.63Zm3.48-11.9-2.47,10.08,10-3Z" transform="translate(-0.07 -0.01)" fill="#35434f" stroke="#35434f"/><path d="M285.22,240a.76.76,0,0,1-.3,0l-15.1-6.16a.68.68,0,0,1-.45-.56.73.73,0,0,1,.27-.69l12.9-10a.7.7,0,0,1,.71,0,.76.76,0,0,1,.48.6l2.23,16a.73.73,0,0,1-.3.68.81.81,0,0,1-.45.15Zm-13.65-7.11,12.73,5.2-1.87-13.62Z" transform="translate(-0.07 -0.01)" fill="#35434f" stroke="#35434f"/><path d="M16.54,755.26h-.21a.66.66,0,0,1-.5-.53l-1.9-8.57a.66.66,0,0,1,.24-.68.77.77,0,0,1,.71-.18L23.23,748a.68.68,0,0,1,.51.53.73.73,0,0,1-.24.72l-6.45,5.94a.67.67,0,0,1-.51.12Zm-.89-8.21L17,753l4.58-4.21Z" transform="translate(-0.07 -0.01)" fill="#35434f" stroke="#35434f"/><path d="M192.36,392.71a.65.65,0,0,1-.39,0l-30.09-16.8a.74.74,0,0,1-.39-.65.77.77,0,0,1,.36-.63L191.58,357a.75.75,0,0,1,.74,0,.77.77,0,0,1,.39.66l.51,34.46a.74.74,0,0,1-.39.65.79.79,0,0,1-.48,0Zm-28.63-17.54,27.86,15.58-.45-31.9Z" transform="translate(-0.07 -0.01)" fill="#35434f" stroke="#35434f"/><path d="M634.18,420.19h-.27a.78.78,0,0,1-.47-.57l-1.37-7.28a.79.79,0,0,1,.27-.69.69.69,0,0,1,.71-.15l7,2.47a.76.76,0,0,1,.51.57.84.84,0,0,1-.27.71l-5.62,4.82A.8.8,0,0,1,634.18,420.19Zm-.38-6.9.86,4.75,3.68-3.15Z" transform="translate(-0.07 -0.01)" fill="#35434f" stroke="#35434f"/><path d="M124.21,99.09a.61.61,0,0,1-.27,0l-23.43-8.92a.82.82,0,0,1-.48-.6.76.76,0,0,1,.27-.68L119.81,73.1a.86.86,0,0,1,1.14.43s0,.09,0,.13l4,24.77a.79.79,0,0,1-.27.72.94.94,0,0,1-.47-.06Zm-21.94-10,21,8.06-3.51-22.33Z" transform="translate(-0.07 -0.01)" fill="#35434f" stroke="#35434f"/><path d="M826.86,222.1h-.24L815,218.44a.74.74,0,0,1-.5-.93.72.72,0,0,1,.2-.32l8.92-8.27a.75.75,0,0,1,.74,0,.74.74,0,0,1,.51.54l2.64,11.89a.77.77,0,0,1-.21.69.66.66,0,0,1-.44.06Zm-10.2-4.73,9.19,3-2.11-9.4Z" transform="translate(-0.07 -0.01)" fill="#35434f" stroke="#35434f"/><path d="M696.29,779.82h0l-28.84-1.9a.64.64,0,0,1-.59-.41.67.67,0,0,1,0-.72l16.06-24a.79.79,0,0,1,.65-.33.75.75,0,0,1,.62.42L697,778.75a.77.77,0,0,1,0,.75A.78.78,0,0,1,696.29,779.82Zm-27.5-3.24,26.26,1.73L683.42,754.7Z" transform="translate(-0.07 -0.01)" fill="#35434f" stroke="#35434f"/><path d="M106.1,469.45h0l-11.89-1.6a.83.83,0,0,1-.6-1.19l7.26-9.42a.76.76,0,0,1,.71-.27.73.73,0,0,1,.57.45l4.52,11a.74.74,0,0,1-.44.95.53.53,0,0,1-.25.05Zm-10.41-3,9.25,1.28-3.54-8.65Z" transform="translate(-0.07 -0.01)" fill="#35434f" stroke="#35434f"/><path d="M611.11,28.32a.42.42,0,0,1-.27,0,.81.81,0,0,1-.48-.57l-3-19.06a.76.76,0,0,1,.24-.68.75.75,0,0,1,.74,0l18,6.87a.76.76,0,0,1,.48.56.73.73,0,0,1-.27.69L611.76,28.32a.82.82,0,0,1-.65,0ZM609,9.67l2.67,16.5,13-10.55Z" transform="translate(-0.07 -0.01)" fill="#35434f" stroke="#35434f"/><path d="M790.14,85.38h0L777,84.49a.77.77,0,0,1-.56-1.16l7.34-11a.83.83,0,0,1,.69-.32.78.78,0,0,1,.62.41L791,84.37a.81.81,0,0,1,0,.74.77.77,0,0,1-.89.27Zm-11.9-2.29,10.59.71-4.67-9.51Z" transform="translate(-0.07 -0.01)" fill="#35434f" stroke="#35434f"/><path d="M78.39,788.92a.7.7,0,0,1-.48-.18l-22.42-19a.74.74,0,0,1-.06-1,.9.9,0,0,1,.3-.21l27.62-9.78a.83.83,0,0,1,.72,0,.84.84,0,0,1,.27.72l-5.2,28.87a.76.76,0,0,1-.51.56ZM57.57,769.47l20.25,17.31,4.76-26.34Z" transform="translate(-0.07 -0.01)" fill="#35434f" stroke="#35434f"/><path d="M320.16,50.8H320a.77.77,0,0,1-.54-.54l-1.84-7.43a.72.72,0,0,1,.18-.72.77.77,0,0,1,.74-.17l7.38,2.11a.69.69,0,0,1,.5.53.72.72,0,0,1-.21.72l-5.5,5.32A.7.7,0,0,1,320.16,50.8Zm-.84-7.11,1.22,4.93,3.66-3.51Z" transform="translate(-0.07 -0.01)" fill="#35434f" stroke="#35434f"/><path d="M218.32,528.06h-.24l-27.15-8.92a.75.75,0,0,1-.26-1.28l21.43-19a.71.71,0,0,1,.72,0,.73.73,0,0,1,.5.57l5.74,28.07a.71.71,0,0,1-.24.68.64.64,0,0,1-.5-.12ZM192.6,517.9l24.74,8.23-5.2-25.54Z" transform="translate(-0.07 -0.01)" fill="#35434f" stroke="#35434f"/><path d="M97.15,251.18a.83.83,0,0,1-.5-.21L91,245.59a.74.74,0,0,1,0-1.05.63.63,0,0,1,.33-.2l7.49-2.2a.66.66,0,0,1,.71.18.7.7,0,0,1,.21.71l-1.84,7.58a.79.79,0,0,1-.51.54Zm-4.19-6,3.77,3.63L98,243.77Z" transform="translate(-0.07 -0.01)" fill="#35434f" stroke="#35434f"/><path d="M722.85,783.45a.73.73,0,0,1-.36,0,.66.66,0,0,1-.38-.62l-1.37-41.09a.7.7,0,0,1,.35-.66.77.77,0,0,1,.75,0l36.24,19.36a.72.72,0,0,1,0,1.28l-34.9,21.73a.62.62,0,0,1-.33,0Zm-.6-40.56,1.31,38.66,32.71-20.37Z" transform="translate(-0.07 -0.01)" fill="#35434f" stroke="#35434f"/><path d="M160.6,82.49h-.2a.73.73,0,0,1-.51-.56L153.05,52a.75.75,0,0,1,.56-.91.74.74,0,0,1,.39,0L183.32,60a.78.78,0,0,1,.51.57.81.81,0,0,1-.21.71l-22.54,21A.78.78,0,0,1,160.6,82.49Zm-5.94-29.58,6.42,27.41,20.61-19.15Z" transform="translate(-0.07 -0.01)" fill="#35434f" stroke="#35434f"/><path d="M132.86,780h0a.67.67,0,0,1-.62-.39l-9.31-17.89a.77.77,0,0,1,0-.75.7.7,0,0,1,.65-.32l20.25,1a.77.77,0,0,1,.63.41.89.89,0,0,1,0,.75l-11,16.79a.69.69,0,0,1-.62.45Zm-8-17.84,8.12,15.7L142.49,763Z" transform="translate(-0.07 -0.01)" fill="#35434f" stroke="#35434f"/><path d="M301,697.39a.7.7,0,0,1-.51-.2.79.79,0,0,1-.2-.72l7.4-30a.78.78,0,0,1,.5-.56.77.77,0,0,1,.74.2l22.31,21.41a.72.72,0,0,1,.21.72.68.68,0,0,1-.5.53l-29.74,8.63Zm7.82-29.34-6.78,27.53,27.24-7.9Z" transform="translate(-0.07 -0.01)" fill="#35434f" stroke="#35434f"/><path d="M361.19,666.09a.72.72,0,0,1-.44-.18.67.67,0,0,1-.27-.68l1.07-8a.72.72,0,0,1,.47-.6.83.83,0,0,1,.72,0l6.42,5a.78.78,0,0,1,.3.68.73.73,0,0,1-.45.6l-7.52,3Zm1.67-7.44-.75,5.5,5.12-2.11Z" transform="translate(-0.07 -0.01)" fill="#35434f" stroke="#35434f"/><path d="M826.35,22.7H826l-9.87-4.55a.73.73,0,0,1-.39-.95.79.79,0,0,1,.27-.33l8.92-6.3a.77.77,0,0,1,.75,0,.67.67,0,0,1,.41.6l1,10.73a.7.7,0,0,1-.32.68.67.67,0,0,1-.45.12Zm-8.41-5.44,7.55,3.48-.78-8.33Z" transform="translate(-0.07 -0.01)" fill="#35434f" stroke="#35434f"/><path d="M417.72,88.35a.62.62,0,0,1-.33,0l-16.06-8.18a.76.76,0,0,1-.41-.62.73.73,0,0,1,.35-.65l15.11-9.82a.7.7,0,0,1,.71,0,.73.73,0,0,1,.42.63l.95,17.84a.79.79,0,0,1-.33.68,1,1,0,0,1-.41.12Zm-14.57-8.92,13.64,6.93L416,70.92Z" transform="translate(-0.07 -0.01)" fill="#35434f" stroke="#35434f"/><path d="M709.74,110.32h-.24a.74.74,0,0,1-.48-.56l-9.3-44.42a.72.72,0,0,1,.23-.72.76.76,0,0,1,.75-.15l43.17,14.16a.68.68,0,0,1,.51.53.73.73,0,0,1-.24.72l-33.9,30.27a.82.82,0,0,1-.51.17Zm-8.3-44.06,8.92,41.92,31.9-28.54Z" transform="translate(-0.07 -0.01)" fill="#35434f" stroke="#35434f"/><path d="M362.71,450.46a.82.82,0,0,1-.63-.36.75.75,0,0,1,0-.74l19.57-35.95a.68.68,0,0,1,.62-.39.64.64,0,0,1,.66.36l21.34,34.93a.72.72,0,0,1,0,.75.94.94,0,0,1-.65.38Zm19.62-35.21L364,448.94l38.35-.95Z" transform="translate(-0.07 -0.01)" fill="#35434f" stroke="#35434f"/><path d="M743.66,705.22a.67.67,0,0,1-.5-.21.76.76,0,0,1-.21-.68l2.17-9.7a.72.72,0,0,1,1.22-.38l7.31,6.72a.74.74,0,0,1,0,1,.79.79,0,0,1-.33.2l-9.48,3Zm2.62-8.92-1.61,7.16,7-2.2Z" transform="translate(-0.07 -0.01)" fill="#35434f" stroke="#35434f"/><path d="M273.8,454.5a.8.8,0,0,1-.59-.3l-5.95-7.88a.81.81,0,0,1,0-.74.78.78,0,0,1,.6-.45l9.84-1.28a.71.71,0,0,1,.68.27.75.75,0,0,1,0,.74l-3.8,9.16a.76.76,0,0,1-.6.48Zm-4.67-8,4.49,6,2.81-6.78Z" transform="translate(-0.07 -0.01)" fill="#35434f" stroke="#35434f"/><path d="M594.28,580.54a.72.72,0,0,1-.6-.32.63.63,0,0,1,0-.72l16.12-37.82a.7.7,0,0,1,.59-.44.76.76,0,0,1,.69.3l24.53,32.88a.77.77,0,0,1,0,.72.72.72,0,0,1-.6.44l-40.73,4.82Zm16.35-37-15.16,35.33,38.18-4.52Z" transform="translate(-0.07 -0.01)" fill="#35434f" stroke="#35434f"/><path d="M757.94,147.43h0a.73.73,0,0,1-.57-.5l-9.1-27.77a.63.63,0,0,1,.16-.88.65.65,0,0,1,.56-.08l28.59,6a.77.77,0,0,1,.54.48.75.75,0,0,1,0,.74l-19.5,21.77a.71.71,0,0,1-.68.3Zm-8.12-27.5,8.3,25.3L776,125.4Z" transform="translate(-0.07 -0.01)" fill="#35434f" stroke="#35434f"/><path d="M59,432.14h-.21a.68.68,0,0,1-.5-.54L50.5,399.76a.66.66,0,0,1,.21-.71.74.74,0,0,1,.71-.18l31.46,9.19a.74.74,0,0,1,.5.92.76.76,0,0,1-.2.32L59.39,432a.7.7,0,0,1-.39.18Zm-6.78-31.49L59.42,430l21.83-20.81Z" transform="translate(-0.07 -0.01)" fill="#35434f" stroke="#35434f"/><path d="M214.78,195a1.09,1.09,0,0,1-.36,0l-13.26-7.17a.78.78,0,0,1-.39-.65.76.76,0,0,1,.36-.66L214,178.65a.75.75,0,0,1,.74,0,.81.81,0,0,1,.39.66l.41,15a.75.75,0,0,1-.35.66A.65.65,0,0,1,214.78,195Zm-11.89-8,11,6-.36-12.49Z" transform="translate(-0.07 -0.01)" fill="#35434f" stroke="#35434f"/><path d="M498.89,701.32a.64.64,0,0,1-.62-.35.72.72,0,0,1,0-.75l3.48-6.48a.65.65,0,0,1,.62-.38.81.81,0,0,1,.65.32l3.9,6.28a.7.7,0,0,1,0,.74.78.78,0,0,1-.65.39l-7.34.23Zm3.51-5.73-2.26,4.22,4.82-.18Z" transform="translate(-0.07 -0.01)" fill="#35434f" stroke="#35434f"/><path d="M330.27,468.56a.76.76,0,0,1-.63-.35l-5-8.3a.77.77,0,0,1,0-.75.66.66,0,0,1,.62-.38l9.73-.24a.84.84,0,0,1,.65.35.77.77,0,0,1,0,.75L331,468.17a.68.68,0,0,1-.62.39Zm-3.75-8.32,3.72,5.94,3.42-6.27Z" transform="translate(-0.07 -0.01)" fill="#35434f" stroke="#35434f"/><path d="M829.39,542.48h-.15l-27.54-5.94a.79.79,0,0,1-.53-.48.74.74,0,0,1,.15-.74l18.82-20.82a.89.89,0,0,1,.68-.24.81.81,0,0,1,.57.51l8.71,26.76a.74.74,0,0,1-.15.74.77.77,0,0,1-.56.21Zm-26-7,25,5.29-7.91-24.29Z" transform="translate(-0.07 -0.01)" fill="#35434f" stroke="#35434f"/><path d="M274.72,773.07a.78.78,0,0,1-.65-.35l-3.81-6.34a.75.75,0,0,1,0-.74.81.81,0,0,1,.66-.39l7.37-.15a.87.87,0,0,1,.66.36.75.75,0,0,1,0,.74l-3.57,6.49a.78.78,0,0,1-.66.38Zm-2.52-6.36,2.5,4.13,2.32-4.22Z" transform="translate(-0.07 -0.01)" fill="#35434f" stroke="#35434f"/><path d="M765.31,43.42h0a.79.79,0,0,1-.63-.41L748.06,10.3a.75.75,0,0,1,0-.74.65.65,0,0,1,.69-.33L785.5,11.1a.77.77,0,0,1,.62.42.7.7,0,0,1,0,.74L766,43.09A.73.73,0,0,1,765.31,43.42ZM749.82,10.63l15.46,30.56,18.85-28.78Z" transform="translate(-0.07 -0.01)" fill="#35434f" stroke="#35434f"/><path d="M350.49,25.17a.69.69,0,0,1-.6-.33l-9.36-13.5a.81.81,0,0,1,0-.74.75.75,0,0,1,.62-.42l16.18-1.34a.7.7,0,0,1,.68.33.75.75,0,0,1,0,.74l-7,14.87a.78.78,0,0,1-.62.41Zm-8-13.62,7.88,11.39,6-12.52Z" transform="translate(-0.07 -0.01)" fill="#35434f" stroke="#35434f"/><path d="M154.39,16H154a.67.67,0,0,1-.38-.57l-.33-8a.72.72,0,0,1,.33-.89.75.75,0,0,1,.74,0l7.11,3.72a.78.78,0,0,1,.41.62.81.81,0,0,1-.35.69l-6.78,4.34A.89.89,0,0,1,154.39,16Zm.45-7.53.3,5.45,4.6-3Z" transform="translate(-0.07 -0.01)" fill="#35434f" stroke="#35434f"/><path d="M780.92,204.23h-.17L752,196.76a.76.76,0,0,1-.49-1,.72.72,0,0,1,.17-.29l20.81-21.08a.71.71,0,0,1,.71-.21.76.76,0,0,1,.54.54l7.82,28.6a.77.77,0,0,1-.18.74A.89.89,0,0,1,780.92,204.23Zm-27.26-8.66,26.22,6.87-7.16-26.13Z" transform="translate(-0.07 -0.01)" fill="#35434f" stroke="#35434f"/><path d="M377.34,272.2h0l-17.46-1.1a.77.77,0,0,1-.62-.42.75.75,0,0,1,0-.74l9.66-14.54a.75.75,0,0,1,1-.26.65.65,0,0,1,.26.26l7.94,15.7a.75.75,0,0,1,0,.74A.71.71,0,0,1,377.34,272.2Zm-16.09-2.53,14.87.95-6.63-13.32Z" transform="translate(-0.07 -0.01)" fill="#35434f" stroke="#35434f"/><path d="M824.15,689.52a.58.58,0,0,1-.32,0l-39.55-19.24a.75.75,0,0,1-.26-1,.65.65,0,0,1,.26-.26l36.46-24.62a.78.78,0,0,1,1.15.62l3,43.86a.55.55,0,0,1-.37.67.52.52,0,0,1-.35,0Zm-37.94-20,37.23,18.11-3-41.3Z" transform="translate(-0.07 -0.01)" fill="#35434f" stroke="#35434f"/><path d="M570,355.72h-.24l-9.51-3.21a.72.72,0,0,1-.5-.9.79.79,0,0,1,.23-.35l7.55-6.63a.71.71,0,0,1,.72,0,.73.73,0,0,1,.5.57l2,9.84a.68.68,0,0,1-.23.68A.66.66,0,0,1,570,355.72Zm-8.05-4.34,7.07,2.38-1.48-7.31Z" transform="translate(-0.07 -0.01)" fill="#35434f" stroke="#35434f"/><path d="M541.47,153.17h-.18a.72.72,0,0,1-.53-.53l-3-11.57a.67.67,0,0,1,.92-.8l11.45,3.26a.72.72,0,0,1,.54.54.83.83,0,0,1-.21.71l-8.56,8.3a.71.71,0,0,1-.45.09Zm-1.84-11.24,2.26,8.92,6.72-6.51Z" transform="translate(-0.07 -0.01)" fill="#35434f" stroke="#35434f"/><path d="M379.6,131.35h0a.74.74,0,0,1-.57-.51L373.56,113a.76.76,0,0,1,.5-.94.74.74,0,0,1,.39,0l18.14,4.16a.7.7,0,0,1,.54.51.73.73,0,0,1-.15.71l-12.82,13.92a.77.77,0,0,1-.56,0Zm-4.43-17.46,4.7,15.35,10.94-11.75Z" transform="translate(-0.07 -0.01)" fill="#35434f" stroke="#35434f"/><path d="M17.7,26.12h-.18a.82.82,0,0,1-.53-.54L11,4a.75.75,0,0,1,0-.74A.81.81,0,0,1,11.81,3L33.58,8.54a.73.73,0,0,1,.53.54.79.79,0,0,1-.17.71L18.35,25.88A.69.69,0,0,1,17.7,26.12Zm-5-21.35,5.41,19.15L32,9.67Z" transform="translate(-0.07 -0.01)" fill="#35434f" stroke="#35434f"/><path d="M98,347.69a.67.67,0,0,1-.56-.26.77.77,0,0,1,0-.75l5.94-14.3a.7.7,0,0,1,.6-.44.68.68,0,0,1,.68.26l9.43,12.28a.77.77,0,0,1,0,.75.7.7,0,0,1-.6.44l-15.31,2Zm6.13-13.56L99.17,346l12.79-1.7Z" transform="translate(-0.07 -0.01)" fill="#35434f" stroke="#35434f"/><path d="M107,533.27a.73.73,0,0,1-.62-.33l-17-26a.75.75,0,0,1,0-.74.77.77,0,0,1,.62-.42l31-1.75a.7.7,0,0,1,.8.61.68.68,0,0,1-.09.46l-14.12,27.62a.7.7,0,0,1-.63.39Zm-15.7-26L106.93,531l12.82-25.42Z" transform="translate(-0.07 -0.01)" fill="#35434f" stroke="#35434f"/><path d="M474.72,470h-.3a.84.84,0,0,1-.45-.59l-2.71-21.65a.8.8,0,0,1,.3-.69.83.83,0,0,1,.75,0l20.07,8.48a.7.7,0,0,1,.44.59.74.74,0,0,1-.3.69L475.16,470a.69.69,0,0,1-.45,0Zm-1.82-21.17,2.38,19.06,15.34-11.6Z" transform="translate(-0.07 -0.01)" fill="#35434f" stroke="#35434f"/><path d="M220.55,133.4h0l-33.3-2.05a.77.77,0,0,1-.63-.42.75.75,0,0,1,0-.74L205,102.3a.71.71,0,0,1,.68-.33.68.68,0,0,1,.62.39l14.87,29.73a.75.75,0,0,1-.34,1,.77.77,0,0,1-.34.07ZM188.61,130l30.75,1.81-13.68-27.56Z" transform="translate(-0.07 -0.01)" fill="#35434f" stroke="#35434f"/><path d="M26.2,180.56h0l-10.82-.33a.68.68,0,0,1-.62-.39.75.75,0,0,1,0-.74l5.65-9.1a.76.76,0,0,1,1.31,0l5.14,9.54a.77.77,0,0,1,0,.75.7.7,0,0,1-.65.24Zm-9.51-1.64h8.24L21,171.76Z" transform="translate(-0.07 -0.01)" fill="#35434f" stroke="#35434f"/><path d="M660.88,129.3h-.3l-6.9-2.83a.75.75,0,0,1-.44-.59.71.71,0,0,1,.27-.69l5.94-4.55a.77.77,0,0,1,.75,0,.79.79,0,0,1,.44.6l1,7.4a.54.54,0,0,1-.77.65Zm-5.44-3.9,4.52,1.87-.65-4.85Z" transform="translate(-0.07 -0.01)" fill="#35434f" stroke="#35434f"/><path d="M826.12,731.09a.73.73,0,0,1-.54-.24l-6.87-7.49a.7.7,0,0,1-.15-.72.78.78,0,0,1,.54-.5l9.9-2.2a.71.71,0,0,1,.71.24.77.77,0,0,1,.18.71l-3,9.66a.81.81,0,0,1-.54.51Zm-5.42-7.79,5.09,5.59,2.29-7.23Z" transform="translate(-0.07 -0.01)" fill="#35434f" stroke="#35434f"/><path d="M451.52,824.16h0l-31.31-1a.67.67,0,0,1-.62-.38.77.77,0,0,1,0-.75l16.47-26.76a.81.81,0,0,1,.66-.32.73.73,0,0,1,.65.38l14.87,27.6a.75.75,0,0,1,0,.74.83.83,0,0,1-.72.48Zm-30-2.44,28.73.89-13.59-25.22Z" transform="translate(-0.07 -0.01)" fill="#35434f" stroke="#35434f"/><path d="M764.3,591.4a.72.72,0,0,1-.74-.69.5.5,0,0,1,0-.24l7.07-26.37a.71.71,0,0,1,.54-.5.76.76,0,0,1,.71.17l19.27,19.33a.71.71,0,0,1,.21.71.74.74,0,0,1-.54.54l-26.37,7Zm7.46-25.66-6.43,23.78,23.79-6.36Z" transform="translate(-0.07 -0.01)" fill="#35434f" stroke="#35434f"/><path d="M366.25,769.3a1.09,1.09,0,0,1-.36,0,.7.7,0,0,1-.39-.63v-7.94a.76.76,0,0,1,.36-.65.66.66,0,0,1,.74,0l6.93,3.84a.74.74,0,0,1,.39.65.72.72,0,0,1-.36.62l-6.81,4.11A.85.85,0,0,1,366.25,769.3Zm.62-7.4v5.35l4.61-2.74Z" transform="translate(-0.07 -0.01)" fill="#35434f" stroke="#35434f"/><path d="M553.72,96.23a.79.79,0,0,1-.56-.27L529.1,68.73A.84.84,0,0,1,529,68a.78.78,0,0,1,.57-.47l35.68-7.2a.71.71,0,0,1,.71.24.69.69,0,0,1,.15.71l-11.63,34.4a.72.72,0,0,1-.56.5ZM531.09,68.7,553.57,94l10.74-32Z" transform="translate(-0.07 -0.01)" fill="#35434f" stroke="#35434f"/><path d="M403.18,164.32h-.3a.73.73,0,0,1-.45-.59l-1-8.33a.71.71,0,0,1,.3-.68.75.75,0,0,1,.71,0l7.7,3.3a.78.78,0,0,1,.45.62.74.74,0,0,1-.3.66l-6.72,4.75a.7.7,0,0,1-.42.27Zm0-7.88.68,5.77,4.64-3.48Z" transform="translate(-0.07 -0.01)" fill="#35434f" stroke="#35434f"/><path d="M103.1,612.21h0l-37.65-8.92a.75.75,0,0,1-.54-.91.64.64,0,0,1,.19-.34l26.43-28.16a.83.83,0,0,1,.72-.21.75.75,0,0,1,.44.72l11.15,37a.62.62,0,0,1-.18.71.66.66,0,0,1-.56.12Zm-36.19-10L102,610.45,91.59,575.93Z" transform="translate(-0.07 -0.01)" fill="#35434f" stroke="#35434f"/><path d="M562.22,773.87H562l-12.76-3.53a.86.86,0,0,1-.53-.54.77.77,0,0,1,.2-.71l9.49-9.31a.74.74,0,0,1,1.05.05.73.73,0,0,1,.17.31l3.3,12.84a.67.67,0,0,1-.72.89ZM550.9,769.2l10.28,3-2.64-10.34Z" transform="translate(-0.07 -0.01)" fill="#35434f" stroke="#35434f"/><path d="M654.67,84.4h-.21a.73.73,0,0,1-.5-.57l-2.26-9.78a.71.71,0,0,1,.23-.72.78.78,0,0,1,.72-.17l9.57,3a.76.76,0,0,1,.51.56.72.72,0,0,1-.21.72l-7.35,6.81A.77.77,0,0,1,654.67,84.4Zm-1.34-9.55L655,82.11,660.44,77Z" transform="translate(-0.07 -0.01)" fill="#35434f" stroke="#35434f"/><path d="M13.66,295.39h0a.71.71,0,0,1-.72-.5l-4.64-14a.75.75,0,0,1,0-.74.72.72,0,0,1,.87-.09l14.48,3a.74.74,0,0,1,.56.51.8.8,0,0,1,0,.71l-10,10.94a.8.8,0,0,1-.57.24ZM10.12,281.6,14,293.19l8.11-9.12Z" transform="translate(-0.07 -0.01)" fill="#35434f" stroke="#35434f"/><path d="M529.43,17.43a.71.71,0,0,1-.42-.14L521.16,12a.71.71,0,0,1-.33-.68.64.64,0,0,1,.42-.6l8.53-4.28a.77.77,0,0,1,.75,0,.69.69,0,0,1,.32.66l-.62,9.45a.75.75,0,0,1-.42.62.6.6,0,0,1-.38.24ZM523,11.49l5.74,3.9.48-6.9Z" transform="translate(-0.07 -0.01)" fill="#35434f" stroke="#35434f"/><path d="M712.74,22.22a.77.77,0,0,1-.65-.35l-5.77-9.46a.75.75,0,0,1,0-.74.68.68,0,0,1,.62-.39L718,11a.74.74,0,0,1,.76.7.79.79,0,0,1-.1.4l-5.27,9.72a.76.76,0,0,1-.65.39Zm-4.55-9.46L712.62,20l4.1-7.58Z" transform="translate(-0.07 -0.01)" fill="#35434f" stroke="#35434f"/><path d="M439.93,139.76h0a.79.79,0,0,1-.66-.35L435,131.88a.73.73,0,0,1,.62-1.1h8.63a.82.82,0,0,1,.65.36.75.75,0,0,1,0,.74l-4.34,7.53a.65.65,0,0,1-.66.35Zm-3-7.49,3,5.26,3-5.23Z" transform="translate(-0.07 -0.01)" fill="#35434f" stroke="#35434f"/><path d="M542.12,306.93a.64.64,0,0,1-.44-.15.77.77,0,0,1-.18-.71l6.81-21.44a.68.68,0,0,1,.53-.48.77.77,0,0,1,.72.21L564.72,301a.73.73,0,0,1-.06,1.05.76.76,0,0,1-.32.17l-22,4.85ZM549,285.52l-6.48,20.4,20.82-4.61Z" transform="translate(-0.07 -0.01)" fill="#35434f" stroke="#35434f"/><path d="M210.71,632.31a9.05,9.05,0,0,1-1.94-.33c-.68-.2-1.72-.47-1.93-.2a.75.75,0,0,1-1.19-.9h0c.83-1.07,2.26-.68,3.51-.35.71.18,1.73.47,1.93.21s-.32-1.22-.71-1.82c-.65-1.07-1.46-2.38-.65-3.48s2.31-.68,3.5-.35c.72.2,1.76.47,2,.2s-.36-1.22-.75-1.81c-.65-1.07-1.45-2.38-.65-3.48s2.32-.68,3.54-.36c.68.18,1.72.48,1.93.18s-.36-1.19-.74-1.81-1.46-2.38-.63-3.45a.71.71,0,0,1,1,0l0,0a.74.74,0,0,1,.14,1h0c-.2.27.36,1.19.72,1.78.65,1.07,1.46,2.41.65,3.48s-2.32.69-3.51.36c-.71-.18-1.75-.45-2-.18s.36,1.19.74,1.82c.66,1.07,1.46,2.37.66,3.47s-2.32.69-3.54.36c-.68-.21-1.73-.47-1.93-.21s.35,1.19.74,1.82,1.46,2.38.62,3.48a1.79,1.79,0,0,1-1.57.53Z" transform="translate(-0.07 -0.01)" fill="#35434f" stroke="#35434f"/><path d="M153.41,333.9a.73.73,0,0,1-.63-.36.75.75,0,0,1,.22-1h0c2.11-1.28,1.49-5,.86-8.65-.68-4.1-1.4-8.39,1.58-10.17s6.42.8,9.75,3.3,5.95,4.49,8.09,3.21,1.46-5,.86-8.65c-.68-4.1-1.4-8.36,1.55-10.17s6.42.8,9.75,3.33,5.95,4.49,8.06,3.21,1.49-5,.86-8.66c-.68-4.1-1.4-8.35,1.58-10.16s6.39.8,9.72,3.33,5.95,4.49,8.06,3.21a.77.77,0,0,1,1,.26.76.76,0,0,1-.27,1c-3,1.78-6.39-.8-9.72-3.3s-5.95-4.52-8.06-3.25-1.49,5-.86,8.66c.68,4.1,1.4,8.35-1.58,10.17s-6.39-.8-9.72-3.3-5.95-4.52-8.09-3.24-1.46,5-.86,8.65c.68,4.1,1.4,8.38-1.55,10.17s-6.42-.8-9.75-3.3-5.95-4.49-8.09-3.21-1.48,5-.86,8.65c.69,4.1,1.4,8.38-1.57,10.17A.69.69,0,0,1,153.41,333.9Z" transform="translate(-0.07 -0.01)" fill="#35434f" stroke="#35434f"/><path d="M597.1,165.93h-.24a.77.77,0,0,1-.47-1c.83-2.47-2.23-5.09-5.2-7.59s-6.81-5.76-5.65-9.21,5.65-3.69,10.05-4c3.86-.21,7.88-.44,8.71-3s-2.23-5.06-5.2-7.58-6.81-5.74-5.68-9.19,5.68-3.69,10.05-4c3.9-.2,7.91-.44,8.74-3s-2.14-5-5.11-7.52-6.81-5.77-5.68-9.22,5.68-3.69,10.05-3.93c3.9-.2,7.88-.44,8.71-3a.77.77,0,0,1,1-.47.75.75,0,0,1,.49.93v0c-1.16,3.42-5.68,3.69-10.05,3.92-3.9.21-7.91.45-8.71,3s2.23,5.08,5.2,7.58,6.81,5.77,5.65,9.22S608,121.77,603.65,122c-3.87.24-7.88.45-8.72,3s2.23,5.09,5.2,7.59,6.81,5.76,5.68,9.18-5.68,3.72-10,4c-3.9.24-7.91.47-8.74,3s2.23,5.09,5.2,7.61,6.81,5.77,5.65,9.19A.69.69,0,0,1,597.1,165.93Z" transform="translate(-0.07 -0.01)" fill="#35434f" stroke="#35434f"/><path d="M156.7,165.1a.72.72,0,0,1-.71-.66c-.18-1.16-2.2-1.66-4.16-2.11-2.41-.59-4.94-1.19-5.27-3.36s1.94-3.48,4.08-4.73,3.54-2.05,3.36-3.24-2.2-1.66-4.13-2.11c-2.44-.59-4.94-1.19-5.27-3.36s1.9-3.48,4.08-4.73,3.48-2.05,3.48-3.21-2.2-1.66-4.17-2.14c-2.41-.56-4.93-1.16-5.23-3.33s1.9-3.48,4.07-4.73c1.73-1,3.51-2,3.33-3.21a.76.76,0,0,1,1.49-.25h0c.3,2.18-1.93,3.48-4.07,4.73s-3.54,2.05-3.36,3.21,2.2,1.67,4.13,2.14c2.44.57,4.94,1.16,5.26,3.33s-1.9,3.48-4.07,4.73c-1.85,1.16-3.63,2-3.33,3.24s2.2,1.67,4.16,2.11,4.94,1.19,5.26,3.36-1.93,3.48-4.07,4.73-3.53,2-3.36,3.24,2.18,1.67,4.14,2.11c2.44.6,4.93,1.19,5.26,3.36a.74.74,0,0,1-.6.86h-.3Z" transform="translate(-0.07 -0.01)" fill="#35434f" stroke="#35434f"/><path d="M614.14,380.19c-2,0-3.24-2.17-4.43-4.28s-2.05-3.69-3.33-3.51a.75.75,0,0,1-.21-1.48c2.26-.31,3.57,2,4.85,4.25s2.08,3.71,3.3,3.53,1.78-2.26,2.29-4.28c.62-2.5,1.25-5.11,3.51-5.41s3.54,2,4.82,4.28c1,1.82,2.11,3.66,3.33,3.51s1.75-2.26,2.26-4.28c.62-2.5,1.27-5.09,3.5-5.41s3.57,2,4.85,4.28c1,1.81,2.08,3.66,3.33,3.51s1.76-2.26,2.26-4.28c.66-2.5,1.28-5.09,3.54-5.39a.73.73,0,0,1,.83.58v.05a.74.74,0,0,1-.64.83h0c-1.22.18-1.76,2.26-2.26,4.28-.63,2.5-1.28,5.09-3.51,5.42s-3.57-2-4.85-4.29c-1-1.81-2.11-3.68-3.33-3.51s-1.75,2.26-2.26,4.29c-.62,2.5-1.28,5.08-3.51,5.38s-3.56-2-4.84-4.25c-1-1.82-2.08-3.66-3.33-3.51s-1.76,2.26-2.26,4.28c-.63,2.5-1.25,5.08-3.51,5.38Z" transform="translate(-0.07 -0.01)" fill="#35434f" stroke="#35434f"/><path d="M351.74,169.82a3.46,3.46,0,0,1-2.23-.77c-2.35-1.81-1.34-5.32-.36-8.68.83-3,1.69-6,0-7.11s-4.22.39-6.84,1.9-6.16,3.6-8.5,1.79-1.34-5.33-.36-8.69c.84-3,1.73-5.94.18-7.1s-4.25.36-6.84,1.9-6.18,3.6-8.53,1.78-1.31-5.32-.33-8.68c.83-3,1.7-5.95,0-7.11a.77.77,0,0,1,0-1,.72.72,0,0,1,1,0l0,0c2.35,1.82,1.34,5.3.36,8.69-.83,3-1.73,5.94-.18,7.1s4.25-.39,6.84-1.9c3-1.78,6.18-3.63,8.5-1.78s1.34,5.29.36,8.68c-.84,3-1.7,5.95,0,7.08s4.22-.36,6.84-1.88,6.15-3.62,8.5-1.81,1.33,5.32.35,8.71c-.83,3-1.69,5.95,0,7.11s4.25-.39,6.84-1.9,6.19-3.6,8.5-1.79a.74.74,0,0,1-.89,1.19c-1.55-1.22-4.25.36-6.87,1.88A14.31,14.31,0,0,1,351.74,169.82Z" transform="translate(-0.07 -0.01)" fill="#35434f" stroke="#35434f"/><path d="M736.11,553.57a.7.7,0,0,1-.53-.23c-2.5-2.59-.63-6.72,1.18-10.68s3.3-7.17,1.49-8.92-5.5-.39-9.1,1.07c-4,1.61-8.23,3.3-10.73.68s-.63-6.69,1.19-10.67c1.63-3.54,3.3-7.17,1.48-8.92s-5.5-.39-9.1,1c-4,1.64-8.23,3.33-10.73.71s-.62-6.72,1.19-10.7c1.6-3.5,3.27-7.16,1.46-8.92s-5.5-.38-9.1,1.05c-4,1.63-8.27,3.33-10.77.71a.76.76,0,0,1,1.1-1c1.79,1.9,5.5.39,9.1-1s8.24-3.33,10.74-.72.62,6.72-1.19,10.7c-1.61,3.54-3.27,7.17-1.46,8.92s5.5.39,9.1-1.07,8.24-3.33,10.73-.71.63,6.72-1.19,10.7c-1.6,3.51-3.27,7.17-1.48,8.92s5.53.39,9.1-1.07c4.07-1.64,8.26-3.3,10.73-.71s.63,6.72-1.19,10.7c-1.6,3.5-3.27,7.16-1.48,8.92a.71.71,0,0,1,0,1l0,0a.69.69,0,0,1-.54.23Z" transform="translate(-0.07 -0.01)" fill="#35434f" stroke="#35434f"/><path d="M612.09,344.81a.86.86,0,0,1-.39,0,.74.74,0,0,1-.26-1c1.48-2.53-1.25-5.95-3.93-9.46s-6-7.67-4-11.09,6.9-2.67,11.65-2c4.25.62,8.66,1.28,10.14-1.25s-1.28-6-3.92-9.42-6-7.7-4-11.1,6.9-2.67,11.66-2c4.25.63,8.65,1.28,10.14-1.25s-1.28-5.94-3.93-9.42-5.94-7.7-4-11.09,6.9-2.68,11.62-2c4.29.66,8.69,1.31,10.14-1.21a.74.74,0,0,1,1.28.74c-2,3.39-6.87,2.67-11.62,2-4.26-.65-8.66-1.31-10.14,1.22s1.28,5.95,3.92,9.43,5.95,7.7,4,11.09-6.9,2.67-11.66,2c-4.25-.63-8.65-1.28-10.11,1.25s1.25,5.94,3.9,9.42,6,7.67,4,11.09-6.9,2.68-11.65,2c-4.25-.63-8.65-1.28-10.14,1.25s1.28,5.94,3.92,9.45,5.95,7.67,4,11.09a.73.73,0,0,1-.63.27Z" transform="translate(-0.07 -0.01)" fill="#35434f" stroke="#35434f"/><path d="M731.44,380.55a.74.74,0,0,1-.74-.68c-.27-3.69,3.92-5.71,7.94-7.65s7.31-3.51,7.11-6.18-4.11-3.93-7.89-5.15c-4.28-1.36-8.68-2.79-8.92-6.45s3.93-5.71,7.94-7.64,7.32-3.54,7.11-6.21-4.1-3.93-7.91-5.15c-4.25-1.36-8.65-2.76-8.92-6.45s3.93-5.71,7.94-7.67,7.28-3.51,7.11-6.21-4.1-3.93-7.91-5.15c-4.25-1.37-8.65-2.8-8.92-6.48a.72.72,0,0,1,.65-.77h0a.73.73,0,0,1,.8.68h0c.18,2.68,4.1,3.93,7.91,5.14,4.25,1.37,8.65,2.8,8.92,6.49s-3.9,5.71-7.94,7.64c-3.6,1.75-7.28,3.54-7.1,6.21s4.1,3.93,7.9,5.15c4.26,1.36,8.66,2.8,8.92,6.48s-3.9,5.68-7.93,7.64-7.29,3.51-7.11,6.19,4.1,3.92,7.91,5.14c4.25,1.37,8.68,2.76,8.92,6.45s-3.9,5.71-7.94,7.64-7.29,3.51-7.11,6.19a.74.74,0,0,1-.68.8h-.09Z" transform="translate(-0.07 -0.01)" fill="#35434f" stroke="#35434f"/><path d="M672.51,51.24a.73.73,0,0,1-.69-.44c-1.1-2.41,1.16-4.73,3.33-7s3.69-3.84,3-5.32-3.42-1.4-6-1.31c-3,.15-6.33.27-7.4-2.17s1.13-4.73,3.3-7,3.72-3.84,3-5.32-3.39-1.43-5.94-1.31c-3.12.15-6.34.27-7.44-2.17s1.16-4.76,3.33-7,3.72-3.84,3-5.35-3.39-1.43-6-1.31c-3.12,0-6.33.27-7.43-2.17a.75.75,0,0,1,.39-1,.74.74,0,0,1,1,.37c.69,1.54,3.39,1.42,5.95,1.3,3,0,6.33-.26,7.43,2.17s-1.13,4.76-3.3,7-3.71,3.84-3,5.35S662.46,20,665,19.9c3.12,0,6.33-.27,7.43,2.17s-1.16,4.76-3.33,7-3.71,3.84-3,5.35,3.39,1.4,6,1.28c3,0,6.33-.27,7.43,2.17s-1.16,4.76-3.33,7-3.69,3.84-3,5.35a.74.74,0,0,1-.36,1Z" transform="translate(-0.07 -0.01)" fill="#35434f" stroke="#35434f"/><path d="M498.3,410.14a2.44,2.44,0,0,1-.54,0c-1.28-.39-1.4-1.94-1.49-3.19,0-.71,0-1.78-.44-1.87s-1,.72-1.46,1.28-1.78,2.14-3,1.75-1.4-2-1.49-3.21c0-.68-.15-1.75-.47-1.87s-1,.74-1.46,1.28-1.79,2.17-3,1.75-1.39-2-1.48-3.18c0-.71,0-1.78-.45-1.9a.71.71,0,0,1-.49-.88l0,0a.75.75,0,0,1,.92-.48c1.28.39,1.4,1.94,1.48,3.19,0,.71,0,1.78.45,1.87s1-.72,1.46-1.28,1.78-2.17,3-1.75,1.4,2,1.49,3.21c0,.68,0,1.75.47,1.87s1-.71,1.46-1.28,1.78-2.17,3-1.75,1.4,2,1.49,3.18c0,.71,0,1.78.45,1.9s1-.74,1.48-1.28,1.76-2.17,3-1.75a.71.71,0,0,1,.52.86.14.14,0,0,1,0,.06.74.74,0,0,1-.91.51h0c-.33,0-1,.72-1.46,1.28S499.34,410.14,498.3,410.14Z" transform="translate(-0.07 -0.01)" fill="#35434f" stroke="#35434f"/><path d="M312.88,438.41a.71.71,0,0,1-.63-.38c-2.11-3.54,1.07-7.68,4.14-11.69s5.64-7.34,4-10-6.24-2-10.76-1.22c-5,.77-10.14,1.61-12.26-1.93s1.07-7.7,4.14-11.72,5.65-7.37,4-10.05-6.24-1.93-10.76-1.22c-5,.8-10.14,1.61-12.25-1.93s1-7.7,4.13-11.71,5.62-7.38,4-10.05-6.24-2-10.76-1.22c-5,.77-10.14,1.6-12.25-2a.74.74,0,0,1,.24-1,.78.78,0,0,1,1,.27c1.57,2.68,6.24,1.93,10.76,1.22,5-.77,10.14-1.61,12.25,1.93s-1,7.73-4.13,11.9-5.62,7.34-4,10.05,6.24,1.93,10.73,1.22c5-.8,10.17-1.64,12.28,1.93s-1.07,7.67-4.13,11.69-5.65,7.37-4.05,10.05,6.25,1.93,10.77,1.21,10.14-1.6,12.25,1.94-1.07,7.7-4.14,11.68-5.64,7.38-4,10.05a.74.74,0,0,1-.27,1A.62.62,0,0,1,312.88,438.41Z" transform="translate(-0.07 -0.01)" fill="#35434f" stroke="#35434f"/><path d="M684.4,571.09a4.4,4.4,0,0,1-3.86-1.69c-1.93-2.62.21-5.95,2.26-9.4s3.68-6,2.35-7.73-4.76-1-8.09,0c-3.78,1-7.7,2-9.64-.63s.18-5.95,2.26-9.42c1.82-3,3.69-6,2.35-7.73s-4.75-.93-8.08,0c-3.78,1-7.7,2-9.64-.63s.21-6,2.29-9.4,3.69-6,2.35-7.73a.71.71,0,0,1,.1-1l.05,0a.75.75,0,0,1,1,0c1.93,2.65-.21,5.95-2.29,9.4s-3.69,5.95-2.35,7.73,4.76.92,8.09,0c3.78-1,7.7-2,9.63.62s-.2,5.95-2.26,9.4-3.68,5.95-2.35,7.74,4.76.92,8.09,0c3.78-1,7.7-2,9.64.62s-.21,5.95-2.26,9.4-3.69,5.95-2.35,7.76,4.76.92,8.09,0c3.8-1,7.73-2,9.66.62a.74.74,0,0,1-.15,1,.75.75,0,0,1-1-.14h0c-1.37-1.85-4.79-1-8.09,0a25,25,0,0,1-5.8,1.21Z" transform="translate(-0.07 -0.01)" fill="#35434f" stroke="#35434f"/><path d="M675.81,826.51h0c-3-.42-3.92-4.1-4.79-7.65-.74-3-1.51-6.24-3.56-6.54s-3.66,2.56-5.24,5.29-3.68,6.49-6.72,5.95-4-4.1-4.81-7.64c-.75-3-1.52-6.24-3.57-6.54s-3.66,2.55-5.24,5.29c-1.81,3.18-3.68,6.48-6.72,6s-3.95-4.1-4.81-7.67c-.78-3-1.55-6.25-3.6-6.52s-3.66,2.53-5.24,5.3-3.68,6.45-6.75,5.94a.74.74,0,0,1-.62-.83.77.77,0,0,1,.83-.65c2.08.3,3.69-2.53,5.27-5.27s3.68-6.48,6.72-5.94,3.95,4.1,4.81,7.64c.78,3,1.55,6.24,3.6,6.54s3.66-2.56,5.24-5.29,3.68-6.45,6.72-6,3.95,4.08,4.81,7.64c.75,3,1.52,6.25,3.57,6.52s3.66-2.53,5.23-5.27,3.66-6.45,6.72-5.94,3.93,4.1,4.82,7.64c.74,3,1.52,6.24,3.54,6.54a.73.73,0,0,1,.65.82h0A.77.77,0,0,1,675.81,826.51Z" transform="translate(-0.07 -0.01)" fill="#35434f" stroke="#35434f"/><path d="M203.81,817.52h0c-2.53-.41-3.18-3.39-3.81-6.3-.53-2.4-1.07-4.87-2.58-5.14s-3,1.93-4.14,4-3,5.18-5.62,4.73-3.18-3.42-3.8-6.3c-.54-2.41-1.07-4.9-2.59-5.14s-3,1.93-4.13,4-3,5.18-5.62,4.73-3.19-3.42-3.81-6.3c-.54-2.41-1.07-4.91-2.62-5.17s-3,1.93-4.13,4c-1.52,2.56-3.12,5.14-5.62,4.76a.77.77,0,0,1-.62-.86.74.74,0,0,1,.84-.63h0c1.51.27,3-1.93,4.13-4s3-5.15,5.65-4.73,3.15,3.42,3.81,6.3c.5,2.41,1.07,4.91,2.58,5.17s3-1.93,4.14-4c1.51-2.56,3.12-5.14,5.62-4.76s3.18,3.42,3.8,6.3,1.07,4.91,2.59,5.18,3-1.94,4.13-4,3-5.17,5.62-4.73,3.19,3.39,3.81,6.3c.53,2.41,1.07,4.91,2.59,5.15a.74.74,0,0,1,.74.74.75.75,0,0,1-.74.75Z" transform="translate(-0.07 -0.01)" fill="#35434f" stroke="#35434f"/><path d="M354.86,389.59a.74.74,0,0,1-.57-.27c-.74-.86,0-1.93.3-2.79.18-.33.54-.95.48-1.13a4.61,4.61,0,0,0-1.16.3c-1,.3-2.08.68-2.83-.18s0-1.93.33-2.8a3.89,3.89,0,0,0,.48-1.13,4.08,4.08,0,0,0-1.19.3c-.92.3-2.08.65-2.8-.21s0-1.93.33-2.76a3.78,3.78,0,0,0,.47-1.16,3.79,3.79,0,0,0-1.19.3c-.92.3-2.08.68-2.79-.18a.74.74,0,1,1,1-1.08.69.69,0,0,1,.11.13,4.08,4.08,0,0,0,1.19-.3c.92-.3,2.08-.66,2.8.21s0,1.93-.3,2.76c-.18.36-.54,1-.48,1.16a4.83,4.83,0,0,0,1.19-.3c.92-.3,2.05-.68,2.8.18s0,1.93-.33,2.79a3.61,3.61,0,0,0-.47,1.13,3.54,3.54,0,0,0,1.19-.3c.92-.3,2.08-.65,2.8.21s.14,1.9-.33,2.77a3.39,3.39,0,0,0-.48,1.16.71.71,0,0,1,0,1l0,0a.91.91,0,0,1-.56.15Z" transform="translate(-0.07 -0.01)" fill="#35434f" stroke="#35434f"/><path d="M543.14,711.94h0a.74.74,0,0,1-.6-.86c.3-1.61,2.11-2,3.72-2.26,1.16-.24,2.47-.51,2.55-1.1s-1-1.31-2-1.94-3-1.87-2.64-3.45,2.11-2,3.71-2.25c1.16-.24,2.47-.51,2.56-1.11s-1-1.3-2-1.93-3-1.87-2.65-3.45,2.11-2,3.72-2.26,2.47-.5,2.56-1.1-1-1.31-2-1.93-3-1.87-2.64-3.48a.73.73,0,0,1,.86-.59.8.8,0,0,1,.6.89c0,.59,1,1.31,2,1.93s3,1.87,2.64,3.45-2.11,2-3.71,2.29c-1.16.21-2.44.48-2.56,1.07s1,1.31,2,1.93,3,1.88,2.65,3.48-2.11,1.93-3.72,2.26-2.44.48-2.56,1.07,1,1.31,2,1.93,3,1.88,2.67,3.45-2.14,2-3.75,2.29c-1.16.21-2.43.48-2.55,1.07A.74.74,0,0,1,543.14,711.94Z" transform="translate(-0.07 -0.01)" fill="#35434f" stroke="#35434f"/><path d="M518.75,660h0a.74.74,0,0,1-.62-.84v0c0-.18-.83-.65-1.13-.86-.92-.51-2-1.19-1.87-2.35s1.45-1.49,2.46-1.73c.36,0,1.31-.3,1.34-.5s-.83-.69-1.13-.86c-.89-.51-2-1.19-1.84-2.35s1.43-1.49,2.47-1.73c.32,0,1.31-.3,1.34-.47s-.87-.72-1.14-.87c-.92-.53-2-1.18-1.87-2.37s1.46-1.49,2.47-1.73c.33,0,1.31-.3,1.34-.48a.75.75,0,0,1,.85-.63.76.76,0,0,1,.64.86h0c-.17,1.16-1.45,1.46-2.46,1.7-.33,0-1.34.3-1.37.5s.86.69,1.16.86c.89.51,2,1.19,1.84,2.35s-1.42,1.49-2.47,1.73c-.32,0-1.3.3-1.33.47s.86.72,1.13.87c.92.53,2.05,1.19,1.87,2.38s-1.46,1.48-2.47,1.72c-.36,0-1.34.3-1.34.48s.8.68,1.13.86c.9.53,2,1.19,1.85,2.38A.74.74,0,0,1,518.75,660Z" transform="translate(-0.07 -0.01)" fill="#35434f" stroke="#35434f"/><path d="M238.39,665.17a9.13,9.13,0,0,1-5.2-3.12c-1.73-1.58-3.51-3.19-4.82-2.56a.71.71,0,0,1-1-.31l0,0a.74.74,0,0,1,.33-1c2.23-1.07,4.37.89,6.48,2.79s3.51,3.22,4.82,2.59,1.13-3,.95-5.38c-.21-2.82-.42-5.77,1.78-6.84s4.4.89,6.48,2.83,3.54,3.18,4.85,2.55,1.1-3,.95-5.38c-.21-3-.42-5.77,1.78-6.84s4.38.92,6.49,3,3.53,3.19,4.84,2.56,1.13-3,.95-5.38c-.2-2.82-.41-5.77,1.79-6.84a.75.75,0,0,1,1,.33v0a.71.71,0,0,1-.31,1l-.05,0c-1.31.62-1.13,3-.95,5.38.21,2.83.42,5.77-1.81,6.84s-4.37-.89-6.49-2.8-3.5-3.21-4.81-2.59-1.13,3-1,5.38c.2,3,.41,5.77-1.82,6.84s-4.37-.89-6.45-2.8-3.54-3.21-4.85-2.58-1.13,3-1,5.38c.21,3,.42,5.77-1.78,6.84a3.09,3.09,0,0,1-1.28.15Z" transform="translate(-0.07 -0.01)" fill="#35434f" stroke="#35434f"/><path d="M65.93,677.68h0a.73.73,0,0,1-.63-.84v0c0-.62-1.07-1.34-2.12-2s-3-1.84-3-3.48,2.11-2,3.78-2.41c1.19-.27,2.52-.56,2.61-1.19s-1.07-1.33-2.11-2-3-1.87-2.82-3.48,2.14-2.05,3.77-2.41c1.19-.26,2.53-.56,2.62-1.22s-1.07-1.33-2.11-2-3-1.84-2.82-3.48,2.14-2,3.77-2.4,2.53-.54,2.62-1.19a.75.75,0,0,1,1.49.23c-.27,1.64-2.15,2.06-3.78,2.41s-2.53.57-2.62,1.19,1.07,1.34,2.11,2,3,1.88,2.83,3.48-2.14,2-3.78,2.41c-1.19.27-2.52.57-2.64,1.22s1.1,1.34,2.14,2,3,1.85,2.8,3.48-2.11,2-3.75,2.41-2.53.56-2.65,1.19,1.07,1.34,2.12,2,3,1.87,2.82,3.48A.7.7,0,0,1,65.93,677.68Z" transform="translate(-0.07 -0.01)" fill="#35434f" stroke="#35434f"/><path d="M483.11,818.75a.75.75,0,0,1-.75-.75.74.74,0,0,1,.66-.74c1.78-.18,2.61-3,3.39-5.65s1.87-6.42,4.67-6.69,4.34,2.76,5.94,5.68,2.62,5.11,4.4,4.9,2.59-3,3.39-5.65c.92-3.15,1.88-6.42,4.64-6.69s4.37,2.74,5.95,5.68c1.28,2.5,2.56,5,4.4,4.88s2.58-3,3.36-5.62c.92-3.18,1.87-6.45,4.67-6.72s4.34,2.76,5.94,5.71c1.28,2.47,2.59,5,4.37,4.87a.75.75,0,0,1,.15,1.49c-2.8.24-4.34-2.76-5.94-5.71-1.28-2.47-2.62-5-4.38-4.87s-2.58,3-3.39,5.65-1.87,6.42-4.63,6.69-4.35-2.77-6-5.68-2.65-5-4.4-4.88-2.59,3-3.36,5.62c-.92,3.15-1.87,6.42-4.67,6.69s-4.34-2.74-5.95-5.68c-1.28-2.47-2.58-5-4.4-4.87s-2.61,3-3.39,5.62c-.92,3.18-1.87,6.45-4.66,6.72Z" transform="translate(-0.07 -0.01)" fill="#35434f" stroke="#35434f"/><path d="M24.72,239.37a.76.76,0,0,1-.74-.59c0-.24-1-.42-1.49-.51-1.07-.21-2.44-.47-2.68-1.69s.93-1.94,1.85-2.53c.41-.27,1.25-.8,1.22-1s-1.05-.42-1.55-.57c-1.1-.2-2.44-.44-2.68-1.66s.93-2,1.85-2.56c.39-.27,1.22-.8,1.19-1s-1-.42-1.49-.5c-1.1-.21-2.44-.45-2.68-1.67s.93-2,1.85-2.56c.41-.26,1.25-.8,1.19-1a.76.76,0,0,1,1.48-.3h0c.21,1.22-.92,2-1.87,2.56-.39.27-1.22.8-1.19,1s1,.42,1.49.51c1.1.2,2.44.44,2.68,1.66s-.93,2-1.85,2.56c-.41.27-1.25.8-1.19,1s1,.41,1.49.5c1.07.21,2.44.48,2.68,1.7s-.93,1.93-1.85,2.56c-.41.23-1.25.77-1.22,1s1,.41,1.52.5c1.07.21,2.41.45,2.64,1.67a.73.73,0,0,1-.55.89h0Z" transform="translate(-0.07 -0.01)" fill="#35434f" stroke="#35434f"/><path d="M378.56,826.62a.74.74,0,0,1-.75-.68c0-.48-1.18-.83-2.08-1.1-1.42-.45-3-.92-3.15-2.41s1.37-2.23,2.71-3c.86-.42,1.9-1,1.87-1.43s-1.19-.83-2.11-1.13c-1.4-.41-3-.92-3-2.41s1.36-2.23,2.7-3c.84-.42,1.9-.95,1.88-1.43s-1.19-.83-2.12-1.13c-1.4-.41-3-.92-3-2.41s1.37-2.23,2.71-3c.83-.41,1.9-1,1.87-1.43a.74.74,0,0,1,.74-.74.75.75,0,0,1,.75.74c0,1.46-1.4,2.23-2.71,3-.86.41-1.93,1-1.9,1.42s1.19.84,2.11,1.13c1.43.42,3,.93,3.15,2.41s-1.36,2.23-2.7,3c-.86.42-1.93,1-1.9,1.43s1.19.83,2.11,1.13c1.43.42,3,.92,3.15,2.41s-1.37,2.23-2.7,3c-.87.42-1.94,1-1.88,1.46s1.16.83,2.08,1.1c1.43.45,3,.92,3.16,2.41a.75.75,0,0,1-.69.8h0Z" transform="translate(-0.07 -0.01)" fill="#35434f" stroke="#35434f"/><path d="M18.65,513.82a25.81,25.81,0,0,1-7.16-1.54c-3.91-1.19-7.91-2.44-9.67-.3a.75.75,0,0,1-1,0,.75.75,0,0,1,0-1c2.35-3,6.87-1.52,11.24-.18,3.9,1.22,7.91,2.47,9.63.33s-.32-5.95-2.31-9.37c-2.23-4-4.55-8.12-2.18-11.06s6.87-1.52,11.24-.18c3.9,1.22,7.94,2.47,9.67.33s-.33-5.95-2.32-9.4-4.55-8.09-2.2-11,6.9-1.55,11.27-.18c3.9,1.19,7.94,2.44,9.66.3s-.32-5.95-2.32-9.4-4.54-8.12-2.17-11a.74.74,0,0,1,1,0,.74.74,0,0,1,.11,1c-1.72,2.14.33,5.95,2.32,9.4s4.55,8.12,2.17,11-6.9,1.55-11.27.21c-3.9-1.22-7.9-2.47-9.66-.33s.33,5.95,2.32,9.4,4.58,8.12,2.2,11-6.9,1.55-11.27.18c-3.9-1.19-7.91-2.44-9.63-.3s.32,5.95,2.32,9.37c2.23,4,4.54,8.11,2.17,11A4.82,4.82,0,0,1,18.65,513.82Z" transform="translate(-0.07 -0.01)" fill="#35434f" stroke="#35434f"/><path d="M820.11,279.1a4.45,4.45,0,0,1-2.14-.54c-3.51-1.81-3-6.78-2.53-11.57.42-4.31.86-8.74-1.75-10.11s-6,1.58-9.28,4.4-7.4,6.4-10.91,4.58-3-6.78-2.53-11.56c.42-4.31.86-8.75-1.75-10.11s-6,1.57-9.25,4.4-7.4,6.39-10.91,4.58-3-6.78-2.53-11.57c.41-4.31.86-8.74-1.73-10.11a.75.75,0,0,1,.54-1.39l.15.08c3.48,1.81,3,6.78,2.52,11.57-.44,4.28-.89,8.74,1.73,10.08s6-1.55,9.25-4.37,7.43-6.43,10.94-4.58,3,6.75,2.53,11.56c-.45,4.29-.9,8.75,1.72,10.08s6-1.54,9.28-4.37,7.4-6.42,10.91-4.58,3,6.78,2.56,11.57c-.45,4.31-.89,8.74,1.72,10.11s6-1.54,9.28-4.37,7.43-6.39,10.94-4.58a.74.74,0,0,1,.31,1,.73.73,0,0,1-1,.31h0c-2.62-1.34-6,1.55-9.28,4.4S823,279.1,820.11,279.1Z" transform="translate(-0.07 -0.01)" fill="#35434f" stroke="#35434f"/><path d="M610.69,617.83a.8.8,0,0,1-.5-.21.73.73,0,0,1,0-1l0,0a6.23,6.23,0,0,0-.42-1.19c-.41-.92-.92-2.05,0-3s1.93-.36,3,0c.39.15,1.07.45,1.25.36s-.27-.84-.41-1.19c-.42-.92-.92-2-.15-3s1.93-.38,3,0c.39.15,1.07.42,1.25.33a4.33,4.33,0,0,0-.42-1.19c-.41-.92-1-2-.15-3s1.94-.39,3,0a3.83,3.83,0,0,0,1.25.36.71.71,0,0,1,1,0l0,0a.75.75,0,0,1,0,1c-.8.83-1.94.38-3,0a3.84,3.84,0,0,0-1.24-.36,4,4,0,0,0,.41,1.22c.42.89.92,2,.15,3s-1.93.36-3,0a3.71,3.71,0,0,0-1.25-.35,4,4,0,0,0,.41,1.21c.42.9,1,2,.15,3s-1.93.35-3,0c-.39-.15-1.07-.45-1.25-.36a3.76,3.76,0,0,0,.42,1.22c.41.89.95,2,0,3A.75.75,0,0,1,610.69,617.83Z" transform="translate(-0.07 -0.01)" fill="#35434f" stroke="#35434f"/><path d="M399.1,362.65a.69.69,0,0,1-.47-.18c-3-2.44-1.46-7,0-11.47,1.28-4,2.61-8,.44-9.85s-5.95.24-9.63,2.23-8.33,4.52-11.27,2.08-1.46-7,0-11.47c1.28-4,2.62-8.06.44-9.88s-5.94.24-9.63,2.23-8.33,4.52-11.27,2.09-1.46-7.05,0-11.48c1.28-4,2.62-8.06.45-9.87s-6,.23-9.64,2.23-8.32,4.52-11.3,2.05a.76.76,0,0,1-.07-1.06.74.74,0,0,1,1.05-.07h0c2.18,1.81,5.95-.24,9.6-2.23s8.36-4.52,11.3-2.08,1.46,7,0,11.47-2.61,8.09-.44,9.88,5.95-.24,9.6-2.23,8.35-4.52,11.3-2.06,1.46,7,0,11.45-2.62,8.06-.45,9.87,5.95-.23,9.64-2.23,8.32-4.52,11.27-2.08,1.45,7.05,0,11.48c-1.28,4-2.62,8.06-.45,9.87a.8.8,0,0,1-.09,1.13.78.78,0,0,1-.39.18Z" transform="translate(-0.07 -0.01)" fill="#35434f" stroke="#35434f"/><path d="M825.91,348.82h0a.71.71,0,0,1-.69-.74v0c0-1.19,1.3-1.61,2.28-2,.33,0,1.31-.42,1.31-.63s-.89-.59-1.22-.74c-1-.45-2.17-1-2.08-2.2s1.31-1.61,2.29-1.93a2.41,2.41,0,0,0,1.31-.63c0-.17-.89-.59-1.22-.77-1-.42-2.17-1-2.08-2.17s1.28-1.61,2.29-2a2.41,2.41,0,0,0,1.31-.63c0-.17-.9-.59-1.22-.74-1-.44-2.17-1-2.08-2.2a.71.71,0,0,1,.71-.72h.06a.74.74,0,0,1,.68.79h0c0,.18.9.59,1.25.74.95.45,2.14,1,2.08,2.2s-1.3,1.61-2.32,2c-.35,0-1.27.42-1.3.63s.89.59,1.25.74c1,.44,2.14,1,2.08,2.2s-1.31,1.6-2.32,1.93a2.41,2.41,0,0,0-1.31.63c0,.17.89.59,1.25.77.95.41,2.14,1,2.08,2.17s-1.31,1.61-2.32,2c-.36,0-1.28.42-1.28.6a.73.73,0,0,1-.77.71Z" transform="translate(-0.07 -0.01)" fill="#35434f" stroke="#35434f"/><path d="M617.29,778.22h0c-1.19,0-1.63-1.22-2-2.17a3.48,3.48,0,0,0-.6-1.22c-.2,0-.5.83-.65,1.19-.42.92-.89,2.08-2,2.08h0c-1.16,0-1.61-1.19-2-2.17-.15-.36-.42-1.13-.63-1.19s-.47.8-.65,1.19c-.39.92-.86,2.08-2,2.08h0c-1.16,0-1.61-1.22-2-2.17-.14-.39-.41-1.13-.62-1.22a.75.75,0,0,1-.71-.75.76.76,0,0,1,.77-.74c1.16,0,1.61,1.22,2,2.17a3.48,3.48,0,0,0,.6,1.22c.2,0,.5-.83.65-1.19.42-1,.92-2.05,2.08-2.08s1.61,1.22,2,2.17a2,2,0,0,0,.6,1.19c.18.06.5-.8.65-1.16.42-1,1-2.17,2.08-2.08s1.61,1.19,2,2.14c.14.39.41,1.13.62,1.22s.5-.83.65-1.19c.39-.92.9-2.08,2-2.08h0a.74.74,0,0,1,.74.74.75.75,0,0,1-.74.75h0c-.18,0-.51.83-.66,1.19C619,777.06,618.42,778.22,617.29,778.22Z" transform="translate(-0.07 -0.01)" fill="#35434f" stroke="#35434f"/><path d="M323.52,343.56h-.24c-1.37-.42-1.49-2-1.58-3.42,0-.83,0-2-.56-2.11s-1.13.77-1.67,1.43-1.9,2.32-3.27,1.9-1.48-2-1.6-3.45c0-.83,0-2-.54-2.11s-1.13.77-1.66,1.42-1.9,2.32-3.27,1.9-1.49-2-1.61-3.44c0-.84,0-2-.57-2.11s-1.13.77-1.66,1.42-1.9,2.35-3.27,1.9a.74.74,0,0,1,.44-1.42c.42,0,1.13-.78,1.67-1.43s1.9-2.32,3.27-1.9,1.49,2,1.61,3.45c0,.83,0,2,.56,2.11s1.13-.78,1.67-1.43,1.9-2.32,3.27-1.9,1.48,2,1.57,3.42c0,.86.15,2,.57,2.14s1.13-.77,1.66-1.43,1.9-2.35,3.27-1.9,1.49,2,1.58,3.42c0,.86,0,2,.57,2.14a.72.72,0,0,1,.48.89v0A.67.67,0,0,1,323.52,343.56Z" transform="translate(-0.07 -0.01)" fill="#35434f" stroke="#35434f"/><path d="M775,442.37a15.09,15.09,0,0,1-3.65-.69c-2-.5-4-1-4.7,0a.74.74,0,1,1-1.19-.89h0c1.3-1.78,3.83-1.13,6.24-.48,2,.51,4,1.05,4.7,0s-.39-2.73-1.46-4.42-2.7-4.35-1.4-6.13,3.84-1.13,6.28-.51c1.93.51,4,1.05,4.67,0s-.39-2.76-1.46-4.46c-1.31-2.14-2.68-4.34-1.37-6.12s3.81-1.13,6.24-.51c2,.51,4,1,4.7,0s-.38-2.73-1.45-4.46-2.68-4.34-1.37-6.12a.75.75,0,0,1,1-.15.74.74,0,0,1,.15,1c-.72,1,.39,2.74,1.46,4.46s2.67,4.34,1.36,6.13-3.83,1.13-6.24.5-4-1-4.7,0,.39,2.74,1.46,4.43c1.3,2.14,2.7,4.34,1.36,6.13s-3.8,1.13-6.24.5c-2-.5-3.95-1-4.67,0s.39,2.77,1.43,4.46c1.34,2.14,2.71,4.34,1.4,6.13a3,3,0,0,1-2.59,1.16Z" transform="translate(-0.07 -0.01)" fill="#35434f" stroke="#35434f"/><path d="M468.74,524.94a8,8,0,0,1-4.1-2.17c-1.34-1.1-2.74-2.23-3.6-1.75a.75.75,0,0,1-1-.18.74.74,0,0,1,.17-1l.13-.07c1.75-1,3.63.53,5.29,1.87s2.74,2.2,3.63,1.72.62-2.29.39-4-.63-4.49,1.13-5.47,3.62.53,5.29,1.87,2.73,2.2,3.63,1.73.62-2.29.38-4-.59-4.49,1.13-5.47,3.63.51,5.3,1.85,2.76,2.23,3.62,1.72.63-2.26.42-4-.62-4.52,1.13-5.5a.75.75,0,0,1,.74,1.31c-.89.47-.65,2.26-.41,4s.59,4.52-1.13,5.5-3.63-.54-5.3-1.87-2.76-2.2-3.62-1.73-.63,2.29-.39,4,.59,4.49-1.16,5.47-3.63-.54-5.29-1.88-2.77-2.2-3.6-1.72-.63,2.29-.42,4,.62,4.49-1.13,5.47a2.18,2.18,0,0,1-1.19.33Z" transform="translate(-0.07 -0.01)" fill="#35434f" stroke="#35434f"/><path d="M816.18,475.19H816a.73.73,0,0,1-.48-.92c.39-1.22,1.78-1.31,3-1.4.54,0,1.52,0,1.61-.35s-.68-.87-1.1-1.22c-.89-.72-2-1.64-1.61-2.83s1.82-1.31,3-1.4c.53,0,1.54,0,1.63-.32s-.71-.9-1.13-1.25c-.86-.72-2-1.64-1.57-3s1.78-1.3,3-1.4c.53,0,1.52,0,1.61-.32s-.69-.9-1.1-1.25c-.9-.72-2-1.64-1.61-2.83a.77.77,0,0,1,1-.47.75.75,0,0,1,.48.92c0,.24.68.89,1.1,1.25.89.71,2,1.6,1.6,3s-1.81,1.31-3,1.37c-.54,0-1.55,0-1.64.36s.72.89,1.13,1.24c.87.72,2,1.61,1.58,2.83s-1.78,1.31-3,1.37c-.54,0-1.52,0-1.61.35s.69.9,1.1,1.22c.89.75,2,1.64,1.61,3s-1.82,1.28-3,1.36c-.53,0-1.54,0-1.63.36A.74.74,0,0,1,816.18,475.19Z" transform="translate(-0.07 -0.01)" fill="#35434f" stroke="#35434f"/><path d="M469.34,725h-.27c-1.7-.62-1.73-2.76-1.76-4.61s0-3-.77-3.27-1.75.84-2.76,1.94-2.68,3-4.38,2.29-1.69-2.77-1.72-4.64,0-3-.8-3.24-1.75.83-2.74,1.9-2.7,3-4.37,2.31-1.72-2.76-1.75-4.63,0-3-.77-3.28-1.79.87-2.77,1.94-2.68,3-4.37,2.29a.74.74,0,0,1-.45-1h0a.8.8,0,0,1,1-.45c.72.3,1.76-.83,2.74-1.9s2.71-3,4.37-2.29,1.73,2.74,1.76,4.61,0,3,.8,3.27,1.75-.83,2.73-1.93,2.68-3,4.37-2.29,1.73,2.76,1.76,4.64,0,3,.77,3.24,1.75-.84,2.76-1.9,2.68-3,4.38-2.32,1.69,2.76,1.72,4.64,0,3,.77,3.24a.77.77,0,0,1,.45,1A.74.74,0,0,1,469.34,725Z" transform="translate(-0.07 -0.01)" fill="#35434f" stroke="#35434f"/><path d="M184.87,580.33c-1.79,0-3-1.93-4.17-3.77s-2-3.24-3.15-3a.75.75,0,0,1-.88-.57.74.74,0,0,1,.57-.88h0c2.06-.39,3.39,1.69,4.67,3.72s2.05,3.24,3.15,3,1.49-2.11,1.85-4c.47-2.34,1-4.75,3-5.14s3.39,1.7,4.67,3.72,2,3.27,3.18,3,1.46-2.14,1.85-4c.44-2.35.95-4.79,3-5.18s3.39,1.7,4.67,3.72,2.08,3.27,3.18,3,1.46-2.11,1.84-4c.48-2.35.95-4.76,3-5.14a.71.71,0,0,1,.85.54.11.11,0,0,0,0,0,.75.75,0,0,1-.6.86c-1.1.21-1.48,2.11-1.84,4-.48,2.35-1,4.75-3,5.14s-3.41-1.69-4.69-3.72-2.06-3.24-3.16-3-1.48,2.14-1.84,4c-.48,2.35-.95,4.79-3,5.18s-3.42-1.7-4.7-3.72-2.08-3.27-3.16-3-1.48,2.11-1.84,4c-.48,2.35-1,4.76-3,5.15Z" transform="translate(-0.07 -0.01)" fill="#35434f" stroke="#35434f"/><path d="M826,826.36h0c-3.9,0-5.56-4.76-7.17-9.22-1.45-4-3-8.18-5.94-8.27s-4.64,4-6.37,7.85-3.8,8.75-7.61,8.78h0c-3.92,0-5.59-4.73-7.2-9.22-1.46-4-3-8.15-5.95-8.24s-4.66,4-6.36,7.85c-1.9,4.37-3.84,8.92-7.79,8.74s-5.59-4.75-7.2-9.21-3-8.15-6-8.27h0c-2.82,0-4.58,4-6.27,7.88-1.9,4.34-4,8.92-7.79,8.74a.77.77,0,0,1-.71-.77.75.75,0,0,1,.77-.72h0c3,0,4.67-3.95,6.36-7.85,1.93-4.37,4-8.92,7.79-8.92s5.59,4.76,7.23,9.25c1.45,4,3,8.15,5.94,8.24h0c3,0,4.58-4,6.28-7.85s3.83-8.74,7.61-8.74h.18c3.9,0,5.56,4.75,7.2,9.21,1.42,4,3,8.15,5.94,8.24s4.67-3.93,6.37-7.85,3.95-8.92,7.79-8.74,5.56,4.76,7.2,9.24c1.42,4,3,8.15,5.94,8.24a.71.71,0,0,1,.72.71v.06a.74.74,0,0,1-.58.88.78.78,0,0,1-.43,0Z" transform="translate(-0.07 -0.01)" fill="#35434f" stroke="#35434f"/><path d="M562.49,434.64a.77.77,0,0,1-.71-.54c-.51-1.78-3.48-2.08-6.33-2.38-3.36-.33-6.84-.68-7.65-3.45s2-4.87,4.64-7,4.64-3.6,4.14-5.38-3.48-2.08-6.37-2.38c-3.36-.32-6.84-.68-7.61-3.45s2-4.87,4.64-7,4.64-3.6,4.1-5.39-3.48-2.08-6.33-2.34c-3.36-.36-6.84-.69-7.65-3.45s2-4.88,4.67-7,4.64-3.6,4.1-5.38a.75.75,0,0,1,.52-.91.74.74,0,0,1,.91.52c.8,2.74-2,4.88-4.64,7s-4.64,3.57-4.13,5.35,3.48,2.08,6.36,2.38c3.36.33,6.84.68,7.64,3.42s-2,4.9-4.67,7-4.6,3.56-4.1,5.38,3.48,2.08,6.34,2.35c3.36.35,6.84.68,7.64,3.45s-2,4.9-4.64,7-4.64,3.6-4.13,5.42,3.48,2.08,6.36,2.38c3.36.32,6.84.68,7.61,3.41a.71.71,0,0,1-.45.91l0,0Z" transform="translate(-0.07 -0.01)" fill="#35434f" stroke="#35434f"/><path d="M449.68,576a.65.65,0,0,1-.53-.24c-1.88-2-.42-5,1-8s2.41-5.08,1.22-6.39-3.87-.27-6.46.74-6.18,2.35-8.08.33-.42-5.08,1-8c1.19-2.5,2.41-5.08,1.22-6.36s-3.87-.27-6.46.71c-3,1.16-6.18,2.38-8.08.33s-.42-5.08,1-8c1.19-2.5,2.41-5,1.22-6.36s-3.9-.3-6.46.71c-3,1.16-6.21,2.38-8.08.33a.71.71,0,0,1,0-1l0,0a.75.75,0,0,1,1.05,0l0,0c1.19,1.31,3.86.27,6.45-.71,3-1.16,6.18-2.38,8.06-.33s.44,5.08-.95,8-2.41,5.08-1.22,6.36,3.86.3,6.45-.71c3-1.16,6.18-2.38,8.09-.33s.41,5.08-1,8c-1.19,2.5-2.41,5.08-1.22,6.36s3.86.27,6.45-.71,6.18-2.38,8.09-.36.41,5.08-1,8-2.44,5.08-1.22,6.36a.79.79,0,0,1,0,1.07A.74.74,0,0,1,449.68,576Z" transform="translate(-0.07 -0.01)" fill="#35434f" stroke="#35434f"/><path d="M279.84,730.76a.83.83,0,0,1-.48-.18c-1.69-1.43-.89-3.92,0-6.3.63-1.93,1.28-3.92.33-4.73s-2.77.24-4.55,1.22-4.52,2.44-6.24,1-.9-3.9,0-6.3c.62-1.93,1.28-3.92.32-4.7s-2.76.21-4.55,1.19c-2.23,1.19-4.52,2.44-6.24,1s-.89-3.9,0-6.3c.62-1.93,1.28-3.92.36-4.72s-2.8.23-4.58,1.18c-2.23,1.22-4.52,2.47-6.25,1.05a.76.76,0,0,1-.1-1.06.75.75,0,0,1,1.06-.1c1,.77,2.8-.21,4.58-1.19s4.51-2.44,6.24-1,.89,3.92,0,6.3-1.28,4-.36,4.72,2.8-.23,4.58-1.19,4.52-2.46,6.22-1,.92,3.93,0,6.3-1.28,4-.33,4.73,2.76-.24,4.55-1.19,4.52-2.47,6.21-1,.92,3.9,0,6.3c-.62,1.93-1.28,3.93-.36,4.7a.77.77,0,0,1,0,1.07A.87.87,0,0,1,279.84,730.76Z" transform="translate(-0.07 -0.01)" fill="#35434f" stroke="#35434f"/><path d="M497.08,259.35a3.21,3.21,0,0,1-1.6-.44c-2.26-1.34-1.79-4.49-1.34-7.56.38-2.55.8-5.2-.63-5.94s-3.51.8-5.56,2.38-4.93,3.83-7.22,2.5-1.79-4.49-1.31-7.53c.39-2.55.77-5.2-.62-5.94s-3.51.83-5.56,2.4-4.94,3.84-7.23,2.5-1.78-4.49-1.34-7.52c.42-2.56.8-5.2-.59-5.95a.74.74,0,0,1-.37-1,.75.75,0,0,1,1-.37l.12.07c2.29,1.34,1.82,4.49,1.34,7.56-.39,2.52-.8,5.17.59,5.94s3.54-.8,5.56-2.4,5-3.84,7.23-2.5,1.81,4.49,1.34,7.55c-.39,2.53-.8,5.17.62,5.95s3.51-.8,5.56-2.38,4.94-3.87,7.23-2.53,1.78,4.49,1.33,7.55c-.38,2.56-.8,5.2.6,6s3.54-.83,5.59-2.41,5-3.83,7.22-2.5a.74.74,0,0,1-.74,1.28c-1.43-.83-3.54.8-5.59,2.41A10.61,10.61,0,0,1,497.08,259.35Z" transform="translate(-0.07 -0.01)" fill="#35434f" stroke="#35434f"/><path d="M401.93,244a.77.77,0,0,1-.63-.33c-1.51-2.38.48-5.17,2.41-7.88s3.33-4.7,2.35-6.24-3.86-1-6.66-.42c-3.27.66-6.63,1.34-8.18-1s.48-5.2,2.38-7.91,3.33-4.7,2.35-6.21-3.86-.95-6.63-.42c-3.27.66-6.66,1.31-8.18-1.07s.45-5.17,2.38-7.91c1.64-2.29,3.33-4.69,2.32-6.21s-3.86-1-6.63-.42c-3.27.63-6.66,1.28-8.18-1.06a.77.77,0,0,1,.21-1,.75.75,0,0,1,1,.21c1,1.55,3.87,1,6.63.45,3.27-.66,6.66-1.31,8.18,1.07s-.45,5.17-2.35,7.88-3.33,4.7-2.35,6.24,3.87.95,6.63.42c3.27-.66,6.66-1.31,8.18,1.07s-.45,5.17-2.38,7.88-3.33,4.7-2.35,6.24,3.87.95,6.66.39c3.24-.62,6.63-1.31,8.18,1.07s-.48,5.17-2.41,7.88-3.33,4.7-2.35,6.24a.71.71,0,0,1-.18,1h0A.64.64,0,0,1,401.93,244Z" transform="translate(-0.07 -0.01)" fill="#35434f" stroke="#35434f"/><path d="M271.1,303.81a.84.84,0,0,1-.72-.45c-1.1-2.68-5.5-2.59-9.78-2.5-4.73,0-9.63.18-11.18-3.42s2-7.05,5.35-10.38,6.16-5.94,5-8.77-5.53-2.59-9.79-2.5c-4.72,0-9.66.21-11.18-3.39s2-7,5.36-10.38,6.1-6.15,4.9-8.77-5.5-2.58-9.75-2.5c-4.76,0-9.66.21-11.18-3.39s2-7,5.35-10.37,6.16-6,5-8.71a.78.78,0,0,1,.39-1,.74.74,0,0,1,1,.39h0c1.51,3.6-2,7-5.36,10.38s-6.15,5.95-5,8.74,5.53,2.59,9.78,2.47c4.73,0,9.64-.17,11.18,3.39s-2,7-5.35,10.41-6.16,5.95-5.06,8.74,5.54,2.56,9.79,2.47c4.75,0,9.66-.18,11.18,3.42s-2,7.05-5.35,10.38-6.16,5.94-5,8.92,5.53,2.58,9.78,2.5c4.76,0,9.67-.21,11.21,3.39a.78.78,0,0,1-.41,1Z" transform="translate(-0.07 -0.01)" fill="#35434f" stroke="#35434f"/><path d="M359.32,565.23h0a.75.75,0,0,1-.66-.82h0c.51-4.17,5.65-5.56,10.65-6.87,4.49-1.22,9.16-2.47,9.54-5.62s-3.86-5.5-8-7.73c-4.54-2.47-9.21-5-8.74-9.19s5.65-5.56,10.65-6.87c4.52-1.22,9.16-2.47,9.54-5.65s-3.86-5.47-8-7.7-9.21-5-8.71-9.19,5.65-5.56,10.65-6.9c4.49-1.22,9.16-2.47,9.54-5.65s-3.86-5.5-8-7.73-9.21-5-8.71-9.19a.75.75,0,0,1,1.49-.05.85.85,0,0,1,0,.23c-.36,3.18,3.86,5.47,8,7.7s9.21,5,8.71,9.22-5.65,5.56-10.62,6.9-9.18,2.47-9.54,5.65,3.83,5.47,7.94,7.7c4.55,2.47,9.22,5,8.74,9.19s-5.65,5.56-10.65,6.9c-4.52,1.19-9.15,2.43-9.54,5.62s3.87,5.5,8,7.7,9.22,5,8.71,9.18-5.65,5.56-10.61,6.9c-4.52,1.19-9.19,2.44-9.55,5.62a.77.77,0,0,1-.83.66Z" transform="translate(-0.07 -0.01)" fill="#35434f" stroke="#35434f"/><path d="M232.92,61.11a.78.78,0,0,1-.75-.59c-.38-2-3.51-2.56-6.54-3.13-3.54-.65-7.16-1.33-7.76-4.28s2.68-5,5.65-6.93,5.23-3.42,4.85-5.41-3.51-2.53-6.54-3c-3.54-.66-7.17-1.34-7.77-4.28s2.53-5,5.53-6.93,5.24-3.42,4.85-5.38-3.51-2.56-6.54-3c-3.54-.66-7.17-1.31-7.76-4.28s2.52-5,5.53-6.9,5.14-3.57,4.88-5.65a.74.74,0,0,1,.56-.89h0a.81.81,0,0,1,.9.59c.56,3-2.53,5-5.54,6.93s-5.38,3.39-4.84,5.38,3.54,2.53,6.57,3c3.51.66,7.16,1.34,7.73,4.29s-2.5,5-5.5,6.92-5.41,3.54-5,5.62,3.54,2.56,6.58,3c3.5.65,7.13,1.3,7.73,4.28s-2.5,5-5.5,6.93-5.27,3.42-4.88,5.38,3.54,2.56,6.57,3.12c3.51.65,7.17,1.34,7.73,4.28a.74.74,0,0,1-.56.89h0Z" transform="translate(-0.07 -0.01)" fill="#35434f" stroke="#35434f"/><path d="M759.93,523.84h0a.78.78,0,0,1-.66-.83c.39-2.77,3.66-3.6,6.81-4.4s5.5-1.37,5.71-3.15-2.26-3.16-4.7-4.49-5.8-3.28-5.44-6,3.66-3.57,6.81-4.4c2.71-.69,5.47-1.37,5.71-3.15s-2.26-3.16-4.7-4.52-5.8-3.24-5.44-5.95,3.63-3.6,6.81-4.4c2.67-.68,5.47-1.4,5.71-3.15s-2.29-3.18-4.7-4.55-5.8-3.24-5.45-5.95a.74.74,0,0,1,1.46.21c-.21,1.75,2.29,3.15,4.7,4.52s6,3.24,5.44,5.95-3.63,3.6-6.81,4.4c-2.67.71-5.47,1.4-5.71,3.18s2.29,3.15,4.7,4.52,6,3.24,5.48,5.95-3.66,3.6-6.81,4.4-5.47,1.4-5.71,3.15,2.26,3.15,4.7,4.52,5.94,3.24,5.44,5.94-3.66,3.6-6.81,4.4c-2.71.69-5.47,1.4-5.71,3.16a.74.74,0,0,1-.83.59Z" transform="translate(-0.07 -0.01)" fill="#35434f" stroke="#35434f"/><path d="M724.72,615.06h-.15a.73.73,0,0,1-.56-.88h0c.15-.71-1.1-1.54-2.2-2.32s-3.18-2.14-2.8-3.86,2.38-2,4.16-2.32c1.31-.21,2.8-.45,3-1.19s-1.1-1.55-2.2-2.29-3.18-2.17-2.79-3.86,2.38-2.06,4.16-2.32c1.31-.24,2.8-.48,3-1.19s-1.1-1.58-2.2-2.32-3.18-2.14-2.8-3.87,2.38-2,4.17-2.32c1.31-.2,2.8-.44,3-1.16a.74.74,0,0,1,1.48.08.7.7,0,0,1,0,.25c-.36,1.7-2.38,2-4.16,2.32-1.31.21-2.81.45-3,1.16s1.07,1.58,2.17,2.32,3.19,2.17,2.83,3.86-2.41,2-4.19,2.32c-1.31.21-2.8.45-3,1.19s1.07,1.55,2.17,2.29,3.19,2.17,2.83,3.87-2.41,2.05-4.19,2.32c-1.31.23-2.8.47-3,1.19s1.07,1.57,2.17,2.31,3.19,2.18,2.83,3.87a.76.76,0,0,1-.66.56Z" transform="translate(-0.07 -0.01)" fill="#35434f" stroke="#35434f"/><path d="M438.8,317.42a.74.74,0,0,1-.72-.59c-.3-1.55-2.82-2.08-5.29-2.56-3-.59-6-1.22-6.48-3.77s2.17-4.2,4.73-5.95,4.31-2.74,4-4.28-3-2.06-5.29-2.56c-3-.6-6-1.22-6.48-3.75s2.17-4.19,4.72-5.8c2.12-1.34,4.32-2.73,4.05-4.28s-3-2.05-5.32-2.56c-3-.59-5.95-1.19-6.46-3.74s2.18-4.2,4.73-5.95c2.11-1.34,4.31-2.71,4.05-4.25a.7.7,0,0,1,.54-.85h.05a.73.73,0,0,1,.86.59c.48,2.53-2.17,4.19-4.72,5.8s-4.32,2.71-4.05,4.25,3,2,5.29,2.56c3,.59,5.95,1.22,6.49,3.75s-2.17,4.19-4.73,5.8c-2.11,1.33-4.31,2.73-4.05,4.28s2.83,2.05,5.3,2.56c3,.59,5.94,1.21,6.48,3.74s-2.17,4.2-4.73,5.95-4.31,2.74-4,4.28,3,2.08,5.32,2.59c3,.59,6,1.19,6.45,3.75a.74.74,0,0,1-.59.86Z" transform="translate(-0.07 -0.01)" fill="#35434f" stroke="#35434f"/><path d="M132.24,569.45a.65.65,0,0,1-.39,0,.74.74,0,0,1-.24-1c1.13-1.72,3.57-1.22,5.74-.8s3.6.74,4.16,0-.47-2.41-1.51-3.9-2.71-3.83-1.58-5.56,3.57-1.22,5.74-.8,3.6.74,4.16,0-.5-2.41-1.54-3.9-2.68-3.83-1.55-5.56,3.57-1.22,5.71-.8,3.63.74,4.19-.15-.5-2.41-1.51-3.9-2.71-3.83-1.58-5.56a.74.74,0,0,1,1.25.8c-.56.89.51,2.44,1.55,3.9s2.67,3.87,1.54,5.59-3.57,1.22-5.74.78-3.6-.72-4.16.14.48,2.41,1.52,3.9,2.7,3.84,1.57,5.56-3.57,1.22-5.71.78-3.62-.72-4.19.15.51,2.4,1.55,3.9,2.67,3.83,1.54,5.56-3.57,1.21-5.71.77-3.6-.72-4.19,0a.76.76,0,0,1-.62.12Z" transform="translate(-0.07 -0.01)" fill="#35434f" stroke="#35434f"/><path d="M399.25,737.36H399a.74.74,0,0,1-.5-.92h0c.65-2.17-2.12-4.37-4.79-6.51s-6.22-5-5.26-8.12,5-3.48,8.92-3.81c3.39-.3,6.92-.62,7.58-2.8s-2.11-4.37-4.79-6.48-6.24-5-5.29-8.11,5-3.48,8.92-3.81c3.42-.3,6.93-.6,7.58-2.77s-2.11-4.37-4.79-6.51-6.21-5-5.29-8.08,5-3.48,8.92-3.81c3.42-.3,6.93-.6,7.58-2.77a.74.74,0,0,1,.92-.5h0a.71.71,0,0,1,.53.86l0,.06c-.95,3.15-5,3.48-8.92,3.84-3.39.27-6.93.59-7.58,2.73s2.11,4.37,4.78,6.51,6.25,5,5.3,8.09-5,3.48-8.92,3.84c-3.39.3-6.93.59-7.58,2.76s2.11,4.37,4.78,6.49,6.25,5,5.3,8.11-5,3.48-8.92,3.81c-3.42.3-6.93.62-7.59,2.8s2.11,4.37,4.79,6.51,6.21,5,5.26,8.09a.72.72,0,0,1-.62.5Z" transform="translate(-0.07 -0.01)" fill="#35434f" stroke="#35434f"/><path d="M653.81,231.08a.83.83,0,0,1-.51-.18c-2.26-2-1-5.5.24-8.92,1.07-3,2.14-5.95.65-7.23s-4.34,0-7.1,1.46-6.52,3.27-8.75,1.25-1-5.47.24-8.92,2.14-5.95.63-7.23-4.34,0-7.11,1.46-6.48,3.24-8.74,1.22-1-5.47.24-8.92,2.14-5.95.62-7.25-4.34,0-7.11,1.45c-3.21,1.61-6.51,3.24-8.92,1.25a.79.79,0,0,1,0-1.07.75.75,0,0,1,1,0c1.52,1.37,4.38,0,7.14-1.43s6.51-3.27,8.74-1.24,1,5.5-.21,8.92c-1.07,3-2.14,5.94-.65,7.22s4.34,0,7.11-1.46c3.21-1.6,6.51-3.24,8.77-1.25s1,5.5-.24,8.92c-1.07,3-2.14,6-.65,7.23s4.34,0,7.1-1.46c3.21-1.6,6.52-3.24,8.75-1.25s1,5.47-.24,8.92-2.14,6-.66,7.23a.75.75,0,0,1,0,1.07.72.72,0,0,1-.38.21Z" transform="translate(-0.07 -0.01)" fill="#35434f" stroke="#35434f"/><path d="M141.25,398.12h0c-2.29-.41-2.8-3.12-3.3-5.74-.42-2.11-.87-4.31-2.14-4.55s-2.5,1.64-3.66,3.48-3,4.55-5.18,4.14-2.82-3.12-3.32-5.74c-.42-2.11-.84-4.31-2.15-4.55s-2.5,1.63-3.65,3.48-3,4.55-5.18,4.13-3-3-3.33-5.74c-.41-2.14-.83-4.31-2.14-4.58s-2.5,1.67-3.66,3.48-3,4.55-5.17,4.14a.71.71,0,0,1-.6-.81.13.13,0,0,1,0-.06.74.74,0,0,1,.86-.59c1.31.27,2.5-1.64,3.65-3.48s3-4.58,5.18-4.13,2.82,3,3.33,5.74c.42,2.14.86,4.31,2.14,4.57s2.5-1.66,3.66-3.48,3-4.57,5.17-4.13,3,3,3.33,5.74c.42,2.11.86,4.31,2.14,4.55s2.5-1.63,3.66-3.48,3-4.55,5.17-4.13,2.8,3.12,3.33,5.74c.42,2.11.84,4.31,2.11,4.55a.74.74,0,1,1,0,1.48Z" transform="translate(-0.07 -0.01)" fill="#35434f" stroke="#35434f"/><path d="M183.8,756.1a.75.75,0,0,1-.72-.54c-.18-.56-1.45-.65-2.58-.74-1.61-.15-3.42-.27-3.9-1.82s1-2.64,2.2-3.65,1.9-1.52,1.72-2.09-1.46-.65-2.59-.74c-1.6,0-3.42-.27-3.9-1.78s.95-2.65,2.2-3.66,1.9-1.52,1.73-2.08-1.46-.65-2.59-.74c-1.6,0-3.42-.27-3.86-1.79s.92-2.67,2.2-3.68,1.87-1.52,1.69-2.06a.75.75,0,1,1,1.41-.49s0,0,0,0c.47,1.51-1,2.67-2.2,3.65s-1.87,1.52-1.73,2.09,1.46.65,2.59.74c1.61,0,3.42.27,3.9,1.78s-.95,2.68-2.2,3.69-1.87,1.52-1.72,2,1.45.66,2.58.74c1.61.15,3.42.3,3.9,1.82s-.95,2.64-2.2,3.66-1.9,1.51-1.72,2.08,1.45.65,2.58.74c1.61,0,3.42.27,3.9,1.78a.8.8,0,0,1-.5,1Z" transform="translate(-0.07 -0.01)" fill="#35434f" stroke="#35434f"/><path d="M797.15,374.9a.51.51,0,0,1-.3,0c-1.22-.56-1.1-2.08-1-3.3a4.76,4.76,0,0,0-.18-1.84c-.18-.15-1,.56-1.54,1s-2,1.84-3.21,1.25-1.07-2.06-1-3.27a5.48,5.48,0,0,0-.14-1.85c-.15-.12-1,.57-1.55,1s-2,1.85-3.21,1.28-1.1-2.08-1-3.3a4.78,4.78,0,0,0-.18-1.84c-.18-.15-1,.56-1.55,1s-2,1.84-3.21,1.28a.74.74,0,0,1-.32-1,.7.7,0,0,1,.93-.38l.05,0c.3.15,1-.57,1.54-1s2-1.85,3.21-1.28,1.1,2.08,1,3.3a5.18,5.18,0,0,0,.18,1.84c.18.15,1-.56,1.55-1s2-1.81,3.18-1.25,1.1,2.08,1,3.27c0,.69,0,1.73.18,1.85s1-.54,1.55-1,2-1.85,3.21-1.28,1.07,2.08,1,3.3v1.84A.74.74,0,0,1,797,375Z" transform="translate(-0.07 -0.01)" fill="#35434f" stroke="#35434f"/><path d="M742.3,654.67h-.15c-3,0-4.43-3.75-5.68-7.25-1.07-3-2.2-6.16-4.31-6.25h0c-2.06,0-3.39,3-4.7,6-1.49,3.39-3,6.93-6.16,6.81s-4.43-3.75-5.68-7.26c-1.07-3-2.2-6.15-4.31-6.24s-3.45,3-4.76,6c-1.48,3.39-3,6.84-6.18,6.78s-4.4-3.72-5.65-7.23c-1.07-3-2.2-6.18-4.28-6.24a.75.75,0,0,1-.72-.77h0a.69.69,0,0,1,.65-.71h.1c3.12,0,4.43,3.75,5.65,7.22,1.1,3,2.2,6.19,4.31,6.25s3.48-3,4.75-5.95c1.52-3.42,3-6.9,6.19-6.81s4.4,3.75,5.65,7.23,2.2,6.18,4.31,6.27,3.48-3,4.79-5.95,3-6.9,6.18-6.81,4.4,3.75,5.65,7.26c1.1,3,2.2,6.15,4.31,6.24s3.48-3,4.79-5.94,3-6.84,6.18-6.81a.74.74,0,1,1,0,1.48c-2.08-.14-3.45,3-4.75,6S745.3,654.67,742.3,654.67Z" transform="translate(-0.07 -0.01)" fill="#35434f" stroke="#35434f"/><path d="M158.11,498.63a.72.72,0,0,1-.76-.67.73.73,0,0,1,.13-.46c1.52-2.29-.86-5.71-3.15-8.92s-5.23-7.59-3.18-10.7,6.66-2.18,11.09-1.25c3.95.83,8.06,1.69,9.54-.6s-.86-5.71-3.15-8.92-5.26-7.58-3.18-10.7,6.66-2.14,11.09-1.22c4,.84,8,1.67,9.55-.59s-.9-5.71-3.19-8.92c-2.58-3.75-5.23-7.58-3.18-10.7s6.66-2.14,11.09-1.22c4,.83,8,1.69,9.55-.6a.74.74,0,0,1,1.22.84h0c-2.06,3-6.63,2.14-11.06,1.22-4-.84-8.06-1.7-9.55.59s.86,5.68,3.15,8.92,5.27,7.58,3.18,10.7-6.63,2.14-11.06,1.22c-4-.83-8.05-1.7-9.54.59s.86,5.71,3.15,8.92,5.26,7.59,3.18,10.7-6.66,2.18-11.09,1.22c-3.95-.8-8-1.66-9.54.63s.86,5.71,3.15,8.92,5.26,7.58,3.18,10.67A.71.71,0,0,1,158.11,498.63Z" transform="translate(-0.07 -0.01)" fill="#35434f" stroke="#35434f"/><path d="M610.31,466.51a.76.76,0,0,1-.66-.38c-1.37-2.68,1-5.45,3.39-8.12s4.1-4.7,3.21-6.48-4.07-1.49-7.1-1.19c-3.54.32-7.23.65-8.6-2s1.07-5.45,3.42-8.12,4.1-4.7,3.21-6.45-4.07-1.49-7.13-1.22c-3.54.32-7.2.68-8.57-2s1-5.48,3.39-8.15,4.1-4.7,3.21-6.45-4.07-1.52-7.13-1.22c-3.54.32-7.2.65-8.57-2a.75.75,0,0,1,.32-1,.73.73,0,0,1,1,.31c.92,1.79,4.08,1.49,7.14,1.22,3.54-.33,7.2-.65,8.56,2s-1,5.44-3.39,8.12-4.1,4.7-3.21,6.48,4.08,1.49,7.14,1.19c3.54-.33,7.2-.65,8.56,2s-1.07,5.44-3.39,8.12-4.13,4.7-3.21,6.48,4.07,1.49,7.11,1.19c3.56-.33,7.22-.65,8.59,2s-1.07,5.44-3.42,8.12-4.1,4.7-3.21,6.48a.72.72,0,0,1-.3,1h0A.62.62,0,0,1,610.31,466.51Z" transform="translate(-0.07 -0.01)" fill="#35434f" stroke="#35434f"/><path d="M111.9,665.7a.73.73,0,0,1-.65-.38c-.63-1.13.3-2.2,1-3s1-1.19.86-1.4-1.1,0-1.64,0c-1.13.15-2.52.3-3-.8s.3-2.2,1-3c.33-.42,1-1.19.86-1.4s-1.13,0-1.63,0c-1.13,0-2.53.3-3.15-.8s.3-2.2,1-3c.32-.39,1-1.16.86-1.4s-1.13,0-1.67,0c-1.13,0-2.52.3-3-.8a.75.75,0,0,1,1.31-.72h0c0,.21,1.1,0,1.63,0,1.13,0,2.53-.3,3,.8s-.3,2.2-1,3-1,1.18-.87,1.42,1.13,0,1.67,0c1.13-.15,2.53-.3,3.12.8s-.3,2.2-1,3c-.33.41-1,1.18-.83,1.4s1.1,0,1.63,0c1.13,0,2.53-.3,3.12.8s-.3,2.17-1,3c-.35.41-1,1.16-.86,1.4a.78.78,0,0,1-.3,1Z" transform="translate(-0.07 -0.01)" fill="#35434f" stroke="#35434f"/><path d="M579.35,660.62a.72.72,0,0,1-.56-.27c-2.14-2.62,0-6.25,1.87-9.78,1.75-3,3.54-6.3,2.05-8.12s-5-.74-8.38.3-7.85,2.44-10-.18,0-6.24,1.9-9.78c1.72-3,3.5-6.3,2-8.12s-5-.74-8.36.3c-3.86,1.19-7.88,2.44-10-.18s0-6.27,1.9-9.78,3.51-6.3,2-8.15-5-.74-8.38.3c-3.87,1.19-7.85,2.44-10-.18a.73.73,0,0,1,0-1,.72.72,0,0,1,1,0l0,0c1.49,1.82,5,.75,8.38-.32,3.87-1.19,7.85-2.44,10,.17s0,6.28-1.9,9.82c-1.72,3-3.5,6.3-2,8.14s5,.75,8.39-.32c3.86-1.19,7.85-2.44,10,.17s0,6.28-1.9,9.79-3.51,6.3-2,8.14,5,.75,8.38-.32,7.85-2.44,10,.18,0,6.27-1.9,9.78-3.51,6.3-2.05,8.15a.75.75,0,0,1,0,1,.85.85,0,0,1-.45.26Z" transform="translate(-0.07 -0.01)" fill="#35434f" stroke="#35434f"/><path d="M230.6,746.1a1.82,1.82,0,0,1-1.64-.74c-.8-1.1,0-2.41.72-3.45s1-1.51.77-1.81-1.25,0-1.93.15c-1.22.3-2.74.65-3.51-.45s0-2.38.74-3.45c.39-.59.95-1.49.74-1.78s-1.25,0-1.93,0c-1.28.32-2.71.65-3.51-.45s0-2.35.74-3.45c.39-.59,1-1.48.78-1.78a.74.74,0,0,1,1.15-.92l0,.06c.8,1.1,0,2.41-.72,3.45s-1,1.51-.77,1.78,1.25,0,1.93,0c1.22-.3,2.74-.68,3.51.42s0,2.4-.71,3.44-1,1.52-.78,1.79,1.25,0,1.94,0c1.22-.3,2.7-.69,3.51.41s0,2.41-.75,3.48c-.38.6-.95,1.49-.74,1.79s1.25,0,1.93-.15c1.19-.3,2.71-.66,3.51.44a.75.75,0,0,1-.14,1,.74.74,0,0,1-1-.14l0,0c-.2-.3-1.25,0-1.93.15a9.82,9.82,0,0,1-1.87.2Z" transform="translate(-0.07 -0.01)" fill="#35434f" stroke="#35434f"/><path d="M372.19,617.5a.5.5,0,0,1-.38,0c-3.3-2-2.53-6.72-1.76-11.33.66-4.1,1.34-8.35-1.07-9.81s-5.94,1.16-9.16,3.69-7.55,5.74-10.85,3.77-2.5-6.75-1.75-11.32,1.37-8.39-1.07-9.85-5.95,1.16-9.16,3.69-7.55,5.74-10.85,3.78-2.5-6.75-1.76-11.33c.66-4.13,1.34-8.39-1.1-9.84s-5.94,1.16-9.16,3.68-7.58,5.74-10.85,3.75a.75.75,0,0,1-.27-1,.77.77,0,0,1,1-.27c2.41,1.46,5.95-1.13,9.16-3.66s7.56-5.77,10.86-3.77,2.52,6.75,1.78,11.33-1.37,8.38,1.07,9.84,5.95-1.16,9.16-3.69,7.55-5.74,10.85-3.78,2.5,6.75,1.75,11.36c-.65,4.1-1.33,8.36,1.07,9.82s5.95-1.16,9.16-3.69,7.56-5.74,10.86-3.78,2.5,6.72,1.75,11.33c-.68,4.13-1.37,8.39,1.07,9.81a.8.8,0,0,1,.24,1A.72.72,0,0,1,372.19,617.5Z" transform="translate(-0.07 -0.01)" fill="#35434f" stroke="#35434f"/><path d="M138,435.32h0c-1.16,0-1.49-1.37-1.76-2.35a2.21,2.21,0,0,0-.47-1.25c-.18-.09-.6.75-.78,1.1-.47.9-1.07,2-2.26,1.88s-1.45-1.37-1.72-2.35a2.21,2.21,0,0,0-.51-1.25c-.18-.09-.56.74-.77,1.1-.48.89-1.07,2-2.23,1.87s-1.49-1.37-1.75-2.35a2.23,2.23,0,0,0-.51-1.25c-.18-.09-.56.75-.77,1.1-.48.9-1.07,2-2.23,1.88a.75.75,0,0,1,.18-1.49c.17,0,.56-.74.74-1.1.5-.89,1.1-2,2.26-1.87s1.49,1.36,1.75,2.35a2.2,2.2,0,0,0,.51,1.24c.18.09.56-.74.74-1.1.51-.89,1.1-2,2.26-1.87s1.49,1.37,1.75,2.35a2.27,2.27,0,0,0,.48,1.25c.18.09.6-.77.77-1.1.51-.89,1.07-2,2.26-1.87s1.49,1.36,1.76,2.35a2.16,2.16,0,0,0,.47,1.24.76.76,0,0,1,.75.75.75.75,0,0,1-.75.74Z" transform="translate(-0.07 -0.01)" fill="#35434f" stroke="#35434f"/><path d="M70.57,723.92a.75.75,0,0,1-.74-.75.76.76,0,0,1,.71-.74c2.2,0,3.42-3.21,4.61-6.3,1.37-3.56,2.76-7.22,5.94-7.28h0c3.16,0,4.67,3.63,6.13,7.1s2.65,6.25,4.76,6.19,3.42-3.21,4.58-6.3c1.36-3.57,2.76-7.23,5.94-7.29h0c3,0,4.64,3.63,6,7.11s2.53,6.16,4.76,6.19,3.39-3.21,4.58-6.3c1.36-3.57,2.76-7.23,5.94-7.29s4.7,3.6,6.16,7.11c1.25,3,2.55,6.18,4.73,6.18h0a.75.75,0,0,1,.74.75.74.74,0,0,1-.74.74h0c-3,0-4.64-3.6-6-7.11-1.28-3-2.59-6.18-4.73-6.18h0c-2.2,0-3.42,3.24-4.61,6.33-1.34,3.54-2.76,7.23-6,7.26h0c-3,0-4.63-3.6-5.94-7.11-1.25-3-2.59-6.19-4.76-6.19s-3.39,3.25-4.58,6.34c-1.37,3.54-2.76,7.22-5.94,7.25s-4.71-3.57-6.19-7.1c-1.25-3-2.56-6.19-4.73-6.19h0c-2.17,0-3.42,3.24-4.61,6.33-1.34,3.54-2.76,7.23-5.94,7.26Z" transform="translate(-0.07 -0.01)" fill="#35434f" stroke="#35434f"/><path d="M499,117.91a4.19,4.19,0,0,1-2.35-.69c-3-2-2.05-6.27-1.19-10.46.75-3.69,1.52-7.5-.59-8.92s-5.3.83-8.39,3-7.1,5-10.08,3-2.05-6.24-1.19-10.43c.75-3.69,1.52-7.53-.56-8.92s-5.32.83-8.42,3-7.1,4.93-10,3-2.08-6.24-1.22-10.44c.78-3.68,1.55-7.49-.56-8.92a.74.74,0,0,1-.21-1,.75.75,0,0,1,1-.2c3,2,2.05,6.27,1.19,10.43-.74,3.69-1.54,7.53.57,8.92s5.32-.83,8.41-3,7.11-5,10.05-3,2.05,6.27,1.22,10.43c-.77,3.69-1.55,7.53.57,8.92s5.29-.83,8.38-3,7.14-5,10.08-3,2.05,6.27,1.22,10.43-1.55,7.53.56,8.92,5.33-.83,8.42-3S513,108,516,110a.75.75,0,1,1-.83,1.25c-2.12-1.4-5.33.83-8.42,3a15.83,15.83,0,0,1-7.73,3.69Z" transform="translate(-0.07 -0.01)" fill="#35434f" stroke="#35434f"/><path d="M469.19,767.07h-.33c-1.22-.24-1.49-1.61-1.69-2.68,0-.51-.27-1.49-.51-1.55s-.77.8-1,1.22c-.62,1-1.37,2.11-2.59,1.88s-1.48-1.61-1.69-2.71c0-.48-.27-1.49-.51-1.52s-.8.8-1.07,1.22c-.59.92-1.37,2.08-2.56,1.88s-1.48-1.61-1.69-2.71c0-.48-.27-1.49-.51-1.52a.74.74,0,0,1,.23-1.46h0c1.22.23,1.49,1.6,1.7,2.67,0,.51.27,1.49.5,1.55s.8-.83,1-1.22c.63-1,1.4-2.11,2.59-1.87s1.49,1.6,1.7,2.7c0,.48.26,1.46.5,1.52s.8-.8,1.07-1.22c.6-1,1.34-2.08,2.59-1.87s1.49,1.6,1.69,2.7c0,.47.27,1.48.5,1.51s.78-.8,1-1.22c.63-.92,1.37-2.08,2.59-1.84a.73.73,0,0,1,.61.81.11.11,0,0,0,0,0,.76.76,0,0,1-.87.6c-.3,0-.8.8-1.07,1.22S470.32,767.07,469.19,767.07Z" transform="translate(-0.07 -0.01)" fill="#35434f" stroke="#35434f"/><path d="M329.91,632.78h0c-1.4,0-1.9-1.57-2.35-3-.26-.77-.62-1.87-1-1.87s-.89,1-1.25,1.75c-.56,1.25-1.3,2.74-2.64,2.62s-1.94-1.58-2.38-3c-.27-.8-.63-1.88-1-1.9s-.89,1-1.22,1.75c-.6,1.28-1.22,2.71-2.68,2.62s-1.93-1.58-2.38-3c-.26-.77-.62-1.87-1-1.87s-.89,1-1.25,1.76c-.56,1.24-1.16,2.7-2.64,2.61a.75.75,0,0,1-.72-.77h0a.72.72,0,0,1,.72-.72h.06c.38,0,.89-1,1.25-1.76.59-1.28,1.19-2.76,2.67-2.62s1.93,1.58,2.38,3c.27.77.62,1.87,1,1.87s.86-1,1.22-1.75c.6-1.25,1.22-2.74,2.68-2.62s1.93,1.58,2.35,3c.26.78.65,1.85,1,1.88h0c.41,0,.86-1,1.22-1.76.59-1.28,1.19-2.76,2.67-2.62s1.9,1.58,2.35,3c.27.77.63,1.87,1,1.87a.78.78,0,0,1,.72.8.75.75,0,0,1-.77.72Z" transform="translate(-0.07 -0.01)" fill="#35434f" stroke="#35434f"/><path d="M74.85,143.24a4.11,4.11,0,0,1-1.1-.15c-3.75-.92-4.43-5.74-5-10.38-.6-4.16-1.19-8.47-4-9.16s-5.29,3-7.73,6.25-5.56,7.76-9.31,6.84-4.43-5.74-5.05-10.38c-.57-4.16-1.16-8.47-3.93-9.16s-5.29,3-7.76,6.28-5.59,7.64-9.33,6.69-4.4-5.71-5-10.38c-.56-4.16-1.22-8.45-3.92-9.16a.71.71,0,0,1-.55-.85v0a.74.74,0,0,1,.88-.57h0c3.75.93,4.4,5.74,5,10.38.59,4.16,1.16,8.47,3.92,9.16s5.3-2.83,7.76-6.19,5.56-7.76,9.31-6.84,4.4,5.74,5,10.38c.59,4.16,1.18,8.45,4,9.13s5.29-3,7.73-6.24,5.56-7.77,9.31-6.84,4.4,5.74,5.05,10.4c.6,4.17,1.19,8.45,4,9.13s5.29-3,7.76-6.24,5.56-7.76,9.31-6.84a.75.75,0,1,1-.36,1.46c-2.77-.69-5.29,3-7.76,6.24S78,143.24,74.85,143.24Z" transform="translate(-0.07 -0.01)" fill="#35434f" stroke="#35434f"/><path d="M244.34,423.84h0a.75.75,0,0,1-.69-.79h0c.21-3.21-4.19-5.29-8.44-7.31s-9.55-4.55-9.28-8.77,5.38-5.95,10.32-7.53c4.46-1.45,9.07-3,9.28-6.21s-4.2-5.29-8.42-7.32c-4.7-2.23-9.54-4.52-9.28-8.74s5.36-6,10.29-7.52c4.46-1.46,9.1-3,9.28-6.19s-4.16-5.29-8.42-7.31-9.54-4.52-9.27-8.74,5.35-5.95,10.28-7.53,9.1-3,9.31-6.18A.68.68,0,0,1,250,333h.09a.79.79,0,0,1,.72.8c-.27,4.2-5.38,5.95-10.32,7.5-4.46,1.45-9.1,3-9.28,6.18s4.17,5.3,8.42,7.32,9.54,4.52,9.28,8.74-5.36,5.95-10.29,7.52c-4.46,1.46-9.1,3-9.31,6.19s4.19,5.29,8.45,7.31c4.7,2.23,9.54,4.52,9.27,8.74s-5.38,5.95-10.32,7.53c-4.46,1.48-8.92,3-9.27,6.21s4.19,5.32,8.44,7.35c4.7,2.23,9.55,4.52,9.28,8.74a.74.74,0,0,1-.77.71Z" transform="translate(-0.07 -0.01)" fill="#35434f" stroke="#35434f"/><path d="M328.93,95.9h0c-1.31,0-1.81-1.49-2.23-2.62-.21-.62-.57-1.6-.86-1.6s-.74.92-1,1.54c-.51,1.1-1.13,2.44-2.44,2.41s-1.82-1.46-2.23-2.62c-.21-.62-.57-1.6-.86-1.6h0c-.33,0-.75.92-1,1.54s-1.1,2.44-2.35,2.44h0c-1.31,0-1.82-1.46-2.23-2.59-.21-.65-.57-1.6-.9-1.63s-.71.92-1,1.55c-.47,1.1-1.07,2.43-2.35,2.43h0a.74.74,0,1,1,.06-1.48h0c.33,0,.72-.93,1-1.55.47-1.1,1.1-2.44,2.4-2.44s1.85,1.49,2.23,2.62c.24.65.6,1.61.9,1.61s.74-.93,1-1.52c.5-1.13,1.1-2.47,2.43-2.44s1.82,1.46,2.23,2.62c.21.62.57,1.6.87,1.6h0c.32,0,.74-.92,1-1.54.5-1.1,1.16-2.41,2.44-2.41s1.81,1.46,2.23,2.59c.2.65.56,1.6.86,1.63a.71.71,0,0,1,.71.71v.07a.74.74,0,0,1-.78.7Z" transform="translate(-0.07 -0.01)" fill="#35434f" stroke="#35434f"/><path d="M16.9,705.78a.73.73,0,0,1-.74-.62c-.21-1.61,1.39-2.53,3-3.33s2.17-1.19,2.08-1.81-1.37-.9-2.47-1.19c-1.6-.42-3.39-.86-3.6-2.44s1.4-2.53,3-3.33,2.18-1.22,2.09-1.81-1.37-.93-2.5-1.19-3.39-.87-3.6-2.47,1.4-2.5,3-3.3,2.17-1.22,2.11-1.82-1.37-.92-2.5-1.21c-1.61-.39-3.39-.87-3.6-2.44a.71.71,0,0,1,.58-.83h0a.67.67,0,0,1,.82.51s0,.07,0,.11c0,.59,1.36.92,2.5,1.22,1.57.38,3.39.86,3.6,2.44s-1.4,2.52-3,3.33-2.17,1.21-2.08,1.81,1.38.92,2.47,1.19c1.61.41,3.4.86,3.6,2.46s-1.4,2.5-3,3.3-2.17,1.22-2.08,1.82,1.37.92,2.5,1.19c1.58.41,3.39.86,3.6,2.47s-1.43,2.5-3,3.3-2.18,1.22-2.12,1.81a.71.71,0,0,1-.58.83H16.9Z" transform="translate(-0.07 -0.01)" fill="#35434f" stroke="#35434f"/><path d="M500.05,366.84a.42.42,0,0,1-.27,0,.71.71,0,0,1-.43-.91l0,0c.77-2.05,3.39-2.08,5.94-2.11,2,0,4.1,0,4.55-1.19s-1.1-2.53-2.58-3.9-3.75-3.48-3-5.53,3.39-2.11,5.95-2.14c2,0,4.1,0,4.52-1.19s-1.1-2.53-2.59-3.9-3.74-3.48-3-5.53,3.39-2.11,5.95-2.14c2,0,4.1,0,4.55-1.19s-1.1-2.56-2.59-3.93-3.75-3.48-3-5.53a.73.73,0,0,1,.88-.56.75.75,0,0,1,.57.89,1,1,0,0,1-.09.21c-.41,1.13,1.1,2.52,2.59,3.9s3.75,3.48,3,5.56-3.42,2.08-5.94,2.14c-2,0-4.1,0-4.55,1.16s1.1,2.56,2.58,3.92,3.78,3.48,3,5.53-3.39,2.12-5.95,2.15c-2,0-4.1,0-4.52,1.16s1.1,2.55,2.59,3.92,3.74,3.48,3,5.53-3.39,2.08-6,2.14c-2,0-4.1,0-4.52,1.16A.75.75,0,0,1,500.05,366.84Z" transform="translate(-0.07 -0.01)" fill="#35434f" stroke="#35434f"/><path d="M60.31,306.48H60a.77.77,0,0,1-.39-1l5.95-12.84L56.65,296a.78.78,0,0,1-1-.49.8.8,0,0,1,0-.53L63,279a.75.75,0,0,1,1-.39h0a.77.77,0,0,1,.36,1l-6.57,14.27,8.92-3.27a.76.76,0,0,1,1,.43.75.75,0,0,1,0,.55l-6.66,14.48a.7.7,0,0,1-.62.42Z" transform="translate(-0.07 -0.01)" fill="#35434f" stroke="#35434f"/><path d="M15.77,74.29h-.24a.74.74,0,0,1-.45-1l2.32-6.28-3.33,1.52a.77.77,0,0,1-.8,0,.74.74,0,0,1-.17-.8l2.67-7.26a.73.73,0,0,1,1.42.35.64.64,0,0,1,0,.07L15.09,66.5l3.26-1.61a.84.84,0,0,1,.84,0,.76.76,0,0,1,.18.8l-3,8A.75.75,0,0,1,15.77,74.29Z" transform="translate(-0.07 -0.01)" fill="#35434f" stroke="#35434f"/><path d="M632,700.46h-.27a.77.77,0,0,1-.41-1L648,659.67,622.91,670a.79.79,0,0,1-.8-.17.76.76,0,0,1-.15-.8l15.73-37.68a.74.74,0,0,1,1-.42h0a.77.77,0,0,1,.39,1l-15,36,25-10.28a.83.83,0,0,1,.83.17.74.74,0,0,1,.15.8l-17.34,41.49a.7.7,0,0,1-.68.41Z" transform="translate(-0.07 -0.01)" fill="#35434f" stroke="#35434f"/><path d="M433.18,645.75a.75.75,0,0,1-.74-.71l-2.09-35-16.09,18.14a.78.78,0,0,1-.8.2.73.73,0,0,1-.5-.65l-2.41-40.47a.74.74,0,0,1,.71-.77h0a.68.68,0,0,1,.77.59.28.28,0,0,1,0,.09l2.29,38.66,16.11-18.14a.7.7,0,0,1,.8-.21.72.72,0,0,1,.48.66l2.2,36.75a.78.78,0,0,1-.72.8Z" transform="translate(-0.07 -0.01)" fill="#35434f" stroke="#35434f"/><path d="M59.66,546.38h-.21a.75.75,0,0,1-.51-.92h0L60.55,540l-3,1.67a.69.69,0,0,1-1-.14.7.7,0,0,1-.11-.64L58.85,533a.73.73,0,0,1,.87-.52l.06,0a.77.77,0,0,1,.5.92l-1.84,6.16,3-1.67a.71.71,0,0,1,.83,0,.68.68,0,0,1,.24.77l-2.11,7.18A.75.75,0,0,1,59.66,546.38Z" transform="translate(-0.07 -0.01)" fill="#35434f" stroke="#35434f"/><path d="M187,239.19a.74.74,0,0,1-.6-.3l-19.59-26.43L163.49,235a.66.66,0,0,1-.54.6.72.72,0,0,1-.77-.27L139.4,204.61a.81.81,0,0,1,1.22-1L162.3,232.8l3.33-22.48a.79.79,0,0,1,.57-.62.73.73,0,0,1,.77.27l20.81,27.89a.71.71,0,0,1,0,1l0,0a.81.81,0,0,1-.74.3Z" transform="translate(-0.07 -0.01)" fill="#35434f" stroke="#35434f"/><path d="M486.76,620.65h-.3a.77.77,0,0,1-.39-1l9.6-22.69-14.06,5.71a.74.74,0,0,1-1-.37.72.72,0,0,1,0-.61L490,579.62a.76.76,0,0,1,1-.42.78.78,0,0,1,.41,1l-8.65,20.46,14.06-5.71a.81.81,0,0,1,.8.18.74.74,0,0,1,.15.8l-10.29,24.35a.74.74,0,0,1-.68.39Z" transform="translate(-0.07 -0.01)" fill="#35434f" stroke="#35434f"/><path d="M828.85,786.39h-.2a.73.73,0,0,1-.51-.92h0l4-14.39-7.82,4.4a.73.73,0,0,1-.8,0,.76.76,0,0,1-.26-.8L827.34,760a.75.75,0,0,1,1.43.42l-3.6,12.93,7.91-4.52a.78.78,0,0,1,.83,0,.76.76,0,0,1,.24.8l-4.49,16.12a.71.71,0,0,1-.8.62h0Z" transform="translate(-0.07 -0.01)" fill="#35434f" stroke="#35434f"/><path d="M822.34,608.64a.62.62,0,0,1-.33,0,.76.76,0,0,1-.32-1l4.64-9.22-5.68,1.88a.73.73,0,0,1-.8-.21.74.74,0,0,1,0-.83l4.93-9.82a.75.75,0,0,1,1-.37l0,0a.76.76,0,0,1,.32,1l-4.25,8.09,5.68-1.9a.74.74,0,0,1,.8.24.69.69,0,0,1,0,.8l-5.41,10.85A.76.76,0,0,1,822.34,608.64Z" transform="translate(-0.07 -0.01)" fill="#35434f" stroke="#35434f"/><path d="M279.18,139a.74.74,0,0,1-.65-.39l-9.81-18.11-4,13.47a.77.77,0,0,1-.65.51.67.67,0,0,1-.72-.39l-11.89-21.64a.72.72,0,0,1,.24-1l.06,0a.74.74,0,0,1,1,.32h0l10.88,20.07,4-13.47a.74.74,0,0,1,1-.39.76.76,0,0,1,.4.39L279.69,138a.78.78,0,0,1-.3,1l-.21-.06Z" transform="translate(-0.07 -0.01)" fill="#35434f" stroke="#35434f"/><path d="M27.51,573.61a.73.73,0,0,1-.65-.35l-5.29-8.92L20,570.29a.74.74,0,0,1-.59.56.78.78,0,0,1-.75-.36L13,560.71a.78.78,0,0,1,.27-1,.75.75,0,0,1,1,.27L19,568l1.52-6a.74.74,0,0,1,.62-.54.68.68,0,0,1,.74.36l6.22,10.56a.74.74,0,0,1-.22,1l0,0a.93.93,0,0,1-.39.15Z" transform="translate(-0.07 -0.01)" fill="#35434f" stroke="#35434f"/><path d="M592.23,271.81a.86.86,0,0,1-.45,0,.71.71,0,0,1,0-1l0,0,12.34-16.33-13.65,1.9a.68.68,0,0,1-.74-.35.72.72,0,0,1,0-.84l14.63-19.32a.71.71,0,0,1,1,0l0,0a.75.75,0,0,1,0,1l-13.56,17.84,13.65-1.87a.76.76,0,0,1,.74,1.16l-13.29,17.6A.76.76,0,0,1,592.23,271.81Z" transform="translate(-0.07 -0.01)" fill="#35434f" stroke="#35434f"/><path d="M164.35,622.32a.7.7,0,0,1-.53-.21l-5.95-6v4.64a.86.86,0,0,1-.91.79,1,1,0,0,1-.34-.1l-6.48-6.43a.77.77,0,0,1,0-1,.75.75,0,0,1,1.05,0l0,0,5.17,5.15v-4.64a.73.73,0,0,1,.45-.69.77.77,0,0,1,.8,0l7.11,7.08a.72.72,0,0,1,0,1l0,0A.69.69,0,0,1,164.35,622.32Z" transform="translate(-0.07 -0.01)" fill="#35434f" stroke="#35434f"/><path d="M228.81,789.28a.71.71,0,0,1-.62-.33l-4.07-6.18-.84,4a.77.77,0,0,1-.59.6.71.71,0,0,1-.75-.33l-4.57-7a.7.7,0,0,1,.18-1l0,0a.76.76,0,0,1,1,.19v0l3.6,5.47.84-4a.77.77,0,0,1,.56-.59.87.87,0,0,1,.78.33l5.08,7.7a.71.71,0,0,1-.18,1l0,0A.71.71,0,0,1,228.81,789.28Z" transform="translate(-0.07 -0.01)" fill="#35434f" stroke="#35434f"/><path d="M203.78,691.72a.79.79,0,0,1-.54-.24l-24.71-24.92V690.8a.85.85,0,0,1-1.25.68l-28.6-28.72a.75.75,0,0,1,1-1l27.32,27.44V664.9a.76.76,0,0,1,.48-.69.81.81,0,0,1,.8.18l26,26a.87.87,0,0,1-.53,1.37Z" transform="translate(-0.07 -0.01)" fill="#35434f" stroke="#35434f"/><path d="M302.7,827.84a.68.68,0,0,1-.56-.3.71.71,0,0,1,0-1l0,0,26.05-20.18-22.6-2.77a.73.73,0,0,1-.62-.84.7.7,0,0,1,.26-.46l30.09-23.55a.73.73,0,0,1,1.05-.05.75.75,0,0,1,.05,1.05.83.83,0,0,1-.21.16L307.55,802.3l22.6,2.77a.73.73,0,0,1,.36,1.3l-27.33,21.41a.8.8,0,0,1-.48.06Z" transform="translate(-0.07 -0.01)" fill="#35434f" stroke="#35434f"/><path d="M41.31,821.42a.83.83,0,0,1-.6-.3L27.78,803.91,25.94,817a.75.75,0,0,1-1.34.36l-12.73-17a.75.75,0,0,1,.15-1,.74.74,0,0,1,1,.15h0L24.72,815l1.84-13.06a.75.75,0,0,1,.57-.59.7.7,0,0,1,.77.27l14,18.64a.74.74,0,0,1-.15,1h0A.78.78,0,0,1,41.31,821.42Z" transform="translate(-0.07 -0.01)" fill="#35434f" stroke="#35434f"/><path d="M670.93,421.58a.74.74,0,0,1-.77-.71.72.72,0,0,1,.3-.62l26.76-21.74-21.44-2.23a.74.74,0,0,1-.62-.53.7.7,0,0,1,.23-.78L701,374.16a.74.74,0,0,1,1,.2.75.75,0,0,1-.08.93l-24.23,19.65,21.4,2.26a.73.73,0,0,1,.63.51.74.74,0,0,1-.24.8l-28.19,22.87a.82.82,0,0,1-.42.2Z" transform="translate(-0.07 -0.01)" fill="#35434f" stroke="#35434f"/><path d="M698.32,276.18a.74.74,0,0,1-.74-.74L697,255.19l-8.5,8.92a.73.73,0,0,1-1.28-.47l-.56-20a.74.74,0,0,1,.71-.77h0a.83.83,0,0,1,.77.74l.51,18.23,8.5-8.92a.75.75,0,0,1,.8-.21.8.8,0,0,1,.48.69l.62,22.06a.73.73,0,0,1-.71.77h0Z" transform="translate(-0.07 -0.01)" fill="#35434f" stroke="#35434f"/><path d="M100.6,824.16h-.3l-9.16-4a.75.75,0,0,1-.39-1h0a.77.77,0,0,1,1-.38l7.52,3.27-1.93-4.91a.67.67,0,0,1,.17-.8.76.76,0,0,1,.8-.15l10.08,4.37a.75.75,0,0,1-.59,1.37l-8.45-3.75,1.94,4.91a.77.77,0,0,1,0,.8.72.72,0,0,1-.69.24Z" transform="translate(-0.07 -0.01)" fill="#35434f" stroke="#35434f"/><path d="M571,27.28h0a.73.73,0,0,1-.61-.81s0,0,0-.06l2-11.44-6.27,4.46a.71.71,0,0,1-.83,0,.69.69,0,0,1-.33-.75l2.5-14.54a.68.68,0,0,1,1.36.05.88.88,0,0,1,0,.16l-2.2,12.79,6.27-4.43a.78.78,0,0,1,.83,0,.74.74,0,0,1,.36.74l-2.29,13.23A.78.78,0,0,1,571,27.28Z" transform="translate(-0.07 -0.01)" fill="#35434f" stroke="#35434f"/><path d="M608,62.3h-.3L598,58.05a.71.71,0,0,1-.41-.92.14.14,0,0,0,0-.06.76.76,0,0,1,1-.36l8.05,3.51-1.81-4.66a.69.69,0,0,1,.18-.8.73.73,0,0,1,.8,0l8.92,3.83a.78.78,0,0,1,.38,1,.71.71,0,0,1-.92.42l-.06,0-7.2-3.12,1.85,4.67a.77.77,0,0,1-.18.8.7.7,0,0,1-.6,0Z" transform="translate(-0.07 -0.01)" fill="#35434f" stroke="#35434f"/><path d="M664.75,171.49a.78.78,0,0,1-.74-.72.71.71,0,0,1,.65-.77h.06l35.68-2.14L683.69,153a.81.81,0,0,1-.21-.8.78.78,0,0,1,.69-.5l34-2a.74.74,0,1,1,.12,1.48h0L686,153.09,702.72,168a.75.75,0,0,1,.21.8.78.78,0,0,1-.66.51l-37.46,2.2Z" transform="translate(-0.07 -0.01)" fill="#35434f" stroke="#35434f"/><path d="M817.85,174h-.21a.74.74,0,0,1-.5-.92h0l8.47-30.48-19,10.73a.66.66,0,0,1-.8,0,.71.71,0,0,1-.27-.77L815.23,117a.76.76,0,0,1,.93-.51h0a.72.72,0,0,1,.54.85.09.09,0,0,1,0,0l-9.4,33.71,19-10.73a.79.79,0,0,1,.84,0,.73.73,0,0,1,.24.77l-8.92,32.2a.79.79,0,0,1-.63.63Z" transform="translate(-0.07 -0.01)" fill="#35434f" stroke="#35434f"/><path d="M669.54,609.18a.62.62,0,0,1-.33,0l-7.76-4a.75.75,0,1,1,.68-1.33h0l6.22,3.24-1.16-3.63a.69.69,0,0,1,.43-.88.7.7,0,0,1,.64.11l7,3.62a.76.76,0,0,1,.32,1,.74.74,0,0,1-1,.31h0l-5.44-2.79,1.16,3.62a.73.73,0,0,1-.24.78A.7.7,0,0,1,669.54,609.18Z" transform="translate(-0.07 -0.01)" fill="#35434f" stroke="#35434f"/><path d="M788.8,777.62h-.18a.73.73,0,0,1-.53-.89l10-41-22.63,13.74a.72.72,0,0,1-1-.16.72.72,0,0,1-.11-.62l9.45-38.83a.75.75,0,0,1,.79-.7.74.74,0,0,1,.7.78.76.76,0,0,1-.06.25l-8.92,37.1,22.6-13.73a.72.72,0,0,1,.84,0,.77.77,0,0,1,.29.77l-10.43,42.76a.71.71,0,0,1-.8.53Z" transform="translate(-0.07 -0.01)" fill="#35434f" stroke="#35434f"/><path d="M456.19,360.9h0l-11.45-.6a.73.73,0,0,1-.68-.77.68.68,0,0,1,.65-.72h.12l9.66.51-4.22-4.7a.69.69,0,0,1,0-.8.66.66,0,0,1,.69-.45l12.6.66a.75.75,0,0,1,.72.77h0a.72.72,0,0,1-.71.72h-.07l-11-.56,4.23,4.7a.74.74,0,0,1,0,.83.79.79,0,0,1-.51.42Z" transform="translate(-0.07 -0.01)" fill="#35434f" stroke="#35434f"/><path d="M714.14,822.46a.75.75,0,0,1-.63-.36l-3.77-5.94-1,4.37a.74.74,0,0,1-.9.54.72.72,0,0,1-.44-.3l-5.2-8.3a.8.8,0,0,1,.24-1.05.78.78,0,0,1,1,.24l4.22,6.78,1-4.37a.67.67,0,0,1,.6-.56.71.71,0,0,1,.77.32l4.7,7.56a.71.71,0,0,1-.2,1l0,0A.59.59,0,0,1,714.14,822.46Z" transform="translate(-0.07 -0.01)" fill="#35434f" stroke="#35434f"/><path d="M147.43,271.4a.74.74,0,0,1-.74-.69l-.66-7.52-3,3.69a.74.74,0,0,1-1.31-.42l-1-10.23a.73.73,0,0,1,1.46-.14v0l.74,8.45,3-3.69a.76.76,0,0,1,.8-.24.8.8,0,0,1,.51.66l.83,9.3a.76.76,0,0,1-.68.8Z" transform="translate(-0.07 -0.01)" fill="#35434f" stroke="#35434f"/><path d="M67,213.8a.7.7,0,0,1-.65-.42.67.67,0,0,1,.24-.93l.08,0,27.72-13.82L74.08,191.8a.8.8,0,0,1-.51-.66.81.81,0,0,1,.42-.71l32.29-16.09a.74.74,0,0,1,1,.33.72.72,0,0,1-.26,1l-.07,0L76.28,191l20.24,6.78a.75.75,0,0,1,.51.66.7.7,0,0,1-.42.71L67.3,213.74A.63.63,0,0,1,67,213.8Z" transform="translate(-0.07 -0.01)" fill="#35434f" stroke="#35434f"/><path d="M404.13,23.77a.74.74,0,0,1-.74-.69l-.72-8.77-3.27,3.8a.69.69,0,0,1-.77.24.76.76,0,0,1-.54-.65l-.77-9.6a.75.75,0,0,1,.67-.82.74.74,0,0,1,.81.67V8l.62,7.82L402.7,12a.67.67,0,0,1,.77-.21.76.76,0,0,1,.54.63L404.9,23a.76.76,0,0,1-.68.8Z" transform="translate(-0.07 -0.01)" fill="#35434f" stroke="#35434f"/><path d="M432.88,201.7a.74.74,0,0,1-.47-.18.77.77,0,0,1,0-1.07l7.43-8.71-6.72.53a.74.74,0,0,1-.8-.68.75.75,0,0,1,.18-.54l7.73-9.15a.73.73,0,0,1,1,0,.79.79,0,0,1,0,1.07l-6.63,7.67,6.69-.54a.69.69,0,0,1,.71.39.71.71,0,0,1,0,.83l-8.59,10.11a.74.74,0,0,1-.57.27Z" transform="translate(-0.07 -0.01)" fill="#35434f" stroke="#35434f"/><path d="M241,480.58a.77.77,0,0,1-.71-.54l-3.13-10.82-3.6,6.51a.74.74,0,0,1-.72.39.89.89,0,0,1-.65-.54l-4-13.83a.74.74,0,0,1,.5-.92.75.75,0,0,1,.93.51l3.51,12.1,3.6-6.51a.7.7,0,0,1,.91-.42.67.67,0,0,1,.42.42l3.63,12.55a.7.7,0,0,1-.45.9l-.05,0Z" transform="translate(-0.07 -0.01)" fill="#35434f" stroke="#35434f"/><path d="M734.06,416a.72.72,0,1,1-.21-1.42l7.64-2.41-4-2.08a.82.82,0,0,1-.42-.75.75.75,0,0,1,.54-.62l8.5-2.68a.75.75,0,0,1,.44,1.43l-6.8,2.14,4,2.08a.74.74,0,0,1,.39.72.78.78,0,0,1-.51.65l-9.36,3Z" transform="translate(-0.07 -0.01)" fill="#35434f" stroke="#35434f"/><path d="M431.25,491.6a.65.65,0,0,1-.39,0L421,485.18a.76.76,0,0,1-.21-1,.71.71,0,0,1,1-.22h0l8.33,5.35L429,483.69a.67.67,0,0,1,.3-.77.78.78,0,0,1,.83,0l8.92,5.77a.71.71,0,0,1,.22,1v0a.74.74,0,0,1-1,.24l-7.44-4.76,1.22,5.59a.69.69,0,0,1-.33.75A.65.65,0,0,1,431.25,491.6Z" transform="translate(-0.07 -0.01)" fill="#35434f" stroke="#35434f"/><path d="M822.55,86h-.27a.78.78,0,0,1-.45-1L827.39,70l-9.84,4.55a.75.75,0,0,1-1-.42.75.75,0,0,1,0-.53l6.78-18.43a.76.76,0,0,1,1-.44.74.74,0,0,1,.42.95l-6.16,16.77,9.85-4.55a.71.71,0,0,1,.79,0,.73.73,0,0,1,.21.8l-6.18,16.77a.71.71,0,0,1-.68.57Z" transform="translate(-0.07 -0.01)" fill="#35434f" stroke="#35434f"/><path d="M12.7,431h-.3a.74.74,0,0,1-.5-.92h0l1.67-5.95L10.27,426a.74.74,0,0,1-.83,0,.78.78,0,0,1-.27-.78l2.5-8.41a.71.71,0,0,1,.87-.51h0a.77.77,0,0,1,.53.92l-1.9,6.64L14.52,422a.69.69,0,0,1,.8,0,.73.73,0,0,1,.27.77l-2.17,7.62A.75.75,0,0,1,12.7,431Z" transform="translate(-0.07 -0.01)" fill="#35434f" stroke="#35434f"/><path d="M592,746.55h-.24a.76.76,0,0,1-.45-.95h0l8.78-25.72-16.74,8.2a.76.76,0,0,1-.84,0,.74.74,0,0,1-.2-.8l10.32-30.18a.73.73,0,0,1,.93-.48h0a.72.72,0,0,1,.47.9.14.14,0,0,0,0,.06L584.23,726l16.92-8.32a.74.74,0,0,1,.83,0,.69.69,0,0,1,.21.8l-9.36,27.41a.75.75,0,0,1-.85.63Z" transform="translate(-0.07 -0.01)" fill="#35434f" stroke="#35434f"/><path d="M441.5,439.07h-.2a.75.75,0,0,1-.51-.92h0l5.5-18.82-11.66,6.4a.69.69,0,0,1-.8,0,.79.79,0,0,1-.26-.78l6.63-22.63a.71.71,0,0,1,.86-.52l.06,0a.75.75,0,0,1,.51.92h0l-6.12,20.82,11.71-6.43a.74.74,0,0,1,.83,0,.75.75,0,0,1,.24.78l-5.94,20.54a.76.76,0,0,1-.84.63Z" transform="translate(-0.07 -0.01)" fill="#35434f" stroke="#35434f"/><path d="M264.55,542.54a.73.73,0,0,1-.53-.24.7.7,0,0,1,0-1l0,0,27.09-27.5-26.76.18h0a.74.74,0,0,1-.75-.73.78.78,0,0,1,.21-.52L294.88,481a.75.75,0,0,1,1.05,0l0,0a.71.71,0,0,1,0,1l0,0L266.1,512.45l26.76-.21h0a.72.72,0,0,1,.69.45.78.78,0,0,1,0,.83l-28.4,28.79A.82.82,0,0,1,264.55,542.54Z" transform="translate(-0.07 -0.01)" fill="#35434f" stroke="#35434f"/><path d="M474.09,303.07a.78.78,0,0,1-.74-.72.74.74,0,0,1,.71-.77h0l6.55-.45-3-2.7a.74.74,0,0,1-.08-1.05.72.72,0,0,1,.53-.26l9.19-.6a.69.69,0,0,1,.76.59.38.38,0,0,1,0,.1.74.74,0,0,1-.68.8h0l-7.4.47,3.12,2.71a.79.79,0,0,1,.2.8.73.73,0,0,1-.65.51l-8.35.53Z" transform="translate(-0.07 -0.01)" fill="#35434f" stroke="#35434f"/><path d="M111.69,34.77a.76.76,0,0,1-.71-.51L105.36,17,99.8,28a.72.72,0,0,1-.71.39.68.68,0,0,1-.66-.51L91.62,7.06a.73.73,0,0,1,.48-.92.67.67,0,0,1,.89.37l0,.1,6.24,19.12,5.59-10.94a.7.7,0,0,1,.71-.42.8.8,0,0,1,.66.51l6.18,18.94a.73.73,0,0,1-.46.94h-.25Z" transform="translate(-0.07 -0.01)" fill="#35434f" stroke="#35434f"/><path d="M405.58,776.58a.72.72,0,0,1-.74-.71.73.73,0,0,1,.44-.69l6.81-3-3.83-1.52a.74.74,0,0,1-.4-1,.78.78,0,0,1,.4-.4l7.67-3.3a.74.74,0,0,1,1,.38.73.73,0,0,1-.38,1h0L410.58,770l3.83,1.52a.83.83,0,0,1,.48.68.73.73,0,0,1-.48.68l-8.53,3.72a.51.51,0,0,1-.3,0Z" transform="translate(-0.07 -0.01)" fill="#35434f" stroke="#35434f"/><path d="M544.3,251.15a.67.67,0,0,1-.45-.18.75.75,0,0,1,0-1l24.41-31.46-24.74,3a.68.68,0,0,1-.74-.35.79.79,0,0,1,0-.84l23.16-29.88a.71.71,0,0,1,1,0l0,0a.74.74,0,0,1,.15,1h0l-22.06,28.46,24.74-3a.68.68,0,0,1,.74.35.79.79,0,0,1,0,.84L545,251a.77.77,0,0,1-.74.18Z" transform="translate(-0.07 -0.01)" fill="#35434f" stroke="#35434f"/><path d="M271.6,16a.75.75,0,0,1,0-1.49h12.19L277.85,8.9a.68.68,0,0,1-.18-.8.76.76,0,0,1,.68-.48l15.38-.2h0a.77.77,0,0,1,.74.74.74.74,0,0,1-.74.74l-13.59.18,5.95,5.65a.75.75,0,0,1-.51,1.28l-14,.17Z" transform="translate(-0.07 -0.01)" fill="#35434f" stroke="#35434f"/><path d="M476,39.59h-.26L434.43,24.9A.77.77,0,0,1,434,24a.74.74,0,0,1,.95-.45h0l39.67,14.06L463.24,13.78a.72.72,0,0,1,0-.84.74.74,0,0,1,.77-.2L501.6,26.09a.75.75,0,0,1-.51,1.4h0L465.35,14.7l11.33,23.79a.71.71,0,0,1,0,.83A.78.78,0,0,1,476,39.59Z" transform="translate(-0.07 -0.01)" fill="#35434f" stroke="#35434f"/><path d="M36.2,370.77a1.14,1.14,0,0,1-.45,0L1,344.93a.75.75,0,0,1,0-1,.71.71,0,0,1,1,0l0,0,33.39,24.62L31.11,340a.74.74,0,0,1,.64-.83.77.77,0,0,1,.55.15l38.36,28.25a.75.75,0,1,1-.9,1.21h0l-36.9-27.2,4.32,28.48a.74.74,0,0,1-.36.74.94.94,0,0,1-.62,0Z" transform="translate(-0.07 -0.01)" fill="#35434f" stroke="#35434f"/><path d="M563,829.51a.74.74,0,0,1-.21-1.46l22.66-7.28-13-6.69a.8.8,0,0,1-.41-.75.74.74,0,0,1,.5-.62l22.15-7.14a.74.74,0,0,1,.94.47.73.73,0,0,1-.46.93l-20.46,6.6,13.06,6.69a.69.69,0,0,1,.38.72.73.73,0,0,1-.5.65l-24.38,7.85Z" transform="translate(-0.07 -0.01)" fill="#35434f" stroke="#35434f"/><path d="M743.13,268.48a.76.76,0,0,1-.71-.5l-5.26-17.28-5.75,10.8a.77.77,0,0,1-.74.38.74.74,0,0,1-.62-.5l-6.4-20.82a.75.75,0,0,1,.51-.92h0a.7.7,0,0,1,.9.45s0,0,0,.06L731,259.29l5.74-10.79a.85.85,0,0,1,.74-.39.75.75,0,0,1,.62.54l6,19a.7.7,0,0,1-.45.9l-.06,0Z" transform="translate(-0.07 -0.01)" fill="#35434f" stroke="#35434f"/><path d="M335.23,237.71a.75.75,0,0,1-.71-.57L326,199.74l-12.85,20.4a.74.74,0,0,1-1,.2.81.81,0,0,1-.31-.44l-8.11-35.68a.73.73,0,0,1,.55-.89h0a.71.71,0,0,1,.88.49s0,.05,0,.07l7.59,33.69,12.84-20.37a.74.74,0,0,1,.74-.36.79.79,0,0,1,.6.57l8.92,39.31a.75.75,0,0,1-.54.89Z" transform="translate(-0.07 -0.01)" fill="#35434f" stroke="#35434f"/><path d="M310.35,292.18h0a.75.75,0,0,1-.69-.8h0l.89-11.57-5.17,4.43a.74.74,0,0,1-1.05-.09.78.78,0,0,1-.17-.53l.95-12.13a.75.75,0,0,1,.8-.69h0a.79.79,0,0,1,.69.8L305.8,282l5.14-4.43a.71.71,0,0,1,.83,0,.77.77,0,0,1,.42.71l-1,13.36A.74.74,0,0,1,310.35,292.18Z" transform="translate(-0.07 -0.01)" fill="#35434f" stroke="#35434f"/><path d="M477.81,188.14a.86.86,0,0,1-.39,0,.77.77,0,0,1-.27-1L487.47,170l-11.89,3a.78.78,0,0,1-.78-.3.71.71,0,0,1,0-.83l10.38-17a.75.75,0,0,1,1.28.77h0L477.18,171l11.9-3a.73.73,0,0,1,.77.27.78.78,0,0,1,0,.83l-11.42,18.7a.7.7,0,0,1-.62.3Z" transform="translate(-0.07 -0.01)" fill="#35434f" stroke="#35434f"/><path d="M258.87,182.25a.76.76,0,0,1-.47,0l-6.84-5.41a.75.75,0,0,1,1-1.07h0l5.44,4.31-.56-4.13a.73.73,0,0,1,.68-.8.72.72,0,0,1,.51.14l6.24,4.91a.74.74,0,0,1,0,1.05.74.74,0,0,1-1,.11l-4.79-3.75.45,3.81a.76.76,0,0,1-.39.74Z" transform="translate(-0.07 -0.01)" fill="#35434f" stroke="#35434f"/><path d="M61.2,87.37h-.27a.75.75,0,0,1-.44-1L71.88,55.35l-18.7,8.59a.72.72,0,0,1-.84,0,.75.75,0,0,1-.09-1l11-29.74a.78.78,0,0,1,1-.44.71.71,0,0,1,.43.91l0,0-10.35,28L73,53.15a.84.84,0,0,1,.84,0A.77.77,0,0,1,74,54L61.89,86.75A.79.79,0,0,1,61.2,87.37Z" transform="translate(-0.07 -0.01)" fill="#35434f" stroke="#35434f"/><path d="M542.78,507.28h0a.75.75,0,0,1-.72-.77h0l1.58-34.44L526,488.16a.84.84,0,0,1-1.14-.31.81.81,0,0,1-.11-.41l1.81-39.84a.75.75,0,0,1,.78-.71.73.73,0,0,1,.71.77l-1.73,38.06,17.61-16.06a.73.73,0,0,1,.8,0,.75.75,0,0,1,.44.69l-1.66,36.22A.78.78,0,0,1,542.78,507.28Z" transform="translate(-0.07 -0.01)" fill="#35434f" stroke="#35434f"/><path d="M277.34,616.64a.74.74,0,0,1-.74-.68L273,582.66l-14.51,18.07a.78.78,0,0,1-.8.24.75.75,0,0,1-.51-.62l-4.22-38.66a.75.75,0,0,1,1.49-.17l4,36.84,14.5-18a.76.76,0,0,1,1.05-.09.7.7,0,0,1,.26.48l3.84,35.09a.75.75,0,0,1-.66.8Z" transform="translate(-0.07 -0.01)" fill="#35434f" stroke="#35434f"/><path d="M797.16,328.13a.75.75,0,0,1-.72-.51L789,305.17l-7.26,14.48a.7.7,0,0,1-.71.39.67.67,0,0,1-.65-.51L771.46,293a.77.77,0,0,1,.48-1,.75.75,0,0,1,.92.48l8.24,24.86,7.37-14.45a.71.71,0,0,1,.71-.42.77.77,0,0,1,.66.5l8,24.15a.68.68,0,0,1-.37.89l-.08,0Z" transform="translate(-0.07 -0.01)" fill="#35434f" stroke="#35434f"/><path d="M258.61,75.27a.75.75,0,1,1,0-1.49l16.92-3.69-9.87-6.33a.74.74,0,0,1-.51-.8.76.76,0,0,1,.57-.59l20.57-4.49a.73.73,0,0,1,.89.55.75.75,0,0,1-.55.9h0l-18.76,4.13,9.87,6.34a.82.82,0,0,1,.33.77.76.76,0,0,1-.57.59l-18.7,4.08Z" transform="translate(-0.07 -0.01)" fill="#35434f" stroke="#35434f"/><path d="M574.92,518.49a.75.75,0,0,1,0-1.49L619,511.41l-22.1-17.13a.7.7,0,0,1-.23-.77.75.75,0,0,1,.62-.56l41.63-5.27a.74.74,0,0,1,.2,1.46h0l-39.84,5,22.09,17.15a.73.73,0,0,1,.15,1,.74.74,0,0,1-.51.29l-46,5.95Z" transform="translate(-0.07 -0.01)" fill="#35434f" stroke="#35434f"/><path d="M467.34,669.54a.67.67,0,0,1-.5-.21.73.73,0,0,1,0-1l4.34-4.67h-3.45a.82.82,0,0,1-.79-.87.76.76,0,0,1,.11-.38L472.1,657a.75.75,0,0,1,1.07,1l0,0-3.8,4.1h3.44a.72.72,0,0,1,.69.45.69.69,0,0,1,0,.8l-5.56,5.94A.8.8,0,0,1,467.34,669.54Z" transform="translate(-0.07 -0.01)" fill="#35434f" stroke="#35434f"/><path d="M514.14,757.82h-.2a.8.8,0,0,1-.54-.92l2.62-10-5.95,3.42a.69.69,0,0,1-1-.18.71.71,0,0,1-.1-.6l3.36-12.87a.76.76,0,1,1,1.47.35v0l-3,11.13,5.94-3.39a.74.74,0,0,1,1,.25.69.69,0,0,1,.08.58l-3,11.69A.76.76,0,0,1,514.14,757.82Z" transform="translate(-0.07 -0.01)" fill="#35434f" stroke="#35434f"/><path d="M26.09,634.09a.75.75,0,0,1-.72-.47l-4.76-13-3.44,7.47a.79.79,0,0,1-.72.41.64.64,0,0,1-.65-.47l-4.88-13.32a.74.74,0,0,1,.45-1h0a.77.77,0,0,1,1,.44l4.25,11.63L20,618.4a.85.85,0,0,1,.71-.42.72.72,0,0,1,.66.48l5.38,14.65a.74.74,0,0,1-.45.95h0Z" transform="translate(-0.07 -0.01)" fill="#35434f" stroke="#35434f"/><path d="M366.25,67.12h-.18L357,65.07a.75.75,0,0,1-.57-.89h0a.79.79,0,0,1,.9-.57l7.34,1.67-2.26-3.54a.78.78,0,0,1,0-.83.7.7,0,0,1,.77-.3l8.27,1.84a.73.73,0,0,1,.56.86.7.7,0,0,1-.82.58h-.07l-6.51-1.43,2.26,3.48a.75.75,0,0,1-.25,1,.7.7,0,0,1-.37.11Z" transform="translate(-0.07 -0.01)" fill="#35434f" stroke="#35434f"/><path d="M700.4,469.78a.51.51,0,0,1-.3,0l-37.58-17.3a.71.71,0,0,1-.38-.94.08.08,0,0,1,0,0,.75.75,0,0,1,1-.39h0l36,16.53-9.54-25.75a.75.75,0,0,1,.2-.8.69.69,0,0,1,.8,0L732,459.94a.76.76,0,0,1,.47.95.75.75,0,0,1-.94.46l-.15-.07L691.62,443l9.55,25.75a.74.74,0,0,1-.21.8.75.75,0,0,1-.57.21Z" transform="translate(-0.07 -0.01)" fill="#35434f" stroke="#35434f"/><path d="M643.28,760.94h-.21a.74.74,0,0,1-.5-.92h0l6.51-23.25-14.42,8.11a.71.71,0,0,1-.83,0,.67.67,0,0,1-.24-.77l7.7-27.5a.74.74,0,0,1,1.42.42h0l-7.22,25.75,14.42-8.09a.71.71,0,0,1,1.1.77l-7,25a.76.76,0,0,1-.71.5Z" transform="translate(-0.07 -0.01)" fill="#35434f" stroke="#35434f"/><path d="M321.64,742.21a.77.77,0,0,1-.71-.48.74.74,0,0,1,.42-1L338,734l-10-4.22a.74.74,0,0,1-.4-1,.78.78,0,0,1,.4-.4l16.59-6.78a.76.76,0,0,1,.57,1.4l-14.87,6,10,4.22a.79.79,0,0,1,.44.71.73.73,0,0,1-.44.69L322,742Z" transform="translate(-0.07 -0.01)" fill="#35434f" stroke="#35434f"/><path d="M559.52,569.78a.82.82,0,0,1-.57-.24l-24.56-26.28-.77,22.48a.65.65,0,0,1-.48.65.73.73,0,0,1-.8-.18l-23.43-25.06a.75.75,0,0,1,0-1.06.74.74,0,0,1,1.05,0h0l22.22,23.78.77-22.48a.73.73,0,0,1,.47-.65.71.71,0,0,1,.81.18L560,568.5a.73.73,0,0,1,0,1,.65.65,0,0,1-.5.24Z" transform="translate(-0.07 -0.01)" fill="#35434f" stroke="#35434f"/><path d="M688.89,352.57h0a.71.71,0,0,1-.71-.71v-.06l1.37-34.67-17.67,16.41a.69.69,0,0,1-.8,0,.71.71,0,0,1-.44-.68l1.6-40.14A.76.76,0,0,1,673,292a.74.74,0,0,1,.71.78h0l-1.51,38.32,17.63-16.26a.73.73,0,0,1,.8,0,.82.82,0,0,1,.44.71L689.64,352A.75.75,0,0,1,688.89,352.57Z" transform="translate(-0.07 -0.01)" fill="#35434f" stroke="#35434f"/><path d="M711.67,209.49h-.18l-16.17-4.08a.77.77,0,0,1-.54-.92.73.73,0,0,1,.89-.53l14.42,3.63-4.54-7.65a.71.71,0,0,1,0-.83.75.75,0,0,1,.77-.27L721,202.53a.77.77,0,0,1,.53.92.75.75,0,0,1-.89.54l-13-3.28,4.57,7.65a.72.72,0,0,1-.59,1.13Z" transform="translate(-0.07 -0.01)" fill="#35434f" stroke="#35434f"/><path d="M783.27,635.25h-.21a.71.71,0,0,1-.52-.86.14.14,0,0,1,0-.06l1.78-5.94L781,630.14a.73.73,0,0,1-.8,0,.74.74,0,0,1-.24-.8l2.53-8.3a.74.74,0,1,1,1.43.41h0l-2,6.6,3.36-1.78a.69.69,0,0,1,.8,0,.7.7,0,0,1,.23.77L784,634.6A.73.73,0,0,1,783.27,635.25Z" transform="translate(-0.07 -0.01)" fill="#35434f" stroke="#35434f"/></g></svg>