<svg xmlns="http://www.w3.org/2000/svg" viewBox="0 0 751.92 1267.58"><g opacity="0.44"><path d="M203.23,1255.84h-.45l-11.35-3.77a1.13,1.13,0,0,1-.77-.86,1.08,1.08,0,0,1,.36-1.09l9.08-7.94a1.16,1.16,0,0,1,1.09-.23,1.14,1.14,0,0,1,.77.86l2.41,11.71a1.11,1.11,0,0,1-.36,1.09A1.05,1.05,0,0,1,203.23,1255.84Zm-9.07-5.35,7.62,2.54-1.59-7.9Z" transform="translate(0 -0.02)" fill="#35434f" stroke="#35434f" stroke-width="2"/><path d="M594.05,310.38h-.5a1.18,1.18,0,0,1-.64-.95l-1.4-18.16a1.17,1.17,0,0,1,.5-1,1.14,1.14,0,0,1,1.13,0l16.34,7.85a1,1,0,0,1,.64.91,1.14,1.14,0,0,1-.46,1l-15,10.26a1,1,0,0,1-.63.09Zm0-17.34,1.13,14.17,11.71-8Z" transform="translate(0 -0.02)" fill="#35434f" stroke="#35434f" stroke-width="2"/><path d="M433.34,605.12a1.22,1.22,0,0,1-.95-.54l-7.53-12.17a1.09,1.09,0,0,1,0-1.13,1,1,0,0,1,.95-.59l14.3-.41a1.09,1.09,0,0,1,1,.5,1.14,1.14,0,0,1,0,1.13l-6.77,12.85a1,1,0,0,1-.95.59Zm-5.49-12.21,5.45,8.81,4.9-9.08Z" transform="translate(0 -0.02)" fill="#35434f" stroke="#35434f" stroke-width="2"/><path d="M300.67,795.41a1.36,1.36,0,0,1-.82-.31,1.22,1.22,0,0,1-.32-1.09l4.54-19.2a1.14,1.14,0,0,1,1.39-.84,1.26,1.26,0,0,1,.47.25l14.3,13.61a1.11,1.11,0,0,1,.32,1.09,1.28,1.28,0,0,1-.77.82l-19,5.54ZM306,777.26l-3.77,15.38,15.21-4.53Z" transform="translate(0 -0.02)" fill="#35434f" stroke="#35434f" stroke-width="2"/><path d="M243.13,366.67a.9.9,0,0,1-.46,0l-23.06-9.4a1.06,1.06,0,0,1-.68-.87,1.08,1.08,0,0,1,.41-1l19.7-15.3a1.07,1.07,0,0,1,1.09,0,1.13,1.13,0,0,1,.73.9l3.4,24.43a1.14,1.14,0,0,1-.46,1,1.29,1.29,0,0,1-.68.23Zm-20.84-10.85,19.43,7.95L238.86,343Z" transform="translate(0 -0.02)" fill="#35434f" stroke="#35434f" stroke-width="2"/><path d="M100.16,599.77a1,1,0,0,1-.59,0L53.63,574.12a1.12,1.12,0,0,1,0-2l45.39-27a1.09,1.09,0,0,1,1.13,0,1.14,1.14,0,0,1,.59,1l.78,52.61a1.16,1.16,0,0,1-.59,1,1.29,1.29,0,0,1-.73-.05ZM56.45,573,99,596.77l-.68-48.71Z" transform="translate(0 -0.02)" fill="#35434f" stroke="#35434f" stroke-width="2"/><path d="M750.92,34.77l-6.67,5.43L740.17,15l10.75,4.08V16.9l-11.66-4.44a1.16,1.16,0,0,0-1.14,0,1.14,1.14,0,0,0-.36,1l4.54,29.1a1.18,1.18,0,0,0,.73.86.68.68,0,0,0,.4,0h0a1.24,1.24,0,0,0,1,0l6.49-5.32Z" transform="translate(0 -0.02)" fill="#35434f" stroke="#35434f" stroke-width="2"/><path d="M296.85,77.79h-.32a1.15,1.15,0,0,1-.82-.82L292.9,65.62a1.08,1.08,0,0,1,.27-1.09,1.19,1.19,0,0,1,1.14-.27l11.25,3.22a1.12,1.12,0,0,1,.78.82,1.16,1.16,0,0,1-.32,1.09l-8.4,8.12A1.05,1.05,0,0,1,296.85,77.79Zm-1.27-10.85,1.86,7.53L303,69.12Z" transform="translate(0 -0.02)" fill="#35434f" stroke="#35434f" stroke-width="2"/><path d="M139.79,806.4h-.37L98,792.78a1.13,1.13,0,0,1-.77-.86,1.08,1.08,0,0,1,.36-1.09l32.73-29a1.07,1.07,0,0,1,1.09,0,1.14,1.14,0,0,1,.77.86l8.76,42.86a1.09,1.09,0,0,1-.36,1,1,1,0,0,1-.77-.18Zm-39.27-15.53,37.77,12.58-7.94-39Z" transform="translate(0 -0.02)" fill="#35434f" stroke="#35434f" stroke-width="2"/><path d="M51.68,126.18h-.32a1.14,1.14,0,0,1-.77-.87L40.15,79.6A1.14,1.14,0,0,1,41,78.22a1.11,1.11,0,0,1,.6,0L86.36,91.86a1.11,1.11,0,0,1,.77.86,1.22,1.22,0,0,1-.32,1.09l-34.4,32.05A1.34,1.34,0,0,1,51.68,126.18ZM42.6,81l9.8,41.85L83.86,93.63Z" transform="translate(0 -0.02)" fill="#35434f" stroke="#35434f" stroke-width="2"/><path d="M27,1163.55a1.18,1.18,0,0,0-1-.63L1,1161.74V1164l23,1.08-14.57,22.7L1,1171.38v4.86l7.37,14.19a1.07,1.07,0,0,0,1,.59h0a1.11,1.11,0,0,0,.95-.68L27,1164.69A1.27,1.27,0,0,0,27,1163.55Z" transform="translate(0 -0.02)" fill="#35434f" stroke="#35434f" stroke-width="2"/><path d="M267.58,1064.91a1,1,0,0,1-.77-.31,1.22,1.22,0,0,1-.32-1.09l11.3-45.85a1.23,1.23,0,0,1,.78-.86,1.16,1.16,0,0,1,1.13.31l34.05,32.69a1.1,1.1,0,0,1,.32,1.09,1,1,0,0,1-.77.81l-45.4,13.17Zm11.94-44.8-10.35,42,41.58-12.08Z" transform="translate(0 -0.02)" fill="#35434f" stroke="#35434f" stroke-width="2"/><path d="M359.85,1017.11a1.17,1.17,0,0,1-1.09-1.31l1.63-12.26a1.1,1.1,0,0,1,.73-.91,1.23,1.23,0,0,1,1.09,0l9.8,7.59a1.22,1.22,0,0,1,.45,1,1.09,1.09,0,0,1-.68.91l-11.48,4.54Zm2.54-11.34-1.14,8.4,7.81-3.23Z" transform="translate(0 -0.02)" fill="#35434f" stroke="#35434f" stroke-width="2"/><path d="M446.52,135.12a.85.85,0,0,1-.5,0l-24.51-12.49a1.15,1.15,0,0,1-.63-.95,1.12,1.12,0,0,1,.54-1l23.06-15a1.07,1.07,0,0,1,1.09,0,1.09,1.09,0,0,1,.64,1l1.45,27.24a1.24,1.24,0,0,1-.5,1,1.58,1.58,0,0,1-.64.19ZM424.28,121.5l20.84,10.58-1.27-23.56Z" transform="translate(0 -0.02)" fill="#35434f" stroke="#35434f" stroke-width="2"/><path d="M362.32,687.92a1.22,1.22,0,0,1-.95-.54,1.16,1.16,0,0,1,0-1.14l29.87-54.88a1,1,0,0,1,.95-.59,1,1,0,0,1,1,.54l32.59,53.34a1.11,1.11,0,0,1,0,1.14,1.47,1.47,0,0,1-1,.59l-62.46,1.54Zm30-53.74-28,51.43,58.56-1.46Z" transform="translate(0 -0.02)" fill="#35434f" stroke="#35434f" stroke-width="2"/><path d="M225.66,694.09a1.17,1.17,0,0,1-.91-.45l-9.07-12a1.25,1.25,0,0,1,0-1.13,1.14,1.14,0,0,1,.9-.68l15-2a1.09,1.09,0,0,1,1,.41,1.16,1.16,0,0,1,0,1.14l-5.81,14a1.1,1.1,0,0,1-.91.72Zm-7.12-12.16,6.85,9.08,4.27-10.35Z" transform="translate(0 -0.02)" fill="#35434f" stroke="#35434f" stroke-width="2"/><path d="M750.92,882.37v-2.06L719.56,884l23.15-53.93,8.21,11v-4L743.39,827a1.22,1.22,0,0,0-1-.46,1.12,1.12,0,0,0-.91.69l-24.6,57.74a1,1,0,0,0,0,1.09,1.13,1.13,0,0,0,.91.5v-.23Z" transform="translate(0 -0.02)" fill="#35434f" stroke="#35434f" stroke-width="2"/><path d="M134.39,298a1.28,1.28,0,0,1-.55,0L113.6,287a1.14,1.14,0,0,1-.59-1,1.12,1.12,0,0,1,.54-1l19.61-12a1.11,1.11,0,0,1,1.14,0,1.19,1.19,0,0,1,.59,1l.63,23a1.19,1.19,0,0,1-.54,1A1,1,0,0,1,134.39,298Zm-18.16-12.17,16.8,9.08-.55-19.07Z" transform="translate(0 -0.02)" fill="#35434f" stroke="#35434f" stroke-width="2"/><path d="M571.21,1070.91a1,1,0,0,1-1-.55,1.14,1.14,0,0,1,0-1.13l5.31-9.9a1,1,0,0,1,.95-.59,1.22,1.22,0,0,1,1,.5l6,9.57a1.16,1.16,0,0,1,0,1.14,1.19,1.19,0,0,1-1,.59l-11.21.36Zm5.36-8.76-3.45,6.44,7.35-.27Z" transform="translate(0 -0.02)" fill="#35434f" stroke="#35434f" stroke-width="2"/><path d="M312.35,715.57a1.18,1.18,0,0,1-1-.55l-7.67-12.66a1.16,1.16,0,0,1,0-1.14,1.07,1.07,0,0,1,.95-.59l14.85-.36a1.33,1.33,0,0,1,1,.54,1.16,1.16,0,0,1,0,1.14l-7.13,13a1.07,1.07,0,0,1-.95.59Zm-5.72-12.71,5.67,9.07,5.22-9.57Z" transform="translate(0 -0.02)" fill="#35434f" stroke="#35434f" stroke-width="2"/><path d="M227.09,1180.44a1.23,1.23,0,0,1-1-.55l-5.81-9.66a1.16,1.16,0,0,1,0-1.14,1.19,1.19,0,0,1,1-.59l11.26-.23a1.29,1.29,0,0,1,1,.55,1.14,1.14,0,0,1,0,1.13l-5.45,9.9a1.17,1.17,0,0,1-1,.59Zm-3.86-9.71L227,1177l3.54-6.44Z" transform="translate(0 -0.02)" fill="#35434f" stroke="#35434f" stroke-width="2"/><path d="M343.37,38.66a1.07,1.07,0,0,1-.91-.5l-14.3-20.61a1.27,1.27,0,0,1,0-1.14,1.18,1.18,0,0,1,.95-.63l24.7-2a1.07,1.07,0,0,1,1,.5,1.14,1.14,0,0,1,0,1.13l-10.71,22.7a1.21,1.21,0,0,1-.95.64ZM331.11,17.87l12,17.38,9.08-19.11Z" transform="translate(0 -0.02)" fill="#35434f" stroke="#35434f" stroke-width="2"/><path d="M42.19,24.59h-.54a1,1,0,0,1-.59-.87l-.5-12.25a1.09,1.09,0,0,1,.5-1.37,1.14,1.14,0,0,1,1.13,0L53,15.78a1.21,1.21,0,0,1,.64,1,1.26,1.26,0,0,1-.55,1.05L42.78,24.4A1.52,1.52,0,0,1,42.19,24.59Zm.68-11.49.46,8.31,7-4.54Z" transform="translate(0 -0.02)" fill="#35434f" stroke="#35434f" stroke-width="2"/><path d="M384.53,415.79h0l-26.65-1.68a1.18,1.18,0,0,1-.95-.64,1.14,1.14,0,0,1,0-1.13l14.75-22.2a1.14,1.14,0,0,1,1.56-.4,1.07,1.07,0,0,1,.39.4l12.12,24a1.16,1.16,0,0,1,0,1.14,1.08,1.08,0,0,1-1.22.54ZM360,411.93l22.7,1.45-10.13-20.33Z" transform="translate(0 -0.02)" fill="#35434f" stroke="#35434f" stroke-width="2"/><path d="M680.66,543.3h-.36l-14.53-4.9A1.11,1.11,0,0,1,665,537a1.13,1.13,0,0,1,.35-.54l11.53-10.12a1.07,1.07,0,0,1,1.09,0,1.14,1.14,0,0,1,.77.86l3,15a1,1,0,0,1-.36,1A1.08,1.08,0,0,1,680.66,543.3Zm-12.3-6.63,10.8,3.63-2.27-11.16Z" transform="translate(0 -0.02)" fill="#35434f" stroke="#35434f" stroke-width="2"/><path d="M637.12,234.08h-.27a1.09,1.09,0,0,1-.81-.82L631.5,215.6a1,1,0,0,1,.66-1.28,1,1,0,0,1,.74.05l17.48,5a1.08,1.08,0,0,1,.82.81,1.27,1.27,0,0,1-.32,1.09L637.8,233.94a1.07,1.07,0,0,1-.68.14Zm-2.81-17.16,3.45,13.61L648,220.59Z" transform="translate(0 -0.02)" fill="#35434f" stroke="#35434f" stroke-width="2"/><path d="M388.1,200.76h0a1.12,1.12,0,0,1-.86-.78l-8.35-27.23a1.14,1.14,0,0,1,.76-1.43,1.11,1.11,0,0,1,.6,0l27.69,6.35a1.06,1.06,0,0,1,.82.77,1.09,1.09,0,0,1-.23,1.09L389,200.76a1.27,1.27,0,0,1-.86,0Zm-6.76-26.65,7.17,23.42,16.7-17.93Z" transform="translate(0 -0.02)" fill="#35434f" stroke="#35434f" stroke-width="2"/><path d="M534.16,717.74h-.46a1.28,1.28,0,0,1-.68-.9l-4.13-33.05a1.2,1.2,0,0,1,.46-1,1.25,1.25,0,0,1,1.13,0l30.64,12.94a1.09,1.09,0,0,1,.68.91,1.12,1.12,0,0,1-.45,1L534.84,717.7a1,1,0,0,1-.68,0Zm-2.77-32.32,3.64,29.1,23.42-17.7Z" transform="translate(0 -0.02)" fill="#35434f" stroke="#35434f" stroke-width="2"/><path d="M143.19,203.89h0l-50.84-3.13a1.21,1.21,0,0,1-.95-.64,1.14,1.14,0,0,1,0-1.13l28-42.58a1.06,1.06,0,0,1,1-.5,1,1,0,0,1,1,.59l22.7,45.39a1.13,1.13,0,0,1-.51,1.52,1.24,1.24,0,0,1-.53.12Zm-48.75-5.13,46.94,2.77L120.5,159.45Z" transform="translate(0 -0.02)" fill="#35434f" stroke="#35434f" stroke-width="2"/><path d="M498.37,1258.43h0l-47.8-1.5a1.07,1.07,0,0,1-.95-.59,1.16,1.16,0,0,1,0-1.14l25.15-40.85a1.19,1.19,0,0,1,1-.5,1.14,1.14,0,0,1,1,.59l22.69,42.13a1.16,1.16,0,0,1,0,1.14,1.22,1.22,0,0,1-1.09.72Zm-45.8-3.73,43.85,1.37-20.74-38.5Z" transform="translate(0 -0.02)" fill="#35434f" stroke="#35434f" stroke-width="2"/><path d="M367.6,1174.68a1.23,1.23,0,0,1-.54,0,1,1,0,0,1-.59-1V1161.6a1.14,1.14,0,0,1,.54-1,1.07,1.07,0,0,1,1.14,0l10.58,5.86a1.14,1.14,0,0,1,.59,1,1.1,1.1,0,0,1-.55,1l-10.4,6.26A1.35,1.35,0,0,1,367.6,1174.68Zm1-11.3v8.17l7-4.18Z" transform="translate(0 -0.02)" fill="#35434f" stroke="#35434f" stroke-width="2"/><path d="M655.83,147.15a1.32,1.32,0,0,1-.87-.41l-36.72-41.58A1.29,1.29,0,0,1,618,104a1.18,1.18,0,0,1,.87-.72l54.47-11a1.12,1.12,0,0,1,1.09.36,1,1,0,0,1,.22,1.09l-17.74,52.52a1.15,1.15,0,0,1-.87.78Zm-34.55-42,34.32,38.63L672,94.9Z" transform="translate(0 -0.02)" fill="#35434f" stroke="#35434f" stroke-width="2"/><path d="M424.29,251.1h-.46a1.09,1.09,0,0,1-.68-.91l-1.5-12.71a1.09,1.09,0,0,1,.45-1,1.17,1.17,0,0,1,1.09,0l11.76,5a1.22,1.22,0,0,1,.68,1,1.09,1.09,0,0,1-.45,1l-10.26,7.26a1.11,1.11,0,0,1-.63.41Zm0-12,1,8.81,7.08-5.31Z" transform="translate(0 -0.02)" fill="#35434f" stroke="#35434f" stroke-width="2"/><path d="M668.81,1181.67h-.32l-19.47-5.4a1.31,1.31,0,0,1-.82-.82,1.17,1.17,0,0,1,.32-1.09L663,1160.15a1.13,1.13,0,0,1,1.6.08,1.14,1.14,0,0,1,.26.47l5,19.61a1.05,1.05,0,0,1-.27,1.09,1.12,1.12,0,0,1-.82.27Zm-17.3-7.13,15.71,4.54-4-15.8Z" transform="translate(0 -0.02)" fill="#35434f" stroke="#35434f" stroke-width="2"/><path d="M618.74,26.85a1.08,1.08,0,0,1-.64-.22l-12-8a1.09,1.09,0,0,1-.5-1,1,1,0,0,1,.64-.91l13-6.54a1.16,1.16,0,0,1,1.14,0,1,1,0,0,1,.5,1L620,25.53a1.22,1.22,0,0,1-.64,1,1.07,1.07,0,0,1-.59.36ZM609,17.78l8.76,5.94.73-10.53Z" transform="translate(0 -0.02)" fill="#35434f" stroke="#35434f" stroke-width="2"/><path d="M480.68,213.6h0a1.17,1.17,0,0,1-1-.54l-6.49-11.49a1,1,0,0,1,0-1.13,1,1,0,0,1,.95-.55H487.3a1.21,1.21,0,0,1,1,.55,1.14,1.14,0,0,1,0,1.13l-6.62,11.49a1,1,0,0,1-1,.54Zm-4.54-11.44,4.54,8,4.54-8Z" transform="translate(0 -0.02)" fill="#35434f" stroke="#35434f" stroke-width="2"/><path d="M638.12,468.81a1,1,0,0,1-.68-.23,1.17,1.17,0,0,1-.27-1.09l10.4-32.73a1,1,0,0,1,.82-.73,1.22,1.22,0,0,1,1.09.32l23.15,25.33a1.14,1.14,0,0,1-.09,1.61,1.18,1.18,0,0,1-.5.25l-33.5,7.4Zm10.44-32.69-9.9,31.14,31.77-7Z" transform="translate(0 -0.02)" fill="#35434f" stroke="#35434f" stroke-width="2"/><path d="M128.17,965.55a14,14,0,0,1-2.95-.5c-1-.32-2.64-.73-3-.32a1.14,1.14,0,0,1-1.59.23,1.13,1.13,0,0,1-.23-1.59h0c1.27-1.64,3.45-1,5.35-.55,1.09.27,2.64.73,3,.32s-.5-1.86-1.09-2.77c-1-1.63-2.23-3.63-1-5.31s3.54-1,5.35-.54c1.09.31,2.68.72,3,.31s-.54-1.86-1.14-2.76c-1-1.63-2.22-3.63-1-5.31s3.54-1,5.4-.55c1.05.28,2.64.73,2.95.28s-.54-1.82-1.13-2.77-2.22-3.63-.95-5.27a1.09,1.09,0,0,1,1.54-.05l.05.05A1.13,1.13,0,0,1,141,940h0c-.32.41.55,1.82,1.09,2.72,1,1.64,2.23,3.68,1,5.32s-3.54,1-5.35.54c-1.09-.27-2.68-.68-3-.27s.54,1.81,1.13,2.77c1,1.63,2.22,3.63,1,5.31s-3.54,1-5.4.54c-1-.31-2.63-.72-3-.31s.54,1.81,1.13,2.76,2.23,3.64,1,5.31a2.72,2.72,0,0,1-2.41.82Z" transform="translate(0 -0.02)" fill="#35434f" stroke="#35434f" stroke-width="2"/><path d="M40.69,510a1.1,1.1,0,0,1-.95-.55,1.14,1.14,0,0,1,.33-1.57h0l0,0c3.23-1.95,2.27-7.67,1.32-13.21-1-6.26-2.13-12.8,2.41-15.52s9.8,1.23,14.88,5,9.08,6.85,12.35,4.9,2.23-7.67,1.32-13.21c-1-6.27-2.14-12.76,2.36-15.53s9.8,1.23,14.89,5.09,9.08,6.85,12.3,4.9,2.27-7.67,1.31-13.21c-1-6.27-2.13-12.76,2.41-15.53s9.76,1.23,14.84,5.09,9.08,6.85,12.3,4.9a1.17,1.17,0,0,1,1.59.41,1.13,1.13,0,0,1-.41,1.54c-4.54,2.72-9.76-1.23-14.84-5s-9.08-6.9-12.3-4.95-2.27,7.67-1.32,13.21c1,6.27,2.14,12.76-2.4,15.53s-9.76-1.23-14.85-5-9.08-6.9-12.34-4.95-2.23,7.67-1.32,13.21c1,6.26,2.13,12.8-2.36,15.52s-9.8-1.22-14.89-5-9.08-6.86-12.35-4.9-2.27,7.67-1.31,13.21c1,6.26,2.13,12.8-2.41,15.52A1,1,0,0,1,40.69,510Z" transform="translate(0 -0.02)" fill="#35434f" stroke="#35434f" stroke-width="2"/><path d="M738.76,166.44c-4.54-3.81-9.17-7.72-7.94-11.57s7.35-4.23,13.3-4.54c2.31-.13,4.65-.27,6.8-.6v-2.22a62.15,62.15,0,0,1-6.94.64c-6.67.36-13.61.72-15.34,6s4.13,10.26,8.67,14.07,9.08,7.63,7.8,11.49-7.4,4.22-13.34,4.53c-6.67.41-13.61.77-15.34,6s4.12,10.17,8.67,14,9.21,7.71,7.94,11.57-7.4,4.22-13.3,4.54c-6.72.41-13.57.77-15.34,6s4.08,10.26,8.62,14.07,9.22,7.81,8,11.58a1.17,1.17,0,0,0,.72,1.45h.36a1.05,1.05,0,0,0,1.19-.68c1.77-5.22-4.09-10.17-8.63-14s-9.21-7.81-7.94-11.62,7.4-4.17,13.34-4.54c6.68-.36,13.62-.81,15.35-6s-4.13-10.21-8.67-14-9.22-7.72-8-11.58,7.4-4.17,13.3-4.54c6.67-.36,13.57-.72,15.34-6S743.31,170.25,738.76,166.44Z" transform="translate(0 -0.02)" fill="#35434f" stroke="#35434f" stroke-width="2"/><path d="M45.73,252.28a1.09,1.09,0,0,1-1.09-1c-.27-1.77-3.36-2.54-6.35-3.22-3.68-.91-7.54-1.82-8-5.13s3-5.31,6.22-7.22,5.4-3.13,5.13-5-3.36-2.54-6.31-3.22c-3.72-.91-7.53-1.82-8-5.13s2.9-5.31,6.22-7.22,5.31-3.13,5.31-4.9-3.36-2.54-6.36-3.27c-3.67-.86-7.53-1.77-8-5.08s2.91-5.31,6.22-7.22c2.64-1.54,5.36-3.13,5.09-4.9a1.15,1.15,0,1,1,2.27-.36h0c.45,3.31-3,5.31-6.22,7.21s-5.4,3.14-5.13,4.9S30,204.12,33,204.84c3.72.86,7.53,1.77,8,5.09s-2.9,5.31-6.21,7.21c-2.82,1.78-5.54,3.14-5.09,5s3.36,2.55,6.36,3.23,7.53,1.81,8,5.13-3,5.31-6.22,7.21-5.4,3.14-5.13,5,3.32,2.54,6.31,3.22c3.73.91,7.54,1.82,8,5.13a1.15,1.15,0,0,1-.93,1.32h-.44Z" transform="translate(0 -0.02)" fill="#35434f" stroke="#35434f" stroke-width="2"/><path d="M750.92,575.08c-.61,1.77-1.39,3.13-2.58,3.3-1.86.28-3.09-2-5-5.4s-3.95-6.94-7.4-6.49a1.15,1.15,0,1,0,.32,2.27c1.95-.27,3.27,2.14,5.08,5.36s3.72,6.54,6.77,6.54l.59,0a4.17,4.17,0,0,0,2.26-1Z" transform="translate(0 -0.02)" fill="#35434f" stroke="#35434f" stroke-width="2"/><path d="M345.19,259.5a5.41,5.41,0,0,1-3.4-1.18c-3.58-2.77-2-8.12-.54-13.26,1.27-4.53,2.59-9.07,0-10.84s-6.45.59-10.44,2.9-9.4,5.49-13,2.72-2-8.13-.54-13.26c1.27-4.53,2.63-9.07.27-10.84s-6.49.54-10.44,2.9-9.44,5.49-13,2.72-2-8.13-.5-13.26c1.27-4.53,2.59-9.07,0-10.84a1.18,1.18,0,0,1,0-1.59,1.09,1.09,0,0,1,1.54,0l.05,0c3.59,2.77,2.05,8.08.55,13.25-1.27,4.54-2.63,9.08-.27,10.85s6.49-.59,10.44-2.9c4.54-2.72,9.44-5.54,13-2.72s2,8.08.55,13.25c-1.28,4.54-2.59,9.08,0,10.8s6.44-.54,10.44-2.86,9.4-5.54,13-2.77,2,8.13.54,13.3c-1.27,4.54-2.58,9.08,0,10.85s6.5-.59,10.45-2.9,9.44-5.49,13-2.72a1.13,1.13,0,0,1,.22,1.59,1.12,1.12,0,0,1-1.58.22h0c-2.36-1.86-6.49.55-10.49,2.86A21.77,21.77,0,0,1,345.19,259.5Z" transform="translate(0 -0.02)" fill="#35434f" stroke="#35434f" stroke-width="2"/><path d="M749.25,493l1.67.25v-2.28l-1.31-.19c-7.26-1.09-14.84-2.22-17.8,3s2.05,11.57,6.13,16.93,8.26,10.58,6,14.43a1.15,1.15,0,0,0,.41,1.55,1.47,1.47,0,0,0,.59,0h0a1.11,1.11,0,0,0,1-.41c3-5.22-2.09-11.58-6.13-16.93s-8.26-10.58-6-14.44S742.75,492,749.25,493Z" transform="translate(0 -0.02)" fill="#35434f" stroke="#35434f" stroke-width="2"/><path d="M570.25,626.37a2.82,2.82,0,0,1-.82,0c-1.95-.59-2.13-3-2.27-4.86,0-1.09,0-2.72-.68-2.86s-1.54,1.09-2.22,2-2.73,3.27-4.54,2.68-2.14-3-2.27-4.9c0-1-.23-2.68-.73-2.86s-1.54,1.14-2.22,2-2.73,3.32-4.54,2.68-2.13-3-2.27-4.86c0-1.09,0-2.72-.68-2.9a1.1,1.1,0,0,1-.75-1.35h0a.14.14,0,0,0,0-.06,1.15,1.15,0,0,1,1.41-.73c1.95.59,2.13,3,2.27,4.86,0,1.09,0,2.73.68,2.86s1.54-1.09,2.22-2,2.73-3.31,4.54-2.68,2.14,3,2.27,4.9c0,1,0,2.68.73,2.86s1.54-1.09,2.22-2,2.73-3.31,4.54-2.68,2.14,3,2.27,4.86c0,1.09,0,2.72.68,2.9s1.55-1.13,2.27-2,2.68-3.31,4.54-2.68a1.09,1.09,0,0,1,.8,1.32h0a.29.29,0,0,1,0,.09,1.13,1.13,0,0,1-1.4.79h0l-.06,0c-.5,0-1.54,1.09-2.22,2S571.84,626.37,570.25,626.37Z" transform="translate(0 -0.02)" fill="#35434f" stroke="#35434f" stroke-width="2"/><path d="M285.43,669.54a1.09,1.09,0,0,1-.95-.59c-3.22-5.4,1.63-11.71,6.31-17.84s8.62-11.21,6.17-15.3-9.53-3-16.43-1.86c-7.58,1.18-15.48,2.45-18.7-3s1.64-11.76,6.31-17.89,8.63-11.25,6.18-15.34-9.54-2.95-16.44-1.86c-7.62,1.23-15.48,2.45-18.7-2.95s1.59-11.76,6.31-17.89,8.58-11.25,6.13-15.34-9.53-3-16.43-1.86c-7.63,1.18-15.48,2.45-18.7-3a1.13,1.13,0,0,1,.36-1.54,1.17,1.17,0,0,1,1.59.41c2.41,4.08,9.53,3,16.43,1.86,7.58-1.18,15.48-2.45,18.7,2.95s-1.59,11.8-6.31,18.16-8.58,11.21-6.12,15.34,9.53,3,16.38,1.86c7.63-1.23,15.53-2.5,18.75,3s-1.63,11.71-6.31,17.84S261.34,626,263.79,630s9.53,3,16.43,1.86,15.48-2.45,18.7,3-1.63,11.75-6.31,17.84S284,664,286.44,668a1.14,1.14,0,0,1-.41,1.54A1,1,0,0,1,285.43,669.54Z" transform="translate(0 -0.02)" fill="#35434f" stroke="#35434f" stroke-width="2"/><path d="M117.64,1248.3h0c-3.86-.64-4.86-5.18-5.81-9.62-.82-3.68-1.64-7.45-4-7.86s-4.54,3-6.31,6.18-4.54,7.9-8.58,7.21-4.86-5.22-5.81-9.62c-.82-3.68-1.64-7.49-4-7.85s-4.54,3-6.31,6.17-4.54,7.9-8.58,7.22-4.86-5.22-5.81-9.63c-.82-3.67-1.63-7.49-4-7.9s-4.54,3-6.31,6.18c-2.32,3.9-4.77,7.85-8.58,7.26a1.18,1.18,0,0,1-1-1.31,1.14,1.14,0,0,1,1.29-1h0c2.31.41,4.54-3,6.31-6.17s4.54-7.86,8.62-7.22,4.82,5.22,5.81,9.62c.78,3.68,1.64,7.49,4,7.9s4.54-3,6.31-6.17c2.32-3.9,4.77-7.85,8.58-7.26s4.86,5.22,5.81,9.62,1.64,7.49,3.95,7.9,4.54-3,6.31-6.17,4.54-7.9,8.58-7.22,4.86,5.17,5.81,9.62c.82,3.68,1.63,7.49,4,7.85a1.14,1.14,0,1,1,0,2.27h0Z" transform="translate(0 -0.02)" fill="#35434f" stroke="#35434f" stroke-width="2"/><path d="M350.06,595a1.1,1.1,0,0,1-.86-.41c-1.14-1.31,0-3,.45-4.27.27-.5.82-1.45.73-1.72a7.67,7.67,0,0,0-1.77.45c-1.46.46-3.18,1.05-4.32-.27s0-2.95.5-4.27a5.68,5.68,0,0,0,.73-1.72,6.31,6.31,0,0,0-1.82.45c-1.4.46-3.17,1-4.26-.32s0-2.95.5-4.22a5.84,5.84,0,0,0,.72-1.77,6,6,0,0,0-1.81.46c-1.41.45-3.18,1-4.27-.28a1.13,1.13,0,0,1-.05-1.6,1.14,1.14,0,0,1,1.61,0h0a1.4,1.4,0,0,1,.16.2,5.72,5.72,0,0,0,1.82-.45c1.41-.45,3.18-1,4.27.32s0,3-.46,4.22c-.27.55-.81,1.5-.72,1.77a8,8,0,0,0,1.81-.45c1.41-.46,3.13-1.05,4.27.27s0,2.95-.5,4.27a5.68,5.68,0,0,0-.73,1.72,5.72,5.72,0,0,0,1.82-.45c1.41-.46,3.18-1,4.27.32s.22,2.9-.5,4.22a5.39,5.39,0,0,0-.73,1.77,1.09,1.09,0,0,1,.05,1.54l-.05,0a1.31,1.31,0,0,1-.86.22Z" transform="translate(0 -0.02)" fill="#35434f" stroke="#35434f" stroke-width="2"/><path d="M639.67,1087.11h0a1.13,1.13,0,0,1-.91-1.31c.45-2.45,3.22-3,5.67-3.45,1.77-.36,3.77-.77,3.9-1.68s-1.5-2-3-3-4.53-2.87-4-5.27,3.22-3,5.67-3.45c1.77-.36,3.77-.77,3.9-1.68s-1.54-2-3-3-4.54-2.86-4-5.26,3.22-3,5.67-3.45,3.77-.77,3.9-1.68-1.54-2-3-3-4.54-2.86-4-5.31a1.13,1.13,0,0,1,1.32-.91,1.23,1.23,0,0,1,.91,1.36c0,.91,1.54,2,3,2.95s4.54,2.86,4,5.27-3.23,3-5.68,3.5c-1.77.31-3.72.72-3.9,1.63s1.55,2,3,3,4.54,2.86,4,5.31-3.22,3-5.67,3.45-3.72.73-3.9,1.64,1.54,2,3,3,4.54,2.86,4.09,5.26-3.27,3-5.72,3.5c-1.77.32-3.73.73-3.9,1.64A1.14,1.14,0,0,1,639.67,1087.11Z" transform="translate(0 -0.02)" fill="#35434f" stroke="#35434f" stroke-width="2"/><path d="M601.66,1007.85h0a1.11,1.11,0,0,1-.95-1.28h0v0c0-.27-1.27-1-1.72-1.32-1.41-.77-3.14-1.81-2.86-3.58s2.22-2.27,3.76-2.64c.55,0,2-.45,2.05-.77s-1.27-1-1.73-1.31c-1.36-.78-3.08-1.82-2.81-3.59s2.18-2.27,3.77-2.63c.5,0,2-.46,2-.73s-1.32-1.09-1.73-1.31c-1.4-.82-3.13-1.82-2.86-3.64s2.23-2.27,3.77-2.63c.5,0,2-.45,2.05-.73a1.15,1.15,0,0,1,2.27.37h0c-.28,1.77-2.23,2.22-3.77,2.58-.5,0-2.05.46-2.09.78s1.32,1,1.77,1.31c1.36.77,3.09,1.82,2.81,3.59s-2.18,2.27-3.76,2.63c-.5,0-2,.45-2,.73s1.32,1.09,1.73,1.31c1.4.82,3.13,1.82,2.86,3.63s-2.23,2.27-3.77,2.64c-.55,0-2,.45-2,.72s1.22,1,1.72,1.32c1.36.82,3.09,1.82,2.82,3.63A1.13,1.13,0,0,1,601.66,1007.85Z" transform="translate(0 -0.02)" fill="#35434f" stroke="#35434f" stroke-width="2"/><path d="M171.33,1015.71a14,14,0,0,1-8-4.77c-2.63-2.4-5.35-4.85-7.35-3.9a1.08,1.08,0,0,1-1.47-.47h0l0-.07a1.12,1.12,0,0,1,.5-1.5c3.4-1.64,6.67,1.36,9.9,4.26s5.35,4.9,7.35,4,1.73-4.54,1.46-8.21c-.32-4.32-.64-8.81,2.72-10.44s6.72,1.36,9.9,4.31,5.4,4.86,7.4,3.9,1.68-4.54,1.45-8.22c-.32-4.54-.63-8.8,2.73-10.44s6.67,1.41,9.9,4.54,5.4,4.86,7.4,3.9,1.72-4.54,1.45-8.22c-.32-4.31-.64-8.8,2.72-10.44a1.15,1.15,0,0,1,1.53.51l0,0a1.09,1.09,0,0,1-.48,1.46h0l-.07,0c-2,.95-1.72,4.54-1.45,8.21.32,4.32.63,8.81-2.77,10.45s-6.67-1.37-9.9-4.27-5.36-4.9-7.35-4-1.73,4.54-1.46,8.22c.32,4.53.64,8.8-2.77,10.44s-6.67-1.37-9.85-4.27-5.4-4.9-7.4-3.95-1.72,4.54-1.45,8.22c.32,4.54.64,8.8-2.72,10.44a4.66,4.66,0,0,1-2,.22Z" transform="translate(0 -0.02)" fill="#35434f" stroke="#35434f" stroke-width="2"/><path d="M547.3,1250.17a1.14,1.14,0,0,1-.13-2.27c2.72-.28,4-4.54,5.17-8.63s2.86-9.81,7.13-10.21,6.63,4.22,9.08,8.67,4,7.8,6.72,7.49,4-4.54,5.17-8.63c1.41-4.81,2.86-9.8,7.08-10.21s6.67,4.17,9.08,8.67c1.95,3.81,3.9,7.67,6.72,7.44s3.95-4.54,5.13-8.58c1.41-4.85,2.86-9.85,7.13-10.26s6.62,4.23,9.08,8.72c2,3.77,3.94,7.72,6.67,7.44a1.15,1.15,0,0,1,1.22,1.06,1.13,1.13,0,0,1-1,1.21c-4.26.37-6.62-4.22-9.07-8.71-2-3.77-4-7.67-6.68-7.45s-3.95,4.54-5.17,8.63-2.86,9.8-7.08,10.21-6.63-4.22-9.08-8.67-4-7.67-6.72-7.44-4,4.54-5.13,8.58c-1.41,4.81-2.86,9.8-7.13,10.21s-6.62-4.18-9.07-8.67c-2-3.77-3.95-7.72-6.72-7.44s-4,4.53-5.18,8.57c-1.4,4.86-2.86,9.85-7.13,10.26Z" transform="translate(0 -0.02)" fill="#35434f" stroke="#35434f" stroke-width="2"/><path d="M386.45,1262.19a1.13,1.13,0,0,1-1.14-1c0-.73-1.82-1.27-3.18-1.68-2.18-.68-4.54-1.41-4.81-3.68s2.09-3.4,4.13-4.54c1.32-.63,2.9-1.45,2.86-2.17s-1.82-1.28-3.22-1.73c-2.14-.64-4.54-1.41-4.54-3.68s2.09-3.4,4.13-4.54c1.27-.63,2.9-1.45,2.86-2.17s-1.82-1.28-3.22-1.73c-2.14-.64-4.54-1.41-4.54-3.68s2.09-3.4,4.13-4.54c1.27-.63,2.9-1.45,2.86-2.17a1.14,1.14,0,1,1,2.27,0c0,2.22-2.13,3.4-4.13,4.53-1.32.64-3,1.46-2.9,2.18s1.81,1.27,3.22,1.73c2.18.63,4.54,1.41,4.81,3.68s-2.09,3.4-4.13,4.53c-1.31.64-3,1.46-2.9,2.18s1.82,1.27,3.22,1.73c2.18.63,4.54,1.41,4.82,3.68s-2.09,3.4-4.13,4.53c-1.32.64-3,1.46-2.86,2.23s1.77,1.27,3.17,1.68c2.18.68,4.54,1.41,4.82,3.68a1.14,1.14,0,0,1-1,1.22h0Z" transform="translate(0 -0.02)" fill="#35434f" stroke="#35434f" stroke-width="2"/><path d="M750.92,931.62V929.1c-1.42-.53-2.91-1-3.94.22-1.18,1.41-.41,3.14.22,4.54.23.55.91,1.68.64,1.82s-1.32-.32-1.91-.55c-1.59-.54-3.13-1.4-4.54,0s-.63,3.14,0,4.54a9.83,9.83,0,0,1,.64,1.82l0,0a1.14,1.14,0,0,0,0,1.6,1.3,1.3,0,0,0,.77.32,1.17,1.17,0,0,0,.82-.28c1.45-1.45.63-3.17,0-4.54a5.87,5.87,0,0,1-.64-1.86c.27-.13,1.32.32,1.91.55,1.58.54,3.31,1.45,4.54,0s.4-3.18-.23-4.54a1.11,1.11,0,1,1,1.27-1.32Z" transform="translate(0 -0.02)" fill="#35434f" stroke="#35434f" stroke-width="2"/><path d="M417.76,553.87a1,1,0,0,1-.73-.27c-4.54-3.72-2.22-10.71,0-17.52,2-6,4-12.26.68-15s-9.08.37-14.7,3.4-12.71,6.9-17.2,3.18-2.23-10.76,0-17.52c1.95-6,4-12.3.68-15.07s-9.08.36-14.71,3.4-12.71,6.9-17.2,3.18-2.22-10.76,0-17.53c1.95-6,4-12.29.68-15.07s-9.08.37-14.71,3.4-12.71,6.9-17.25,3.14a1.16,1.16,0,0,1-.12-1.62,1.15,1.15,0,0,1,1.61-.12h0c3.32,2.77,9.08-.36,14.67-3.4s12.75-6.9,17.25-3.18,2.22,10.76,0,17.52-4,12.35-.69,15.08,9.08-.37,14.67-3.4,12.75-6.9,17.25-3.14,2.22,10.72,0,17.48-4,12.3-.68,15.07,9.07-.36,14.7-3.4,12.71-6.9,17.2-3.18,2.23,10.76,0,17.53c-1.95,6-4,12.3-.68,15.07a1.21,1.21,0,0,1-.13,1.72,1.29,1.29,0,0,1-.59.28Z" transform="translate(0 -0.02)" fill="#35434f" stroke="#35434f" stroke-width="2"/><path d="M750.92,1182a2.6,2.6,0,0,0-1.85-1.06c-1.68-.13-2.55,1.73-3.18,3.18-.23.54-.73,1.86-1,1.77A3.11,3.11,0,0,1,744,1184c-.55-1.45-1.23-3.36-3-3.31s-2.54,1.72-3.18,3.18c-.23.54-.68,1.81-1,1.81a5.47,5.47,0,0,1-.91-1.86c-.54-1.45-1.23-3.31-3-3.31a1.19,1.19,0,0,0-1.18,1.13,1.15,1.15,0,0,0,1.09,1.14c.32.14.73,1.27,1,1.86.55,1.45,1.23,3.31,3,3.31s2.5-1.77,3.08-3.17c.28-.59.69-1.91,1-1.82s.73,1.27,1,1.82c.55,1.5,1.23,3.31,3,3.31s2.5-1.77,3.13-3.18c.23-.54.68-1.81,1-1.81a5.29,5.29,0,0,1,.91,1.86,9.14,9.14,0,0,0,1.08,2.25Z" transform="translate(0 -0.02)" fill="#35434f" stroke="#35434f" stroke-width="2"/><path d="M301.89,524.73h-.37c-2.09-.63-2.27-3.09-2.4-5.22,0-1.27,0-3-.87-3.22s-1.72,1.18-2.54,2.18-2.9,3.54-5,2.9-2.27-3.08-2.45-5.26c0-1.27,0-3-.82-3.23s-1.72,1.18-2.54,2.18-2.9,3.54-5,2.9-2.27-3.08-2.45-5.26c0-1.27,0-3-.87-3.23s-1.72,1.18-2.54,2.18-2.9,3.59-5,2.9a1.14,1.14,0,0,1,.68-2.18h0c.64,0,1.72-1.18,2.54-2.18s2.9-3.54,5-2.9,2.27,3.09,2.46,5.27c0,1.27,0,3,.86,3.22s1.72-1.18,2.54-2.18,2.9-3.54,5-2.9,2.27,3.09,2.41,5.22c0,1.32.23,3.09.86,3.27s1.73-1.18,2.54-2.18,2.9-3.58,5-2.9,2.27,3.09,2.4,5.22c0,1.31,0,3,.87,3.27a1.08,1.08,0,0,1,.74,1.34h0l0,.06A1,1,0,0,1,301.89,524.73Z" transform="translate(0 -0.02)" fill="#35434f" stroke="#35434f" stroke-width="2"/><path d="M525,801.63a12.09,12.09,0,0,1-6.26-3.31c-2-1.68-4.18-3.4-5.5-2.68a1.13,1.13,0,0,1-1.33-1.83.82.82,0,0,1,.2-.12c2.68-1.5,5.54.81,8.08,2.86s4.17,3.36,5.54,2.63,1-3.5.59-6.13-1-6.85,1.72-8.35,5.54.82,8.08,2.86,4.18,3.36,5.54,2.63,1-3.5.59-6.12-.91-6.86,1.72-8.36,5.54.78,8.08,2.82,4.23,3.4,5.54,2.63,1-3.45.64-6.08-1-6.9,1.72-8.4a1.15,1.15,0,0,1,1.14,2c-1.36.72-1,3.45-.64,6.08s.91,6.9-1.72,8.4-5.54-.82-8.08-2.86-4.22-3.36-5.54-2.63-1,3.5-.59,6.13.91,6.85-1.77,8.35-5.54-.82-8.08-2.86-4.22-3.36-5.49-2.63-1,3.5-.64,6.12,1,6.86-1.72,8.36a3.44,3.44,0,0,1-1.82.5Z" transform="translate(0 -0.02)" fill="#35434f" stroke="#35434f" stroke-width="2"/><path d="M525.73,1107h-.41c-2.59-1-2.63-4.22-2.68-7s0-4.54-1.18-5-2.68,1.28-4.22,3-4.09,4.53-6.67,3.5-2.59-4.22-2.64-7.09,0-4.53-1.22-4.94-2.68,1.27-4.18,2.9-4.13,4.54-6.67,3.54-2.64-4.22-2.68-7.08,0-4.54-1.18-5-2.72,1.31-4.22,3-4.09,4.54-6.68,3.5a1.14,1.14,0,0,1-.68-1.45h0a1.22,1.22,0,0,1,1.5-.68c1.09.45,2.68-1.28,4.18-2.91s4.13-4.54,6.67-3.5,2.64,4.18,2.68,7,0,4.54,1.23,5,2.67-1.27,4.17-3,4.09-4.54,6.68-3.5,2.63,4.22,2.67,7.08,0,4.54,1.18,5,2.68-1.27,4.23-2.9,4.08-4.54,6.67-3.54,2.59,4.22,2.63,7.08,0,4.54,1.18,4.95a1.17,1.17,0,0,1,.68,1.5A1.11,1.11,0,0,1,525.73,1107Z" transform="translate(0 -0.02)" fill="#35434f" stroke="#35434f" stroke-width="2"/><path d="M88.72,886.2c-2.72,0-4.54-3-6.35-5.77s-3.09-4.94-4.82-4.53a1.13,1.13,0,0,1-.4-2.23h0c3.13-.59,5.17,2.59,7.12,5.67s3.13,4.95,4.81,4.54,2.27-3.22,2.82-6.08c.72-3.59,1.45-7.26,4.54-7.85s5.17,2.58,7.12,5.67,3.14,5,4.86,4.54,2.23-3.27,2.82-6.08c.68-3.59,1.45-7.31,4.53-7.9s5.18,2.58,7.13,5.67,3.18,5,4.86,4.54,2.22-3.22,2.81-6.08c.73-3.59,1.45-7.27,4.54-7.86a1.09,1.09,0,0,1,1.3.83s0,.05,0,.08a1.15,1.15,0,0,1-.91,1.32c-1.68.31-2.27,3.22-2.82,6.08-.72,3.59-1.45,7.26-4.54,7.85s-5.22-2.59-7.17-5.67-3.13-5-4.81-4.54-2.27,3.27-2.81,6.08c-.73,3.59-1.46,7.31-4.54,7.9s-5.22-2.58-7.17-5.67-3.18-5-4.82-4.54-2.27,3.22-2.81,6.08c-.73,3.59-1.45,7.27-4.54,7.86Z" transform="translate(0 -0.02)" fill="#35434f" stroke="#35434f" stroke-width="2"/><path d="M669.22,663.77a1.17,1.17,0,0,1-1.09-.82c-.77-2.72-5.31-3.17-9.67-3.63-5.13-.5-10.44-1-11.67-5.26s3-7.45,7.08-10.63,7.09-5.49,6.31-8.21-5.31-3.18-9.71-3.63c-5.13-.5-10.44-1.05-11.62-5.27s3-7.44,7.08-10.62,7.08-5.49,6.26-8.22-5.31-3.17-9.66-3.58c-5.13-.55-10.44-1-11.67-5.27s3-7.44,7.13-10.62,7.08-5.49,6.26-8.22a1.13,1.13,0,0,1,2.17-.64v.05c1.23,4.18-3,7.45-7.08,10.62s-7.08,5.45-6.31,8.18,5.31,3.17,9.71,3.63c5.13.5,10.44,1,11.67,5.22s-3,7.49-7.13,10.66-7,5.45-6.26,8.22,5.31,3.18,9.67,3.59c5.13.54,10.44,1,11.66,5.26s-3,7.49-7.08,10.62-7.08,5.5-6.31,8.27,5.31,3.17,9.72,3.63c5.13.5,10.44,1,11.62,5.22a1.09,1.09,0,0,1-.69,1.38l-.08,0Z" transform="translate(0 -0.02)" fill="#35434f" stroke="#35434f" stroke-width="2"/><path d="M495.54,879.57a1,1,0,0,1-.82-.36c-2.86-3.09-.63-7.72,1.5-12.21s3.68-7.76,1.86-9.76-5.9-.41-9.85,1.13-9.44,3.59-12.34.5-.64-7.76,1.5-12.25c1.81-3.82,3.67-7.76,1.86-9.72s-5.9-.41-9.85,1.09c-4.54,1.77-9.44,3.63-12.35.5s-.64-7.76,1.5-12.25c1.82-3.82,3.68-7.72,1.86-9.72s-6-.45-9.85,1.09c-4.54,1.77-9.49,3.63-12.35.5a1.1,1.1,0,0,1,0-1.54h0l0-.05a1.14,1.14,0,0,1,1.6,0l0,0c1.82,2,5.9.41,9.85-1.09,4.54-1.77,9.45-3.63,12.3-.5s.69,7.76-1.45,12.26-3.68,7.76-1.86,9.71,5.9.46,9.85-1.09c4.54-1.77,9.44-3.63,12.35-.5s.63,7.76-1.5,12.26c-1.82,3.81-3.68,7.76-1.86,9.71s5.9.41,9.85-1.09,9.44-3.63,12.34-.54.64,7.76-1.5,12.25-3.72,7.77-1.86,9.72a1.17,1.17,0,0,1,0,1.63A1.11,1.11,0,0,1,495.54,879.57Z" transform="translate(0 -0.02)" fill="#35434f" stroke="#35434f" stroke-width="2"/><path d="M234.77,1115.84a1.15,1.15,0,0,1-.73-.27c-2.59-2.18-1.36-6,0-9.62,1-3,2-6,.5-7.22s-4.22.36-6.95,1.86-6.9,3.72-9.53,1.55-1.36-6,0-9.63c.95-3,1.95-6,.5-7.17s-4.22.32-6.94,1.82c-3.4,1.81-6.9,3.72-9.54,1.54s-1.36-6,0-9.62c1-2.95,1.95-6,.55-7.22s-4.27.36-7,1.81c-3.4,1.87-6.9,3.77-9.54,1.59a1.14,1.14,0,0,1-.16-1.61,1.16,1.16,0,0,1,1.62-.16c1.45,1.18,4.26-.32,7-1.81s6.9-3.73,9.53-1.55,1.36,6,0,9.63-2,6-.54,7.21,4.26-.36,7-1.81,6.9-3.77,9.48-1.59,1.41,6,0,9.62-1.95,6-.5,7.22,4.23-.36,7-1.82,6.9-3.76,9.49-1.58,1.4,5.94,0,9.62c-1,2.95-2,6-.55,7.17a1.17,1.17,0,0,1,0,1.63,1.31,1.31,0,0,1-.63.41Z" transform="translate(0 -0.02)" fill="#35434f" stroke="#35434f" stroke-width="2"/><path d="M568.39,396.18a5,5,0,0,1-2.45-.68c-3.45-2.05-2.73-6.86-2.05-11.53.59-3.9,1.23-8-.95-9.08s-5.36,1.22-8.49,3.62-7.53,5.86-11,3.82-2.72-6.86-2-11.49c.59-3.9,1.18-7.94-.95-9.08s-5.36,1.27-8.49,3.68-7.54,5.86-11,3.81-2.73-6.85-2-11.48c.63-3.9,1.22-7.95-.91-9.08a1.13,1.13,0,0,1,.93-2.07.82.82,0,0,1,.2.12c3.5,2,2.77,6.85,2,11.53-.59,3.85-1.23,7.9.9,9.08s5.4-1.23,8.49-3.68,7.58-5.86,11-3.81,2.77,6.85,2,11.53c-.59,3.85-1.23,7.9,1,9.08s5.36-1.23,8.49-3.64,7.53-5.9,11-3.85,2.72,6.85,2,11.53c-.59,3.9-1.22,7.94.91,9.07s5.4-1.27,8.54-3.67,7.58-5.86,11-3.82a1.14,1.14,0,0,1-1.14,2c-2.18-1.27-5.4,1.22-8.53,3.67A16.39,16.39,0,0,1,568.39,396.18Z" transform="translate(0 -0.02)" fill="#35434f" stroke="#35434f" stroke-width="2"/><path d="M422.25,372.8a1.17,1.17,0,0,1-.95-.5c-2.32-3.63.72-7.9,3.67-12s5.09-7.17,3.59-9.53-5.9-1.46-10.17-.64c-5,1-10.12,2-12.48-1.59s.73-7.94,3.63-12.07,5.08-7.17,3.59-9.49-5.9-1.45-10.13-.63c-5,1-10.16,2-12.48-1.64s.68-7.9,3.63-12.07c2.5-3.5,5.09-7.18,3.54-9.49s-5.9-1.5-10.12-.64c-5,1-10.17,2-12.48-1.63a1.14,1.14,0,0,1,1.9-1.27c1.5,2.36,5.9,1.5,10.13.68,5-1,10.17-2,12.48,1.63s-.68,7.9-3.59,12-5.08,7.17-3.58,9.54,5.9,1.45,10.12.63c5-1,10.17-2,12.48,1.63s-.68,7.9-3.63,12-5.08,7.18-3.58,9.54,5.9,1.45,10.16.59c4.95-1,10.13-2,12.49,1.63s-.73,7.9-3.68,12-5.08,7.17-3.59,9.53a1.09,1.09,0,0,1-.27,1.52l0,0A1,1,0,0,1,422.25,372.8Z" transform="translate(0 -0.02)" fill="#35434f" stroke="#35434f" stroke-width="2"/><path d="M221.26,464a1.27,1.27,0,0,1-1.09-.68c-1.68-4.09-8.4-3.95-14.93-3.81-7.22,0-14.71.27-17.07-5.22s3-10.76,8.17-15.85,9.4-9.08,7.68-13.39-8.45-3.95-14.94-3.81c-7.22,0-14.75.32-17.07-5.17s3-10.76,8.17-15.85,9.31-9.4,7.49-13.39-8.4-3.95-14.89-3.81c-7.26,0-14.75.32-17.06-5.18s3-10.71,8.17-15.84,9.4-9.08,7.67-13.3a1.18,1.18,0,0,1,.59-1.5,1.15,1.15,0,0,1,1.5.58h0c2.31,5.5-3,10.76-8.17,15.84s-9.4,9.08-7.67,13.35,8.44,4,14.93,3.77c7.22,0,14.71-.27,17.07,5.17s-3,10.76-8.17,15.89-9.4,9.08-7.72,13.35,8.44,3.9,14.93,3.77c7.27,0,14.76-.28,17.07,5.22s-3,10.75-8.17,15.84-9.4,9.08-7.67,13.62,8.44,3.94,14.93,3.81c7.27,0,14.76-.32,17.12,5.17a1.18,1.18,0,0,1-.64,1.5Z" transform="translate(0 -0.02)" fill="#35434f" stroke="#35434f" stroke-width="2"/><path d="M357.05,863.14h0a1.14,1.14,0,0,1-1-1.26h0c.78-6.36,8.63-8.49,16.26-10.49,6.85-1.86,14-3.77,14.57-8.58s-5.9-8.4-12.17-11.8c-6.94-3.77-14.07-7.62-13.34-14s8.62-8.49,16.25-10.49c6.9-1.86,14-3.77,14.57-8.63s-5.9-8.35-12.17-11.75-14.07-7.67-13.3-14,8.63-8.49,16.25-10.53c6.86-1.86,14-3.77,14.58-8.63s-5.9-8.4-12.17-11.8-14.07-7.67-13.3-14a1.14,1.14,0,0,1,2.27-.09,1.12,1.12,0,0,1-.05.36c-.54,4.86,5.9,8.35,12.17,11.76s14.07,7.67,13.3,14.07-8.62,8.49-16.2,10.53-14,3.77-14.57,8.63,5.86,8.35,12.12,11.75c6.94,3.77,14.07,7.68,13.35,14s-8.63,8.49-16.26,10.53c-6.9,1.82-14,3.72-14.57,8.58s5.9,8.4,12.17,11.76,14.07,7.67,13.3,14-8.63,8.49-16.21,10.53c-6.9,1.82-14,3.73-14.57,8.58a1.17,1.17,0,0,1-1.27,1Z" transform="translate(0 -0.02)" fill="#35434f" stroke="#35434f" stroke-width="2"/><path d="M162.79,93.54a1.2,1.2,0,0,1-1.14-.91c-.59-3-5.35-3.9-10-4.77-5.4-1-10.95-2-11.85-6.53s4.08-7.68,8.62-10.58,8-5.22,7.4-8.26-5.35-3.86-10-4.54c-5.4-1-10.94-2-11.85-6.54s3.86-7.58,8.44-10.58,8-5.22,7.4-8.21-5.36-3.9-10-4.54c-5.4-1-10.94-2-11.84-6.54S131.87,14,136.46,11s7.85-5.45,7.44-8.63A1.13,1.13,0,0,1,144.75,1h0a1.22,1.22,0,0,1,1.36.91c.86,4.54-3.86,7.58-8.44,10.57s-8.22,5.18-7.4,8.22,5.4,3.86,10,4.54c5.35,1,10.94,2,11.8,6.54s-3.82,7.58-8.4,10.57-8.26,5.4-7.67,8.58,5.4,3.9,10,4.54c5.35,1,10.89,2,11.8,6.54s-3.81,7.58-8.39,10.58-8,5.22-7.45,8.21,5.4,3.9,10,4.77c5.36,1,10.94,2,11.8,6.54A1.13,1.13,0,0,1,163,93.5h0Z" transform="translate(0 -0.02)" fill="#35434f" stroke="#35434f" stroke-width="2"/><path d="M478.88,484.83a1.13,1.13,0,0,1-1.09-.91c-.46-2.36-4.31-3.18-8.08-3.9-4.54-.91-9.08-1.86-9.9-5.76s3.31-6.4,7.22-9.08,6.58-4.18,6.17-6.54-4.54-3.13-8.08-3.9c-4.54-.91-9.08-1.86-9.9-5.72s3.31-6.4,7.22-8.85c3.22-2,6.58-4.18,6.17-6.54s-4.54-3.13-8.12-3.9c-4.54-.91-9.08-1.81-9.85-5.72s3.31-6.4,7.22-9.08c3.22-2,6.58-4.13,6.17-6.49a1.09,1.09,0,0,1,.82-1.3h.09a1.12,1.12,0,0,1,1.31.9c.73,3.86-3.31,6.4-7.21,8.86s-6.59,4.13-6.18,6.49,4.54,3.13,8.08,3.9c4.54.91,9.08,1.86,9.9,5.72s-3.31,6.4-7.22,8.85c-3.22,2-6.58,4.18-6.17,6.54s4.31,3.13,8.08,3.9c4.54.9,9.08,1.86,9.9,5.72s-3.31,6.4-7.22,9.08-6.58,4.17-6.17,6.53,4.54,3.18,8.12,3.95c4.54.91,9.08,1.82,9.85,5.72a1.13,1.13,0,0,1-.9,1.32Z" transform="translate(0 -0.02)" fill="#35434f" stroke="#35434f" stroke-width="2"/><path d="M8.37,869.59a1,1,0,0,1-.59,0A1.14,1.14,0,0,1,7.42,868c1.73-2.63,5.45-1.86,8.76-1.22s5.49,1.13,6.36,0-.73-3.68-2.32-6-4.13-5.86-2.41-8.49,5.45-1.86,8.77-1.23,5.49,1.14,6.35,0-.77-3.67-2.36-5.94-4.08-5.86-2.36-8.49,5.45-1.86,8.72-1.23,5.53,1.14,6.4-.22-.78-3.68-2.32-5.95-4.13-5.85-2.41-8.49a1.14,1.14,0,0,1,1.56-.38,1.12,1.12,0,0,1,.38,1.55l0,.06c-.86,1.36.77,3.72,2.36,5.94s4.08,5.9,2.36,8.54-5.45,1.86-8.76,1.18-5.49-1.09-6.36.23.73,3.67,2.32,5.94,4.13,5.86,2.4,8.49-5.44,1.86-8.71,1.18-5.54-1.09-6.4.23.77,3.68,2.36,6,4.08,5.85,2.36,8.48-5.45,1.87-8.72,1.18-5.49-1.09-6.4,0a1.15,1.15,0,0,1-1,.19Z" transform="translate(0 -0.02)" fill="#35434f" stroke="#35434f" stroke-width="2"/><path d="M418.29,1125.92h-.46a1.13,1.13,0,0,1-.77-1.4h0c1-3.32-3.22-6.68-7.31-10s-9.48-7.58-8-12.39,7.58-5.31,13.62-5.81c5.17-.45,10.57-.95,11.57-4.26s-3.22-6.68-7.31-9.9-9.53-7.59-8.08-12.4,7.63-5.31,13.62-5.81c5.22-.45,10.58-.9,11.58-4.22s-3.23-6.67-7.31-9.94-9.49-7.58-8.08-12.35,7.63-5.31,13.62-5.81c5.22-.45,10.57-.9,11.57-4.22a1.14,1.14,0,0,1,1.41-.77,1.09,1.09,0,0,1,.8,1.32h0l0,.09c-1.45,4.81-7.58,5.31-13.61,5.85-5.18.41-10.58.91-11.58,4.18s3.22,6.67,7.31,9.94,9.53,7.58,8.08,12.35-7.63,5.31-13.62,5.85c-5.17.46-10.58.91-11.58,4.22s3.23,6.68,7.31,9.9,9.54,7.59,8.08,12.4-7.62,5.31-13.62,5.81c-5.22.45-10.57,1-11.57,4.26s3.22,6.68,7.31,9.94,9.48,7.59,8,12.35a1.14,1.14,0,0,1-.95.77Z" transform="translate(0 -0.02)" fill="#35434f" stroke="#35434f" stroke-width="2"/><path d="M750.92,287.56c-4,2.07-8.13,3.89-10.34,1.9a1.14,1.14,0,0,0-1.59,0,1.17,1.17,0,0,0,0,1.63c3.25,2.7,7.58,1,11.93-1.07Z" transform="translate(0 -0.02)" fill="#35434f" stroke="#35434f" stroke-width="2"/><path d="M22.54,605.8c-1.95-.36-2.59-3.72-3.22-6.95-.82-4-1.73-8.12-5.09-8.76s-6.13,3.5-7.9,6.31S2.86,601.83,1,601.74V604c3.06,0,5.59-3.75,7.24-6.37,1.77-2.81,3.63-5.68,5.59-5.31s2.63,3.72,3.26,6.94c.78,4,1.54,8.13,5,8.76l.41.05a1.14,1.14,0,1,0,0-2.27Z" transform="translate(0 -0.02)" fill="#35434f" stroke="#35434f" stroke-width="2"/><path d="M87.09,1154.52a1.13,1.13,0,0,1-1.09-.82c-.28-.86-2.23-1-4-1.13-2.45-.23-5.22-.41-6-2.77s1.45-4,3.36-5.58,2.91-2.32,2.63-3.18-2.22-1-4-1.14c-2.45,0-5.22-.41-5.94-2.72s1.45-4,3.36-5.58,2.9-2.32,2.63-3.18-2.22-1-4-1.14c-2.45,0-5.22-.4-5.9-2.72s1.41-4.08,3.36-5.63,2.86-2.31,2.59-3.13a1.14,1.14,0,1,1,2.18-.68c.72,2.31-1.46,4.08-3.36,5.58s-2.86,2.32-2.64,3.18,2.23,1,4,1.13c2.45,0,5.22.41,6,2.73s-1.45,4.08-3.36,5.63-2.86,2.31-2.63,3.13,2.22,1,4,1.13c2.45.23,5.22.46,5.94,2.77s-1.45,4-3.36,5.59-2.9,2.31-2.63,3.17,2.22,1,4,1.14c2.45,0,5.22.41,6,2.72a1.22,1.22,0,0,1-.78,1.45Z" transform="translate(0 -0.02)" fill="#35434f" stroke="#35434f" stroke-width="2"/><path d="M47.87,761.46a1.1,1.1,0,0,1-1-1.73c2.32-3.5-1.31-8.71-4.81-13.61s-8-11.58-4.86-16.35,10.17-3.31,16.94-1.9c6,1.27,12.3,2.59,14.57-.91s-1.32-8.72-4.81-13.62-8-11.57-4.86-16.34,10.17-3.27,16.93-1.86c6,1.27,12.26,2.54,14.57-.91s-1.36-8.71-4.86-13.61c-4-5.72-8-11.58-4.85-16.35S91,661,97.8,662.41c6,1.27,12.25,2.59,14.57-.9a1.12,1.12,0,0,1,1.88,1.23l0,0c-3.13,4.54-10.12,3.26-16.89,1.86-6-1.27-12.3-2.59-14.57.91s1.32,8.67,4.82,13.61,8,11.58,4.85,16.35-10.12,3.26-16.88,1.85c-6-1.27-12.3-2.59-14.57.91s1.32,8.72,4.81,13.62,8,11.57,4.86,16.34-10.17,3.31-16.93,1.86c-6-1.22-12.26-2.54-14.57.95s1.31,8.72,4.81,13.62,8,11.58,4.85,16.3A1.08,1.08,0,0,1,47.87,761.46Z" transform="translate(0 -0.02)" fill="#35434f" stroke="#35434f" stroke-width="2"/><path d="M750.92,689v-2.85c-2.71-1.4-6.74-1-10.71-.67-4.63.45-9.44.91-10.85-1.82s1.36-5.82,4.9-9.9,7.27-8.3,5.18-12.39-7.67-3.59-13.08-3.09c-4.67.45-9.53.91-10.89-1.82s1.32-5.81,4.9-9.9,7.26-8.3,5.18-12.39-7.68-3.58-13.08-3.08c-4.67.4-9.48.86-10.89-1.87a1.13,1.13,0,0,0-2,1c2.09,4.08,7.67,3.58,13.07,3.08,4.68-.45,9.53-.81,10.9,1.87s-1.32,5.76-4.9,9.85-7.27,8.35-5.18,12.43,7.67,3.54,13.07,3c4.68-.4,9.53-.81,10.9,1.87s-1.32,5.76-4.9,9.85-7.31,8.3-5.22,12.39,7.72,3.58,13.12,3.08C744.72,687.31,749.2,686.9,750.92,689Z" transform="translate(0 -0.02)" fill="#35434f" stroke="#35434f" stroke-width="2"/><path d="M750.92,697.57v-4a35,35,0,0,1-4.53,5.88c-3.59,4.09-7.27,8.31-5.18,12.4a1.14,1.14,0,0,0,1,.59,1,1,0,0,0,.5-.13l0,0a1.09,1.09,0,0,0,.45-1.47c-1.36-2.73,1.32-5.81,4.9-9.9C749.08,699.81,750.05,698.69,750.92,697.57Z" transform="translate(0 -0.02)" fill="#35434f" stroke="#35434f" stroke-width="2"/><path d="M695,1008.76a1.11,1.11,0,0,1-.86-.41c-3.27-4,0-9.53,2.86-14.93,2.68-4.54,5.4-9.63,3.13-12.4s-7.63-1.13-12.8.46-12,3.72-15.21-.27,0-9.54,2.91-14.94c2.63-4.54,5.35-9.62,3.09-12.39s-7.63-1.13-12.76.45c-5.9,1.82-12,3.73-15.25-.27s0-9.58,2.9-14.93,5.36-9.62,3.09-12.44-7.63-1.13-12.8.45c-5.9,1.82-12,3.73-15.25-.27a1.12,1.12,0,0,1,0-1.59,1.09,1.09,0,0,1,1.54,0h0l.05,0c2.27,2.77,7.62,1.14,12.8-.5,5.9-1.81,12-3.72,15.25.28s0,9.57-2.9,15c-2.63,4.53-5.36,9.62-3.09,12.43s7.63,1.14,12.8-.5c5.9-1.81,12-3.72,15.21.28s0,9.57-2.9,14.93-5.36,9.62-3.09,12.44,7.63,1.13,12.8-.5,12-3.72,15.21.27,0,9.58-2.91,14.93-5.35,9.63-3.13,12.44a1.14,1.14,0,0,1,0,1.59,1.41,1.41,0,0,1-.68.41Z" transform="translate(0 -0.02)" fill="#35434f" stroke="#35434f" stroke-width="2"/><path d="M159.32,1139.27a2.82,2.82,0,0,1-2.5-1.14c-1.22-1.67,0-3.67,1.09-5.26s1.5-2.32,1.18-2.77-1.9,0-3,.23c-1.86.45-4.17,1-5.35-.68s0-3.64,1.13-5.27c.59-.91,1.45-2.27,1.14-2.72s-1.91,0-3,0c-1.95.5-4.13,1-5.35-.69s0-3.58,1.13-5.26c.59-.91,1.46-2.27,1.18-2.73a1.12,1.12,0,0,1,1.82-1.31h0c1.23,1.68,0,3.67-1.09,5.26s-1.5,2.32-1.18,2.73,1.91,0,2.95,0c1.86-.46,4.18-1.05,5.36.63s0,3.68-1.09,5.27-1.5,2.31-1.18,2.72,1.91,0,2.95,0c1.86-.45,4.13-1,5.36.64s0,3.68-1.14,5.31c-.59.91-1.45,2.27-1.13,2.72s1.9,0,2.95-.22c1.81-.46,4.13-1,5.35.68a1.14,1.14,0,0,1-1.83,1.36h0l0,0c-.32-.45-1.9,0-2.95.23a15.28,15.28,0,0,1-2.86.32Z" transform="translate(0 -0.02)" fill="#35434f" stroke="#35434f" stroke-width="2"/><path d="M376.38,942.94a.85.85,0,0,1-.59,0c-5-3-3.86-10.26-2.68-17.29,1-6.27,2-12.76-1.64-15s-9.08,1.77-14,5.63-11.53,8.76-16.57,5.76-3.81-10.3-2.67-17.29,2.08-12.8-1.64-15-9.08,1.77-14,5.63-11.53,8.76-16.57,5.76-3.81-10.3-2.68-17.29c1-6.31,2.05-12.8-1.68-15s-9.08,1.77-14,5.63-11.57,8.76-16.57,5.72a1.13,1.13,0,0,1-.4-1.54,1.19,1.19,0,0,1,1.59-.41c3.67,2.23,9.07-1.72,14-5.58s11.53-8.81,16.56-5.77,3.86,10.3,2.73,17.3-2.09,12.8,1.63,15,9.08-1.77,14-5.63,11.53-8.76,16.57-5.77,3.82,10.3,2.68,17.34c-1,6.27-2,12.76,1.63,15s9.08-1.77,14-5.63,11.53-8.76,16.56-5.76S376.47,919,375.33,926c-1,6.31-2.09,12.8,1.64,15a1.24,1.24,0,0,1,.36,1.59A1.11,1.11,0,0,1,376.38,942.94Z" transform="translate(0 -0.02)" fill="#35434f" stroke="#35434f" stroke-width="2"/><path d="M17.51,662.55a3.34,3.34,0,0,1-.73-1.91c-.41-1.5-.86-3.36-2.68-3.59s-2.67,1.5-3.45,2.86c-.27.5-.9,1.82-1.18,1.68a3.37,3.37,0,0,1-.72-1.9c-.41-1.5-.91-3.36-2.68-3.59S3.39,657.6,2.62,659c-.27.55-.86,1.82-1.14,1.68a3.34,3.34,0,0,1-.48-.79v3a1.29,1.29,0,0,0,.21.06c1.76.22,2.67-1.5,3.4-2.86.31-.55.91-1.82,1.18-1.68a3.33,3.33,0,0,1,.77,1.9c.41,1.5.82,3.36,2.63,3.59s2.73-1.5,3.45-2.86c.27-.55.91-1.82,1.18-1.68a3.32,3.32,0,0,1,.73,1.91c.41,1.5.91,3.58,2.68,3.58h.28a1.14,1.14,0,0,0,0-2.27Z" transform="translate(0 -0.02)" fill="#35434f" stroke="#35434f" stroke-width="2"/><path d="M12,1101.78c-3.32,0-5.31-4.9-7.22-9.45A38.55,38.55,0,0,0,1,1084.76v4.13c.68,1.36,1.31,2.85,1.93,4.3,2,5.36,4.54,10.85,9.08,10.85h0a1.14,1.14,0,0,0,0-2.27Z" transform="translate(0 -0.02)" fill="#35434f" stroke="#35434f" stroke-width="2"/><path d="M571.32,180.24a6.41,6.41,0,0,1-3.58-1.05c-4.54-3-3.13-9.57-1.82-16,1.14-5.63,2.32-11.44-.91-13.62s-8.08,1.27-12.8,4.54-10.84,7.58-15.38,4.54-3.14-9.54-1.82-15.94c1.14-5.63,2.32-11.48-.86-13.62s-8.13,1.28-12.85,4.54S510.45,141.2,506,138.2s-3.18-9.53-1.86-15.93c1.18-5.63,2.36-11.44-.87-13.62a1.15,1.15,0,0,1,1.22-1.94l0,0h0c4.53,3,3.13,9.58,1.81,15.94-1.13,5.63-2.36,11.48.86,13.62s8.13-1.27,12.85-4.54,10.85-7.58,15.34-4.54,3.13,9.58,1.86,15.93c-1.18,5.63-2.36,11.49.87,13.62s8.08-1.27,12.8-4.54,10.89-7.58,15.38-4.54,3.14,9.58,1.86,15.93-2.36,11.49.87,13.62,8.12-1.27,12.84-4.54,10.85-7.53,15.39-4.54a1.15,1.15,0,0,1,.29,1.6,1.14,1.14,0,0,1-1.56.31c-3.22-2.13-8.13,1.27-12.85,4.54a24,24,0,0,1-11.8,5.63Z" transform="translate(0 -0.02)" fill="#35434f" stroke="#35434f" stroke-width="2"/><path d="M525.56,1171.27h-.5c-1.86-.36-2.27-2.45-2.59-4.08,0-.78-.41-2.27-.77-2.36s-1.18,1.22-1.59,1.86c-1,1.45-2.09,3.22-4,2.86s-2.27-2.46-2.59-4.13c0-.73-.4-2.27-.77-2.32s-1.22,1.23-1.63,1.86c-.91,1.41-2.09,3.18-3.9,2.86s-2.27-2.45-2.59-4.13c0-.73-.41-2.27-.77-2.31a1.13,1.13,0,1,1,.32-2.24h.09c1.86.36,2.27,2.45,2.59,4.09,0,.77.4,2.27.77,2.36s1.22-1.27,1.59-1.86c1-1.46,2.13-3.23,4-2.86s2.27,2.45,2.58,4.13c0,.72.41,2.22.77,2.31s1.23-1.22,1.64-1.86c.91-1.45,2-3.18,3.95-2.86s2.27,2.45,2.58,4.13c0,.73.41,2.27.78,2.32s1.18-1.23,1.58-1.86c1-1.41,2.09-3.18,3.95-2.82a1.1,1.1,0,0,1,.93,1.23h0a.29.29,0,0,1,0,.09,1.13,1.13,0,0,1-1.31.91c-.46,0-1.23,1.22-1.64,1.86S527.28,1171.27,525.56,1171.27Z" transform="translate(0 -0.02)" fill="#35434f" stroke="#35434f" stroke-width="2"/><path d="M311.7,966.27h0c-2.14,0-2.91-2.4-3.59-4.54-.41-1.18-.95-2.86-1.59-2.86s-1.36,1.55-1.9,2.68c-.87,1.91-2,4.18-4,4s-2.95-2.41-3.64-4.54c-.4-1.23-.95-2.86-1.58-2.9s-1.37,1.54-1.87,2.68c-.9,2-1.86,4.13-4.08,4s-3-2.4-3.63-4.54c-.41-1.18-.95-2.86-1.59-2.86s-1.36,1.55-1.91,2.68c-.86,1.91-1.77,4.13-4,4a1.15,1.15,0,0,1-1.09-1.18h0a1.11,1.11,0,0,1,1.09-1.1h.1c.59,0,1.36-1.54,1.91-2.67.9-2,1.81-4.23,4.08-4s2.95,2.41,3.63,4.54c.41,1.18,1,2.86,1.59,2.86s1.32-1.5,1.86-2.68c.91-1.91,1.86-4.17,4.09-4s2.95,2.4,3.58,4.54c.41,1.18,1,2.81,1.59,2.86h0c.64,0,1.32-1.55,1.86-2.68.91-1.95,1.82-4.22,4.09-4s2.9,2.4,3.58,4.54c.41,1.18,1,2.86,1.59,2.86a1.17,1.17,0,0,1,1.09,1.22,1.13,1.13,0,0,1-1.18,1.09Z" transform="translate(0 -0.02)" fill="#35434f" stroke="#35434f" stroke-width="2"/><path d="M180.36,647.29h0a1.13,1.13,0,0,1-1.05-1.22h0c.32-4.9-6.4-8.08-12.89-11.16s-14.57-6.95-14.16-13.4S160.47,612.43,168,610c6.81-2.22,13.84-4.54,14.16-9.49s-6.4-8.08-12.84-11.16c-7.18-3.4-14.57-6.9-14.17-13.35s8.17-9.08,15.71-11.48c6.81-2.23,13.89-4.54,14.16-9.45s-6.35-8.08-12.84-11.16S157.62,537,158,530.58s8.17-9.08,15.71-11.48,13.89-4.54,14.21-9.45a1,1,0,0,1,1-1h0a1.25,1.25,0,0,1,1.24,1.24c-.41,6.4-8.22,9.07-15.76,11.43-6.81,2.23-13.89,4.54-14.16,9.45s6.36,8.08,12.85,11.16,14.57,6.9,14.16,13.35-8.17,9.08-15.71,11.48c-6.81,2.23-13.89,4.54-14.2,9.45s6.4,8.08,12.89,11.16c7.17,3.4,14.57,6.9,14.16,13.35s-8.22,9.08-15.75,11.48c-6.81,2.27-13.62,4.54-14.16,9.49s6.4,8.13,12.89,11.21c7.17,3.4,14.57,6.9,14.16,13.35a1.13,1.13,0,0,1-1.18,1.09h0Z" transform="translate(0 -0.02)" fill="#35434f" stroke="#35434f" stroke-width="2"/><path d="M310.2,146.65h0c-2,0-2.77-2.27-3.4-4-.31-1-.86-2.45-1.31-2.45s-1.14,1.41-1.55,2.36c-.77,1.68-1.72,3.72-3.72,3.68s-2.77-2.23-3.4-4c-.31-1-.86-2.45-1.31-2.45h0c-.5,0-1.14,1.41-1.55,2.36s-1.68,3.72-3.58,3.72h0c-2,0-2.77-2.22-3.4-3.94-.32-1-.86-2.46-1.36-2.5s-1.09,1.4-1.55,2.36c-.72,1.68-1.63,3.72-3.58,3.72h0a1.14,1.14,0,1,1,0-2.27h.06c.5,0,1.09-1.41,1.54-2.36.73-1.68,1.68-3.73,3.68-3.73s2.81,2.27,3.4,4c.36,1,.91,2.45,1.36,2.45s1.14-1.41,1.54-2.31c.78-1.73,1.68-3.77,3.73-3.73s2.76,2.23,3.39,4c.32.95.87,2.45,1.32,2.45h0c.5,0,1.14-1.41,1.54-2.36.78-1.68,1.77-3.68,3.73-3.68s2.77,2.23,3.4,3.95c.31,1,.86,2.45,1.31,2.5a1.09,1.09,0,0,1,1.09,1.09v.1a1.13,1.13,0,0,1-1.19,1.07h0l-.21,0Z" transform="translate(0 -0.02)" fill="#35434f" stroke="#35434f" stroke-width="2"/><path d="M573.08,560.27a.58.58,0,0,1-.41,0,1.08,1.08,0,0,1-.66-1.39h0l0-.06c1.18-3.13,5.17-3.18,9.07-3.22,3.09,0,6.27,0,6.95-1.82s-1.68-3.86-3.95-5.95-5.72-5.31-4.54-8.44,5.18-3.22,9.08-3.27c3.09,0,6.26,0,6.9-1.81s-1.68-3.86-3.95-5.95-5.72-5.31-4.54-8.44,5.18-3.23,9.08-3.27c3.09,0,6.27,0,7-1.82s-1.68-3.9-4-6-5.72-5.31-4.54-8.44a1.14,1.14,0,0,1,2.22.49,1.51,1.51,0,0,1-.13.33c-.64,1.72,1.68,3.85,3.95,5.94s5.72,5.31,4.53,8.49-5.21,3.18-9.07,3.27c-3.09,0-6.27,0-7,1.77s1.68,3.9,4,6,5.76,5.31,4.54,8.44-5.18,3.23-9.08,3.27c-3,0-6.26,0-6.9,1.77s1.68,3.9,4,6,5.72,5.31,4.54,8.44-5.18,3.18-9.08,3.27c-3.09,0-6.27,0-6.9,1.77A1.17,1.17,0,0,1,573.08,560.27Z" transform="translate(0 -0.02)" fill="#35434f" stroke="#35434f" stroke-width="2"/><path d="M470.23,986.07A1.18,1.18,0,0,1,469.1,985l-3.18-53.39-24.56,27.69a1.2,1.2,0,0,1-1.22.32,1.12,1.12,0,0,1-.77-1l-3.68-61.78a1.14,1.14,0,0,1,1.09-1.18h0a1.05,1.05,0,0,1,1.17.9h0c0,.05,0,.1,0,.15l3.5,59L466.06,928a1,1,0,0,1,1.22-.32,1.09,1.09,0,0,1,.73,1l3.36,56.11a1.18,1.18,0,0,1-1.09,1.22Z" transform="translate(0 -0.02)" fill="#35434f" stroke="#35434f" stroke-width="2"/><path d="M92,365.4a1.16,1.16,0,0,1-.91-.45L61.21,324.59,56.08,359a1,1,0,0,1-.81.91,1.08,1.08,0,0,1-1.18-.41L19.31,312.61A1.25,1.25,0,0,1,21.18,311l33.09,44.62,5.08-34.32a1.24,1.24,0,0,1,.86-.95,1.13,1.13,0,0,1,1.18.41l31.78,42.58a1.09,1.09,0,0,1,0,1.54l0,.05a1.23,1.23,0,0,1-1.14.45Z" transform="translate(0 -0.02)" fill="#35434f" stroke="#35434f" stroke-width="2"/><path d="M552.6,947.75h-.45a1.18,1.18,0,0,1-.59-1.5l14.66-34.63-21.47,8.71a1.13,1.13,0,0,1-1.5-.57,1.08,1.08,0,0,1,0-.93l14.3-33.72a1.13,1.13,0,0,1,1.45-.64,1.17,1.17,0,0,1,.63,1.5l-13.2,31.23,21.47-8.72a1.22,1.22,0,0,1,1.22.28,1.12,1.12,0,0,1,.23,1.22l-15.71,37.18a1.12,1.12,0,0,1-1,.59Z" transform="translate(0 -0.02)" fill="#35434f" stroke="#35434f" stroke-width="2"/><path d="M233.79,212.38a1.14,1.14,0,0,1-1-.59l-15-27.65-6.09,20.57a1.16,1.16,0,0,1-1,.77,1,1,0,0,1-1.08-.59l-18.16-33a1.09,1.09,0,0,1,.36-1.49h0a.2.2,0,0,1,.08,0,1.12,1.12,0,0,1,1.53.47h0v0l16.61,30.64,6.08-20.57a1.15,1.15,0,0,1,1.49-.6,1.14,1.14,0,0,1,.6.6l16.3,30a1.19,1.19,0,0,1-.45,1.55,1.68,1.68,0,0,1-.32-.09Z" transform="translate(0 -0.02)" fill="#35434f" stroke="#35434f" stroke-width="2"/><path d="M714.61,415.2a1.31,1.31,0,0,1-.68,0,1.09,1.09,0,0,1,0-1.54l0-.05,18.84-24.92-20.84,2.9a1,1,0,0,1-1.13-.54,1.11,1.11,0,0,1,0-1.28l22.33-29.5a1.09,1.09,0,0,1,1.54,0h0l.05,0a1.14,1.14,0,0,1,0,1.59L714,389.09l20.84-2.86A1.16,1.16,0,0,1,736,388L715.7,414.88A1.18,1.18,0,0,1,714.61,415.2Z" transform="translate(0 -0.02)" fill="#35434f" stroke="#35434f" stroke-width="2"/><path d="M57.4,950.29a1.08,1.08,0,0,1-.82-.31L47.5,940.9V948a1.29,1.29,0,0,1-1.4,1.19,1.25,1.25,0,0,1-.5-.14l-9.9-9.8a1.18,1.18,0,0,1,0-1.59,1.13,1.13,0,0,1,1.6,0l0,0,7.9,7.85V938.4a1.06,1.06,0,0,1,.68-1,1.12,1.12,0,0,1,1.22,0L58,948.16A1.09,1.09,0,0,1,58,949.7l-.05,0A1,1,0,0,1,57.4,950.29Z" transform="translate(0 -0.02)" fill="#35434f" stroke="#35434f" stroke-width="2"/><path d="M156.57,1205.18a1.07,1.07,0,0,1-1-.5l-6.22-9.44-1.27,6.13a1.18,1.18,0,0,1-.9.91,1.06,1.06,0,0,1-1.14-.5l-7-10.67a1.1,1.1,0,0,1,.27-1.52h0l0,0a1.12,1.12,0,0,1,1.57.3h0l5.49,8.36,1.27-6.13a1.18,1.18,0,0,1,.86-.91,1.31,1.31,0,0,1,1.18.5l7.76,11.76a1.08,1.08,0,0,1-.27,1.51l0,0A1,1,0,0,1,156.57,1205.18Z" transform="translate(0 -0.02)" fill="#35434f" stroke="#35434f" stroke-width="2"/><path d="M117.59,1056.24a1.21,1.21,0,0,1-.82-.36l-37.72-38v37a1.32,1.32,0,0,1-1.91,1.05L33.48,1012a1.13,1.13,0,0,1,.22-1.59,1.11,1.11,0,0,1,1.36,0l41.72,41.9v-37a1.14,1.14,0,0,1,.73-1,1.22,1.22,0,0,1,1.22.27l39.68,39.63a1.18,1.18,0,0,1,0,1.59,1.25,1.25,0,0,1-.82.5Z" transform="translate(0 -0.02)" fill="#35434f" stroke="#35434f" stroke-width="2"/><path d="M270.15,1264.06a1,1,0,0,1-.86-.46,1.09,1.09,0,0,1-.05-1.54h0l.05,0,39.77-30.82-34.5-4.22a1.14,1.14,0,0,1-.95-1.3,1.12,1.12,0,0,1,.4-.7L320,1189a1.13,1.13,0,0,1,1.68,1.52,1.11,1.11,0,0,1-.32.25l-43.76,34.27,34.5,4.22a1.13,1.13,0,0,1,1,1.23,1.15,1.15,0,0,1-.44.77L270.88,1264a1.38,1.38,0,0,1-.72.1Z" transform="translate(0 -0.02)" fill="#35434f" stroke="#35434f" stroke-width="2"/><path d="M682.16,41.88h0a1.08,1.08,0,0,1-.92-1.23h0s0-.06,0-.09l3-17.47-9.58,6.81a1.11,1.11,0,0,1-1.28,0,1.06,1.06,0,0,1-.5-1.14l3.82-22.2a1,1,0,1,1,2.08.08,1,1,0,0,1,0,.24L675.39,26.4,685,19.64a1.17,1.17,0,0,1,1.27,0,1.13,1.13,0,0,1,.55,1.13L683.29,41A1.18,1.18,0,0,1,682.16,41.88Z" transform="translate(0 -0.02)" fill="#35434f" stroke="#35434f" stroke-width="2"/><path d="M738.67,95.35h-.45l-14.85-6.49a1.09,1.09,0,0,1-.63-1.4,1,1,0,0,0,0-.1,1.14,1.14,0,0,1,1.5-.54l12.3,5.35-2.77-7.12a1,1,0,0,1,.28-1.23,1.12,1.12,0,0,1,1.22,0l13.62,5.86a1.18,1.18,0,0,1,.59,1.5,1.09,1.09,0,0,1-1.41.63l-.09,0L737,87l2.81,7.13a1.13,1.13,0,0,1-.27,1.22,1,1,0,0,1-.91,0Z" transform="translate(0 -0.02)" fill="#35434f" stroke="#35434f" stroke-width="2"/><path d="M505.64,551.2h0l-17.48-.91a1.13,1.13,0,0,1-1-1.18,1,1,0,0,1,1-1.1h.19l14.75.77-6.44-7.17a1,1,0,0,1,0-1.23,1,1,0,0,1,1-.68l19.25,1a1.15,1.15,0,0,1,1.09,1.18h0A1.09,1.09,0,0,1,516.9,543h-.09L500,542.12l6.44,7.17a1.1,1.1,0,0,1,0,1.27,1.18,1.18,0,0,1-.77.64Z" transform="translate(0 -0.02)" fill="#35434f" stroke="#35434f" stroke-width="2"/><path d="M31.57,414.56a1.13,1.13,0,0,1-1.13-1l-1-11.49-4.55,5.63a1.12,1.12,0,0,1-1.58.18,1.14,1.14,0,0,1-.42-.81l-1.53-15.62a1.11,1.11,0,0,1,2.21-.29.13.13,0,0,1,0,.06v.05l1.13,12.89,4.54-5.63a1.15,1.15,0,0,1,1.23-.36,1.17,1.17,0,0,1,.77,1l1.27,14.21a1.17,1.17,0,0,1-1,1.22Z" transform="translate(0 -0.02)" fill="#35434f" stroke="#35434f" stroke-width="2"/><path d="M425.7,36.52a1.13,1.13,0,0,1-1.14-1l-1.09-13.39-5,5.81a1.09,1.09,0,0,1-1.18.37,1.2,1.2,0,0,1-.82-1L415.3,12.6a1.14,1.14,0,0,1,2.27-.24v.06h0l1,11.94,5-5.86a1,1,0,0,1,1.18-.32,1.15,1.15,0,0,1,.82.95l1.36,16.16a1.18,1.18,0,0,1-1.05,1.23Z" transform="translate(0 -0.02)" fill="#35434f" stroke="#35434f" stroke-width="2"/><path d="M469.89,308.16a1.13,1.13,0,0,1-.72-.27,1.18,1.18,0,0,1,0-1.64L480.52,293l-10.26.82a1.12,1.12,0,0,1-1.21-1,1.15,1.15,0,0,1,.26-.81l11.8-14a1.14,1.14,0,0,1,1.59,0,1.18,1.18,0,0,1,0,1.64l-10.13,11.7,10.22-.81a1,1,0,0,1,1.09.59,1.1,1.1,0,0,1,0,1.27l-13.12,15.43a1.2,1.2,0,0,1-.86.41Z" transform="translate(0 -0.02)" fill="#35434f" stroke="#35434f" stroke-width="2"/><path d="M175.32,733.91a1.19,1.19,0,0,1-1.09-.82l-4.77-16.53-5.49,10a1.09,1.09,0,0,1-1.09.59,1.33,1.33,0,0,1-1-.82l-6.08-21.11a1.14,1.14,0,0,1,2.16-.71s0,0,0,.06v0L163.34,723l5.49-9.94a1.09,1.09,0,0,1,1.4-.65,1.11,1.11,0,0,1,.64.65l5.54,19.16a1.1,1.1,0,0,1-.68,1.38h0l-.09,0Z" transform="translate(0 -0.02)" fill="#35434f" stroke="#35434f" stroke-width="2"/><path d="M467.35,750.75a1,1,0,0,1-.59,0l-15-9.8a1.19,1.19,0,0,1-.32-1.59,1.09,1.09,0,0,1,1.5-.35h0l0,0,12.71,8.17-1.82-8.53a1,1,0,0,1,.46-1.18,1.17,1.17,0,0,1,1.27,0l13.61,8.8a1.09,1.09,0,0,1,.35,1.5l0,0a1.13,1.13,0,0,1-1.54.36l-11.35-7.26,1.87,8.54a1.07,1.07,0,0,1-.5,1.13A1.11,1.11,0,0,1,467.35,750.75Z" transform="translate(0 -0.02)" fill="#35434f" stroke="#35434f" stroke-width="2"/><path d="M714.21,1140h-.37a1.13,1.13,0,0,1-.68-1.45h0l13.39-39.27L701,1111.76a1.17,1.17,0,0,1-1.27,0,1.12,1.12,0,0,1-.31-1.22l15.75-46.08a1.13,1.13,0,0,1,1.42-.73h0a1.08,1.08,0,0,1,.71,1.36l0,.09-14.89,43.44,25.83-12.71a1.17,1.17,0,0,1,1.27,0,1.07,1.07,0,0,1,.32,1.22L715.52,1139a1.14,1.14,0,0,1-1.29,1h0Z" transform="translate(0 -0.02)" fill="#35434f" stroke="#35434f" stroke-width="2"/><path d="M483.1,670.53h-.32a1.12,1.12,0,0,1-.77-1.4h0l8.4-28.74-17.8,9.76a1,1,0,0,1-1.22,0A1.18,1.18,0,0,1,471,649l10.12-34.54a1.08,1.08,0,0,1,1.32-.8h0l.09,0a1.14,1.14,0,0,1,.77,1.41l-9.35,31.78,17.88-9.8a1.07,1.07,0,0,1,1.27,0,1.12,1.12,0,0,1,.37,1.18l-9.08,31.36a1.14,1.14,0,0,1-1.27,1Z" transform="translate(0 -0.02)" fill="#35434f" stroke="#35434f" stroke-width="2"/><path d="M211.57,828.5a1.15,1.15,0,0,1-.82-.36,1.09,1.09,0,0,1-.05-1.54l.05-.05,41.36-42-40.86.27h0a1.12,1.12,0,0,1-.81-1.91l47.43-48.38a1.13,1.13,0,0,1,1.6,0l0,0a1.09,1.09,0,0,1,.05,1.54l-.05,0-45.57,46.44,40.85-.32h0a1,1,0,0,1,1,.69,1.17,1.17,0,0,1,0,1.27l-43.35,43.94A1.2,1.2,0,0,1,211.57,828.5Z" transform="translate(0 -0.02)" fill="#35434f" stroke="#35434f" stroke-width="2"/><path d="M533.18,462.91a1.19,1.19,0,0,1-1.14-1.09,1.14,1.14,0,0,1,1.09-1.18h0l10-.68-4.54-4.13a1.13,1.13,0,0,1-.13-1.6,1.08,1.08,0,0,1,.81-.4l14-.91a1,1,0,0,1,1.17.9h0a.66.66,0,0,1,0,.14,1.14,1.14,0,0,1-1,1.23h0l-11.29.72,4.76,4.13a1.22,1.22,0,0,1,.32,1.23,1.13,1.13,0,0,1-1,.77l-12.76.82Z" transform="translate(0 -0.02)" fill="#35434f" stroke="#35434f" stroke-width="2"/><path d="M428,1185.8a1.11,1.11,0,0,1-1.13-1.09,1.1,1.1,0,0,1,.68-1l10.4-4.54-5.86-2.32a1.13,1.13,0,0,1-.59-1.49,1.15,1.15,0,0,1,.59-.6l11.72-5a1.11,1.11,0,1,1,.94,2l0,0-9.07,4,5.85,2.32a1.27,1.27,0,0,1,.73,1,1.15,1.15,0,0,1-.73,1.05l-13,5.67a.69.69,0,0,1-.45,0Z" transform="translate(0 -0.02)" fill="#35434f" stroke="#35434f" stroke-width="2"/><path d="M641.44,383.64a.94.94,0,0,1-.68-.27,1.12,1.12,0,0,1,0-1.59l37.26-48-37.76,4.54a1.05,1.05,0,0,1-1.14-.55,1.21,1.21,0,0,1,0-1.27l35.37-45.62a1.09,1.09,0,0,1,1.54,0h0l.05,0a1.13,1.13,0,0,1,.22,1.59L642.62,335.9l37.77-4.54a1,1,0,0,1,1.13.54,1.17,1.17,0,0,1,0,1.27l-38.95,50.2a1.17,1.17,0,0,1-1.13.28Z" transform="translate(0 -0.02)" fill="#35434f" stroke="#35434f" stroke-width="2"/><path d="M222.37,24.72a1.14,1.14,0,1,1,0-2.27H241l-9.09-8.62a1.06,1.06,0,0,1-.27-1.23,1.15,1.15,0,0,1,1-.73l23.46-.31h0a1.18,1.18,0,0,1,1.14,1.13,1.14,1.14,0,0,1-1.14,1.14h0l-20.74.27,9.08,8.62a1.21,1.21,0,0,1,.27,1.23,1.17,1.17,0,0,1-1,.73L222.37,25Z" transform="translate(0 -0.02)" fill="#35434f" stroke="#35434f" stroke-width="2"/><path d="M536.13,60.67h-.41l-63.1-22.42a1.18,1.18,0,0,1-.73-1.45,1.15,1.15,0,0,1,1.46-.69L533.9,57.59,516.61,21.27a1.1,1.1,0,0,1,0-1.27,1.14,1.14,0,0,1,1.18-.32l57.38,20.38a1.14,1.14,0,0,1-.77,2.14L519.83,22.68,537.13,59a1.1,1.1,0,0,1,0,1.27A1.13,1.13,0,0,1,536.13,60.67Z" transform="translate(0 -0.02)" fill="#35434f" stroke="#35434f" stroke-width="2"/><path d="M670,1266.6a1.14,1.14,0,0,1-1.14-1.14,1.12,1.12,0,0,1,.82-1.08l34.59-11.13L684.43,1243a1.23,1.23,0,0,1-.64-1.13,1.14,1.14,0,0,1,.77-1l33.82-10.89a1.13,1.13,0,1,1,.73,2.13h0l-31.24,10.08,19.93,10.21a1.06,1.06,0,0,1,.59,1.09,1.13,1.13,0,0,1-.77,1l-37.22,12Z" transform="translate(0 -0.02)" fill="#35434f" stroke="#35434f" stroke-width="2"/><path d="M319.82,363.13a1.14,1.14,0,0,1-1.09-.86l-13-57.11L286.09,336.3a1.13,1.13,0,0,1-1.57.31,1.19,1.19,0,0,1-.47-.67l-12.39-54.47a1.13,1.13,0,0,1,.85-1.36h0a1.09,1.09,0,0,1,1.34.76h0a.3.3,0,0,1,0,.1l11.58,51.43,19.61-31.1a1.13,1.13,0,0,1,1.13-.55,1.18,1.18,0,0,1,.91.86l13.62,60a1.15,1.15,0,0,1-.82,1.37Z" transform="translate(0 -0.02)" fill="#35434f" stroke="#35434f" stroke-width="2"/><path d="M281.75,446.29h0a1.13,1.13,0,0,1-1-1.22h0l1.36-17.65-7.9,6.76a1.13,1.13,0,0,1-1.86-.95l1.45-18.52a1.13,1.13,0,0,1,1.22-1.05h0a1.18,1.18,0,0,1,1,1.23l-1.22,15.8,7.85-6.77a1.1,1.1,0,0,1,1.27,0,1.17,1.17,0,0,1,.63,1.09L283,445.38A1.15,1.15,0,0,1,281.75,446.29Z" transform="translate(0 -0.02)" fill="#35434f" stroke="#35434f" stroke-width="2"/><path d="M538.87,287.46a1.47,1.47,0,0,1-.59,0,1.19,1.19,0,0,1-.41-1.59l15.75-26.1-18.15,4.54a1.18,1.18,0,0,1-1.18-.46,1.1,1.1,0,0,1,0-1.27l15.84-25.92a1.14,1.14,0,0,1,2,1.18l-14.16,23.47,18.16-4.54a1.08,1.08,0,0,1,1.17.41,1.17,1.17,0,0,1,0,1.27L539.82,287a1.09,1.09,0,0,1-1,.45Z" transform="translate(0 -0.02)" fill="#35434f" stroke="#35434f" stroke-width="2"/><path d="M202.75,278.47a1.3,1.3,0,0,1-.73,0l-10.44-8.26a1.14,1.14,0,0,1,1.51-1.71s0,0,0,0l0,0,8.31,6.58-.86-6.31a1.13,1.13,0,0,1,1-1.23,1.14,1.14,0,0,1,.78.23l9.54,7.49a1.14,1.14,0,0,1-1.41,1.77l-7.31-5.72.68,5.81a1.21,1.21,0,0,1-.59,1.14Z" transform="translate(0 -0.02)" fill="#35434f" stroke="#35434f" stroke-width="2"/><path d="M639.12,774.67h0a1.15,1.15,0,0,1-1.09-1.18h0l2.41-52.57-26.92,24.56a1.26,1.26,0,0,1-1.73-.46,1.28,1.28,0,0,1-.18-.63l2.77-60.83a1.14,1.14,0,0,1,1.16-1.11,1.12,1.12,0,0,1,1.11,1.15v0L614,741.75l26.87-24.51a1.1,1.1,0,0,1,1.23,0,1.14,1.14,0,0,1,.68,1l-2.54,55.29A1.19,1.19,0,0,1,639.12,774.67Z" transform="translate(0 -0.02)" fill="#35434f" stroke="#35434f" stroke-width="2"/><path d="M231,941.63a1.15,1.15,0,0,1-1.14-1l-5.53-50.84-22.16,27.6a1.22,1.22,0,0,1-1.22.36,1.15,1.15,0,0,1-.78-1l-6.44-59a1.15,1.15,0,0,1,1-1.27,1.13,1.13,0,0,1,1.27,1l6.13,56.24,22.15-27.51a1.14,1.14,0,0,1,1.6-.15,1.18,1.18,0,0,1,.4.74l5.86,53.56a1.14,1.14,0,0,1-1,1.23Z" transform="translate(0 -0.02)" fill="#35434f" stroke="#35434f" stroke-width="2"/><path d="M202.43,115.14a1.14,1.14,0,0,1,0-2.27l25.83-5.62-15.07-9.67a1.13,1.13,0,0,1-.77-1.22,1.16,1.16,0,0,1,.86-.91l31.42-6.86a1.14,1.14,0,0,1,.45,2.23l-28.64,6.31,15.07,9.67a1.23,1.23,0,0,1,.5,1.18,1.18,1.18,0,0,1-.87.9l-28.55,6.22Z" transform="translate(0 -0.02)" fill="#35434f" stroke="#35434f" stroke-width="2"/><path d="M750.92,781.55l-62.73,8a1.14,1.14,0,0,0,0,2.27l.14.05,62.59-8.1Z" transform="translate(0 -0.02)" fill="#35434f" stroke="#35434f" stroke-width="2"/><path d="M750.92,777.45v-3l-25.59-19.87,25.59-3.19v-2.2l-28.59,3.61a1.19,1.19,0,0,0-1,.87,1.07,1.07,0,0,0,.36,1.18Z" transform="translate(0 -0.02)" fill="#35434f" stroke="#35434f" stroke-width="2"/><path d="M522.78,1022.38a1,1,0,0,1-.77-.32,1.12,1.12,0,0,1,0-1.59l6.62-7.12h-5.26a1.28,1.28,0,0,1-1.22-1.33,1.34,1.34,0,0,1,.17-.58l7.72-8.26a1.14,1.14,0,1,1,1.65,1.57l0,0,0,0-5.81,6.27h5.26a1.07,1.07,0,0,1,1,.68,1.05,1.05,0,0,1,0,1.22l-8.49,9.08A1.21,1.21,0,0,1,522.78,1022.38Z" transform="translate(0 -0.02)" fill="#35434f" stroke="#35434f" stroke-width="2"/><path d="M594.6,1157.15h-.32a1.22,1.22,0,0,1-.82-1.4l4-15.21-9.08,5.22a1.07,1.07,0,0,1-1.64-1.18l5.13-19.66a1.15,1.15,0,0,1,2.23.59l-4.54,17,9.08-5.17a1.12,1.12,0,0,1,1.55.38,1.16,1.16,0,0,1,.13.89l-4.54,17.84A1.13,1.13,0,0,1,594.6,1157.15Z" transform="translate(0 -0.02)" fill="#35434f" stroke="#35434f" stroke-width="2"/><path d="M367.56,102.71h-.28L353.4,99.57a1.13,1.13,0,0,1-.87-1.35h0a1.18,1.18,0,0,1,1.36-.86l11.22,2.54-3.45-5.4a1.17,1.17,0,0,1,0-1.27,1.07,1.07,0,0,1,1.18-.45l12.61,2.81a1.14,1.14,0,0,1,.87,1.32,1.09,1.09,0,0,1-1.26.88l-.1,0L365,95.58l3.45,5.31a1.14,1.14,0,0,1-1,1.73Z" transform="translate(0 -0.02)" fill="#35434f" stroke="#35434f" stroke-width="2"/><path d="M299.2,1133.32a1.17,1.17,0,0,1-1.09-.72,1.12,1.12,0,0,1,.64-1.45l25.37-10.35-15.3-6.45a1.14,1.14,0,0,1-.6-1.49,1.17,1.17,0,0,1,.6-.6l25.33-10.35a1.15,1.15,0,0,1,.86,2.14l-22.7,9.07,15.3,6.45a1.22,1.22,0,0,1,.68,1.09,1.12,1.12,0,0,1-.68,1l-27.91,11.35Z" transform="translate(0 -0.02)" fill="#35434f" stroke="#35434f" stroke-width="2"/><path d="M664.68,870.09a1.25,1.25,0,0,1-.86-.37l-37.5-40.13-1.18,34.32a1,1,0,0,1-.73,1,1.13,1.13,0,0,1-1.23-.27l-35.77-38.27a1.14,1.14,0,0,1,1.59-1.63l33.91,36.31,1.18-34.31a1.08,1.08,0,0,1,.73-1A1,1,0,0,1,626,826l39.4,42.12a1.12,1.12,0,0,1,0,1.59,1,1,0,0,1-.77.37Z" transform="translate(0 -0.02)" fill="#35434f" stroke="#35434f" stroke-width="2"/></g></svg>