<svg id="Layer_1" data-name="Layer 1" xmlns="http://www.w3.org/2000/svg" xmlns:xlink="http://www.w3.org/1999/xlink" viewBox="0 0 264 264"><defs><style>.cls-1{fill:url(#radial-gradient);}.cls-2{fill:url(#radial-gradient-2);}.cls-11,.cls-12,.cls-3,.cls-5,.cls-7{opacity:0.74;}.cls-3{fill:url(#radial-gradient-3);}.cls-4{fill:#fdffff;}.cls-5{fill:url(#radial-gradient-4);}.cls-6{fill:url(#radial-gradient-5);}.cls-7{fill:url(#radial-gradient-6);}.cls-8{fill:url(#radial-gradient-7);}.cls-10,.cls-9{stroke-miterlimit:10;}.cls-9{fill:url(#radial-gradient-8);stroke:url(#linear-gradient);}.cls-10{fill:url(#radial-gradient-9);stroke:url(#linear-gradient-2);}.cls-11{fill:url(#radial-gradient-10);}.cls-12{fill:url(#radial-gradient-11);}.cls-13{fill:url(#radial-gradient-12);}.cls-14{opacity:0.77;}</style><radialGradient id="radial-gradient" cx="46.44" cy="30.06" r="270.43" gradientTransform="translate(0 0)" gradientUnits="userSpaceOnUse"><stop offset="0" stop-color="#1c170d"/><stop offset="1" stop-color="#762a5e"/></radialGradient><radialGradient id="radial-gradient-2" cx="144.82" cy="151.11" fx="70.46642217770288" fy="164.76778446449043" r="75.6" gradientTransform="translate(0 0.35)" gradientUnits="userSpaceOnUse"><stop offset="0" stop-color="#46515c"/><stop offset="1" stop-color="#c7ced3"/></radialGradient><radialGradient id="radial-gradient-3" cx="132.94" cy="131.9" r="12.22" gradientTransform="translate(0 0.35)" gradientUnits="userSpaceOnUse"><stop offset="0" stop-color="#1c170d"/><stop offset="1" stop-color="#5f6f78"/></radialGradient><radialGradient id="radial-gradient-4" cx="113.55" cy="115.31" r="55.47" xlink:href="#radial-gradient-3"/><radialGradient id="radial-gradient-5" cx="154.95" cy="139.91" fx="84.61069592802157" fy="148.35605925097155" r="72.1" gradientTransform="translate(0 0.35)" gradientUnits="userSpaceOnUse"><stop offset="0" stop-color="#7e878b"/><stop offset="1" stop-color="#8b99a2"/></radialGradient><radialGradient id="radial-gradient-6" cx="141.89" cy="133.32" fx="107.60709310499801" r="72.13" xlink:href="#radial-gradient-3"/><radialGradient id="radial-gradient-7" cx="135.98" cy="137.18" r="21.3" gradientTransform="translate(0 0.35)" gradientUnits="userSpaceOnUse"><stop offset="0" stop-color="#fff"/><stop offset="1" stop-color="#838e94"/></radialGradient><radialGradient id="radial-gradient-8" cx="147.13" cy="137.17" fx="147.1317368911532" fy="137.17016769744987" r="4.71" gradientTransform="translate(19.12 -17.69) rotate(7.5)" xlink:href="#radial-gradient-5"/><linearGradient id="linear-gradient" x1="141.24" y1="137.16" x2="153.03" y2="137.16" gradientTransform="translate(19.17 -18.04) rotate(7.5)" gradientUnits="userSpaceOnUse"><stop offset="0" stop-color="#1c1a33"/><stop offset="0.96" stop-color="#8b99a2"/><stop offset="1" stop-color="#555e61" stop-opacity="0.74"/></linearGradient><radialGradient id="radial-gradient-9" cx="146.99" cy="133.36" fx="146.9939883064617" fy="133.36476625207433" r="5.84" xlink:href="#radial-gradient-5"/><linearGradient id="linear-gradient-2" x1="146.13" y1="137.16" x2="148.14" y2="137.16" gradientUnits="userSpaceOnUse"><stop offset="0" stop-color="#7e878b"/><stop offset="0.11" stop-color="#1c1b44"/><stop offset="1" stop-color="#555e61" stop-opacity="0.74"/></linearGradient><radialGradient id="radial-gradient-10" cx="150.52" cy="192.69" r="23.25" xlink:href="#radial-gradient-3"/><radialGradient id="radial-gradient-11" cx="132.9" cy="131.9" r="12.21" xlink:href="#radial-gradient-3"/><radialGradient id="radial-gradient-12" cx="76.72" cy="138.62" r="28.32" gradientTransform="matrix(0.7, -0.71, 2.23, 2.18, -286.4, -108.57)" gradientUnits="userSpaceOnUse"><stop offset="0" stop-color="#fff"/><stop offset="0.02" stop-color="#fff"/><stop offset="0.56" stop-color="#8b99a2"/></radialGradient></defs><title>10</title><rect class="cls-1" width="264" height="264"/><path class="cls-2" d="M168,196.66c-6.29-4.88-12.21-10.45-16.23-17.31s-6-15.18-4.13-22.9c1.7-7,6.31-12.87,8.47-19.69,1.56-4.93,1.79-10.18,1.73-15.35-.22-17.9-3.94-36.18-13.69-51.21S118,43.81,100.1,43c-4-.18-9.56-.33-13.47-1.13C99.08,47.68,108.4,58,116,69.68l8.93-3.22-6.26,7.67c2.82,4.59,4.43,7.6,6.84,12.34l6.77-1.11-4.94,4.79c7.56,15.51,13.62,32.52,10.39,49.32-1.5,7.81-4.88,16.29-1.05,23.26.89,1.62,2.16,3.14,2.31,5s-1,3.73-1.87,5.48a23,23,0,0,0-1.84,15.66,16.43,16.43,0,0,1,8.52-10.15c1.15,4.15.61,7.64,1.77,11.8a17.21,17.21,0,0,0-11.05,13.63A18.45,18.45,0,0,0,141,220.54c9.86,8.14,26.33,3.49,33.1-7.35a11.23,11.23,0,0,0,1.91-5C176.37,203.31,171.9,199.65,168,196.66Zm-16.95,20.49c-5.73-1.66-10.6-7.72-9.84-12.94a9.65,9.65,0,0,1,2.05-4.43,12,12,0,0,1,9.08-4.83,11.36,11.36,0,0,1,8,3.3c1.59,1.5,3.26,2.92,4.91,4.37s3.21,3.37,3.2,5.65C168.45,213.86,158.76,219.37,151.09,217.15Z"/><path class="cls-3" d="M133.9,131.84s1.86,8.81-.53,15.53l-1.37.45s1.16-10.59,0-16Z"/><path class="cls-4" d="M150,139.38a3.59,3.59,0,0,0,1-1.52,3.42,3.42,0,0,0,.07-1.74,2.81,2.81,0,0,0-.8-1.52,3.33,3.33,0,0,0-1.65-.77,2.59,2.59,0,0,1,1.91.45,2.82,2.82,0,0,1,1.06,1.73,3.23,3.23,0,0,1-.21,2A2.75,2.75,0,0,1,150,139.38Z"/><path class="cls-4" d="M221.91,129.72a24.41,24.41,0,0,1,6.7,8.91,19,19,0,0,1,.92,2.66,18.66,18.66,0,0,1,.53,2.76c.08.46.1.93.14,1.39s.05.94,0,1.4a18.75,18.75,0,0,1-.21,2.8h0a26.08,26.08,0,0,1-2,5.45,22.68,22.68,0,0,1-1.47,2.52,22,22,0,0,1-1.75,2.35,23.2,23.2,0,0,1-4.24,4,19.79,19.79,0,0,1-2.46,1.58,11.4,11.4,0,0,1-1.32.62,4.28,4.28,0,0,1-1.41.38v-.05a4.42,4.42,0,0,0,1.34-.49c.43-.21.84-.46,1.25-.71a22.59,22.59,0,0,0,2.34-1.67,28.71,28.71,0,0,0,4.08-4,28.69,28.69,0,0,0,5.46-10h0a16.5,16.5,0,0,0,0-5.52,21.55,21.55,0,0,0-1.66-5.27,28.87,28.87,0,0,0-2.74-4.8,30.18,30.18,0,0,0-3.58-4.25Z"/><path class="cls-5" d="M86.63,41.86s18,4.92,27.81,20.93l1.74,2.89h10.25l-6,8.11s5,7.71,6,10h8.16L129.34,90s13.31,24.42,10.81,41.82-5,23.35-2.11,29.74,1.71,8.91-.77,14.1-1.45,11.51-1.45,11.51l-.58,1.68a21.22,21.22,0,0,1,.4-12.1c2.21-6.3,5.3-7.34,1-14s1.33-25.62,1.51-26.12,3.16-19.68-10.85-46.46l4.94-4.79-6.77,1.11-6.84-12.34,6.26-7.67L116,69.68S105.82,50.65,86.63,41.86Z"/><path class="cls-6" d="M227.66,134.33a18,18,0,0,0-4.68-4h0a18.2,18.2,0,0,0-11.76-2.5,17.21,17.21,0,0,0-13.67,11c-4.17-1.15-7.67-.61-11.84-1.77a16.54,16.54,0,0,1,10.19-8.5,23.27,23.27,0,0,0-15.71,1.85c-1.75.88-3.54,2-5.49,1.87s-3.36-1.43-5-2.32c-7-3.82-15.5-.44-23.33,1.05-16.08,3.08-32.34-2.29-47.32-9.34l-4.53,3.8-1.29-6.65c-18-9.06-36.17-20.55-44.72-38.71a.11.11,0,0,0,0,.05c.18.91.33,1.91.45,2.95.4,3.43.53,7.38.67,10.41.56,12.24,6.07,23.76,14.32,32.94l6-1.79-2.67,5.2,0,0a64.37,64.37,0,0,0,5.84,5c.36.27.72.54,1.09.8l.64.45c.68.48,1.36.94,2,1.39s1.55,1,2.34,1.44l.64.38,1.33.75c13,7.14,27.91,10.32,42.79,11a102.09,102.09,0,0,0,10.6-.43,43.84,43.84,0,0,0,14.95-4.21,83.92,83.92,0,0,1,8.59-3.61,33.3,33.3,0,0,1,5.23-1.8,26.12,26.12,0,0,1,7.15-.7h.06A32.28,32.28,0,0,1,181,142.55a37.29,37.29,0,0,1,5.33,2.56,47.25,47.25,0,0,1,5.84,4.07h0a73.24,73.24,0,0,1,11.21,11.73l0,.05c.09.11.18.22.26.34,3,3.84,6.67,8.3,11.54,7.95a9.39,9.39,0,0,0,3.53-1.07,17.09,17.09,0,0,0,1.51-.84,25.42,25.42,0,0,0,11.25-17.58c0-.11,0-.23.05-.35.1-.76.16-1.52.19-2.28,0-.12,0-.23,0-.35A18.74,18.74,0,0,0,227.66,134.33Zm-24.4,9.81c.65-5.31,5-8,5.79-8.49a9.7,9.7,0,0,1,4.64-1.56c5.29-.19,10.8,5.28,11.84,11.15,1.39,7.85-5.13,16.85-10.71,16.28-2.27-.24-4.06-2-5.29-3.78s-2.5-3.6-3.83-5.34A11.3,11.3,0,0,1,203.26,144.14Z"/><path class="cls-7" d="M231.79,146.79c0,.18,0,.35,0,.35a16.18,16.18,0,0,1-.19,2.28s0,.18-.05.35a29.24,29.24,0,0,1-6,13.09,17,17,0,0,1-6.73,5.33,10.23,10.23,0,0,1-5.62,1c-4.68-.73-8-5.66-9.71-8.24l0-.05a38.14,38.14,0,0,0-5.64-6.48c-2.08-2-4-3.78-5.57-5.25h0A44.46,44.46,0,0,0,181,142.55a36.11,36.11,0,0,0-5.26-1.59,33.75,33.75,0,0,0-5.17-.66h-.06a39.4,39.4,0,0,0-12.38,2.5,83.92,83.92,0,0,0-8.59,3.61,43.84,43.84,0,0,1-14.95,4.21,102.09,102.09,0,0,1-10.6.43,88.8,88.8,0,0,1-42.79-11l-1.33-.75-.64-.38c-1.63-1-3.09-1.93-4.39-2.83l-.64-.45c-.37-.26-.73-.53-1.09-.8a47.48,47.48,0,0,1-5.84-5l0,0,2.67-5.2-6,1.79a54.65,54.65,0,0,1-7.4-10.08,50.27,50.27,0,0,1-6.35-17.48C50.07,98,49.72,94,49,86c-.22-2.47-.4-4.51-.51-5.9h0v0a.11.11,0,0,0,0,.05c0,.28.17,1.32.45,2.95,1.27,7.2,5.46,25.75,16.58,39.12l6.68-.79-1.16,8s35.83,25.39,66.59,17,26.11-11.28,48.45-4.77,20.31,36.76,36.85,19.89c5.27-5.37,7.18-10.49,7.34-15,.3-8.74-8.17-15.53-7.32-16.22a10.16,10.16,0,0,1,2.74,2,13.89,13.89,0,0,1,4.43,6A23.4,23.4,0,0,1,231.79,146.79Z"/><path class="cls-8" d="M133.9,131.84s1.86,10.55-.53,15.53c1.94-.41,4.45-1,7.36-1.76,7-1.88,10.06-3.31,17.4-5.36,2-.55,4.5-1.22,7.45-1.89l-1.77-10.07a45.92,45.92,0,0,0-5.13.12c-5.77.48-8.77,1.88-13.19,2.78A41.09,41.09,0,0,1,133.9,131.84Z"/><ellipse class="cls-9" cx="147.13" cy="137.16" rx="5.42" ry="3.86" transform="translate(-16.65 20.38) rotate(-7.5)"/><line class="cls-10" x1="146.62" y1="133.33" x2="147.64" y2="140.98"/><path class="cls-4" d="M192.35,129.06c-1,.13-2.07.32-3.1.51s-2,.42-3,.7a26.52,26.52,0,0,0-2.92,1,17.76,17.76,0,0,0-2.72,1.52,10.57,10.57,0,0,1,2.54-1.89,16.54,16.54,0,0,1,3-1.15A19.58,19.58,0,0,1,192.35,129.06Z"/><path class="cls-4" d="M204.9,151.34a14.28,14.28,0,0,1-1.38-2.36,17.48,17.48,0,0,1-1-2.56,11.82,11.82,0,0,1-.46-2.72,10.21,10.21,0,0,1,.31-2.76v0h0a35.19,35.19,0,0,1,2.66-4.6,10.34,10.34,0,0,1,4.13-3.49,8.54,8.54,0,0,1,2.67-.77,8.62,8.62,0,0,1,2.78.18,10.14,10.14,0,0,1,4.69,2.59l-.06.09a13.94,13.94,0,0,0-4.81-1.73,9.51,9.51,0,0,0-4.84.61,12.67,12.67,0,0,0-4.11,2.9,11.58,11.58,0,0,0-2.68,4.4l0,0a9.83,9.83,0,0,0,.1,2.6c.12.86.27,1.72.47,2.57a51.23,51.23,0,0,0,1.54,5.1Z"/><path class="cls-11" d="M142.2,209.54s-4.88-3.94,0-12.34,12.72-4.19,20,1,8.6,10.85,3.79,15.05-6.35,3.63-6.35,3.63,12.86-7.15,5.66-14.28-17.58-10-22-2.84C139.26,206.34,142.2,209.54,142.2,209.54Z"/><path class="cls-4" d="M136.45,211.82a27.28,27.28,0,0,0,3.29,4.54,21.75,21.75,0,0,0,4.19,3.6,18.57,18.57,0,0,0,5,2.35,20.65,20.65,0,0,0,2.71.68,10.58,10.58,0,0,0,1.39.21l1.41.19c-.47,0-.94.08-1.42.1a8.66,8.66,0,0,1-1.44,0l-1.44-.12a3.61,3.61,0,0,1-.72-.12l-.7-.15a16.94,16.94,0,0,1-2.78-.88c-.45-.18-.87-.44-1.31-.65-.21-.12-.43-.22-.64-.35l-.61-.4a17.33,17.33,0,0,1-4.24-4A16.27,16.27,0,0,1,136.45,211.82Z"/><path class="cls-4" d="M162.17,198.22a13.87,13.87,0,0,1,4.31,3.12,9.33,9.33,0,0,1,2.52,4.83l.05.71a3.37,3.37,0,0,1,0,.71l-.06.7c0,.23-.09.45-.14.67a10,10,0,0,1-.91,2.57,7.14,7.14,0,0,1-1.65,2.17,4.65,4.65,0,0,1-2.39,1.2,5.29,5.29,0,0,0,2-1.56,7.86,7.86,0,0,0,1.28-2.16,11.72,11.72,0,0,0,.67-2.42c0-.21.08-.42.11-.62l0-.61a6,6,0,0,0-.06-1.2,7.56,7.56,0,0,0-.75-2.33,11.89,11.89,0,0,0-1.34-2.13A23.18,23.18,0,0,0,162.17,198.22Z"/><path class="cls-12" d="M133.9,131.84s1.62,12-.53,15.53l-1.37.45s.72-11.75,0-16Z"/><path class="cls-13" d="M49,86s4.78,19.31,16.53,36.24l6.68-.79-1.16,8s29.16,20.66,60.93,18.4l.38-4.88s-41.15-6.38-50.72-18.24-4.36-6.06-11.32-12.14S52.06,98.82,49,86Z"/><g class="cls-14"><path class="cls-4" d="M140.46,171.35a17.16,17.16,0,0,0-1.36,2.84,22.16,22.16,0,0,0-.85,3c-.2,1-.36,2-.46,3.07-.06.52-.07,1-.12,1.57s0,1.06-.11,1.61a14.67,14.67,0,0,1-.41-1.58,14.33,14.33,0,0,1-.18-1.62,13.32,13.32,0,0,1,.24-3.27,11.52,11.52,0,0,1,1.15-3.09A7.44,7.44,0,0,1,140.46,171.35Z"/></g></svg>