<svg id="Layer_1" data-name="Layer 1" xmlns="http://www.w3.org/2000/svg" xmlns:xlink="http://www.w3.org/1999/xlink" viewBox="0 0 264 264"><defs><style>.cls-1{fill:url(#linear-gradient);}.cls-2{fill:url(#linear-gradient-2);}.cls-3{fill:#723428;}.cls-4{fill:url(#linear-gradient-3);}.cls-5{fill:url(#linear-gradient-4);}.cls-6{fill:url(#linear-gradient-5);}.cls-7{fill:#2b0048;}.cls-8{fill:url(#linear-gradient-6);}.cls-9{fill:url(#linear-gradient-7);}.cls-10{fill:url(#linear-gradient-8);}.cls-11{fill:url(#linear-gradient-9);}.cls-12{fill:url(#linear-gradient-10);}.cls-13{fill:url(#linear-gradient-11);}.cls-14{fill:url(#linear-gradient-12);}.cls-15{fill:url(#linear-gradient-13);}.cls-16{fill:url(#radial-gradient);}.cls-17{fill:url(#linear-gradient-14);}.cls-18{fill:none;}.cls-19{fill:#141414;}.cls-20{fill:url(#linear-gradient-15);}.cls-21{fill:#c99542;opacity:0.31;}.cls-22{opacity:0.54;}.cls-23{fill:#fff;}.cls-24{fill:url(#linear-gradient-16);}.cls-25{fill:#707070;}.cls-26{fill:url(#radial-gradient-2);}.cls-27{fill:#622d2f;}</style><linearGradient id="linear-gradient" x1="2152.59" y1="1295.24" x2="2156.37" y2="1017.26" gradientTransform="translate(2286.5 1287) rotate(180)" gradientUnits="userSpaceOnUse"><stop offset="0" stop-color="#030101"/><stop offset="1" stop-color="#731a3e"/></linearGradient><linearGradient id="linear-gradient-2" x1="51.27" y1="141.27" x2="68.41" y2="182.2" gradientUnits="userSpaceOnUse"><stop offset="0.05" stop-color="#b83926"/><stop offset="0.29" stop-color="#e99885"/><stop offset="0.55" stop-color="#da4e31"/><stop offset="0.74" stop-color="#d94e34"/><stop offset="0.92" stop-color="#b93824"/></linearGradient><linearGradient id="linear-gradient-3" x1="66.4" y1="137.99" x2="40.52" y2="196.99" gradientUnits="userSpaceOnUse"><stop offset="0.68" stop-color="#999"/><stop offset="0.93" stop-color="#474747"/></linearGradient><linearGradient id="linear-gradient-4" x1="60.97" y1="166.39" x2="217.22" y2="85.7" gradientUnits="userSpaceOnUse"><stop offset="0.08" stop-color="#d7a547"/><stop offset="0.29" stop-color="#f8d85f"/><stop offset="0.55" stop-color="#f8d85f"/><stop offset="0.74" stop-color="#f8d85f"/><stop offset="0.93" stop-color="#ffb15b"/></linearGradient><linearGradient id="linear-gradient-5" x1="722.26" y1="-204.87" x2="751.3" y2="-144.15" gradientTransform="matrix(1.81, -0.41, -0.41, 1.21, -1310.78, 667.48)" gradientUnits="userSpaceOnUse"><stop offset="0.05" stop-color="#21426e"/><stop offset="0.29" stop-color="#2b64a8"/><stop offset="0.55" stop-color="#1f426d"/><stop offset="0.74" stop-color="#2d65a9"/><stop offset="0.92" stop-color="#1f426d"/></linearGradient><linearGradient id="linear-gradient-6" x1="197.7" y1="67.33" x2="218.18" y2="112.57" gradientUnits="userSpaceOnUse"><stop offset="0.01" stop-color="#62d0ff"/><stop offset="0.28" stop-color="#2b64a8"/><stop offset="0.55" stop-color="#1f426d"/><stop offset="0.74" stop-color="#2d65a9"/><stop offset="0.92" stop-color="#1f426d"/></linearGradient><linearGradient id="linear-gradient-7" x1="114.73" y1="171.9" x2="126.98" y2="159.31" gradientUnits="userSpaceOnUse"><stop offset="0.31" stop-color="#4aace1"/><stop offset="0.7" stop-color="#2f669a"/></linearGradient><linearGradient id="linear-gradient-8" x1="113.12" y1="178.04" x2="138.3" y2="178.39" xlink:href="#linear-gradient-7"/><linearGradient id="linear-gradient-9" x1="111.26" y1="180.57" x2="127" y2="196.89" xlink:href="#linear-gradient-7"/><linearGradient id="linear-gradient-10" x1="108.63" y1="182.28" x2="108.63" y2="208.04" xlink:href="#linear-gradient-7"/><linearGradient id="linear-gradient-11" x1="103.57" y1="181.51" x2="89.25" y2="197.83" xlink:href="#linear-gradient-7"/><linearGradient id="linear-gradient-12" x1="98.02" y1="178" x2="80.88" y2="178.47" xlink:href="#linear-gradient-7"/><linearGradient id="linear-gradient-13" x1="102.38" y1="170.35" x2="88.16" y2="160.09" xlink:href="#linear-gradient-7"/><radialGradient id="radial-gradient" cx="108.62" cy="178.26" r="31.02" gradientUnits="userSpaceOnUse"><stop offset="0.68" stop-color="#565a5a"/><stop offset="0.93" stop-color="#050505"/></radialGradient><linearGradient id="linear-gradient-14" x1="108.37" y1="175.11" x2="108.66" y2="151.63" xlink:href="#linear-gradient-7"/><linearGradient id="linear-gradient-15" x1="202.46" y1="97.35" x2="206.66" y2="97.35" gradientUnits="userSpaceOnUse"><stop offset="0.07" stop-color="#feb75c"/><stop offset="0.93" stop-color="#ffb15b"/></linearGradient><linearGradient id="linear-gradient-16" x1="115.89" y1="104.26" x2="144.93" y2="164.98" xlink:href="#linear-gradient-2"/><radialGradient id="radial-gradient-2" cx="108.62" cy="178.26" r="11.11" gradientUnits="userSpaceOnUse"><stop offset="0.28" stop-color="#d76e77"/><stop offset="0.93" stop-color="#ce2d2f"/></radialGradient></defs><title>12</title><rect class="cls-1" width="264" height="264"/><path class="cls-2" d="M58.16,142.57,46,147.1l14.35,33L73,174.69S63.91,156.12,58.16,142.57Z"/><path class="cls-3" d="M58.1,142.71,52,145.66c-1.93.93-3.78,1.79-5.66,2.56l.67-1.59c.66,1.35,1.29,2.71,1.91,4.07s1.23,2.73,1.81,4.12c1.15,2.77,2.12,5.61,3.1,8.45s2.06,5.64,3.27,8.38,2.53,5.44,3.92,8.11L60,179.33c2.07-1,4.12-2.09,6.2-3.09s4.18-1.94,6.28-2.9l-.74,2c-1.37-2.63-2.72-5.25-4-7.92-.65-1.33-1.25-2.68-1.85-4s-1.2-2.7-1.77-4.06c-1.15-2.72-2.25-5.47-3.28-8.25-.51-1.39-1-2.78-1.48-4.19S58.54,144.26,58.1,142.71Zm.12-.28c.73,1.17,1.58,2.74,2.26,3.95s1.43,2.59,2.12,3.9c1.4,2.6,2.76,5.21,4.1,7.83.68,1.31,1.33,2.63,2,3.95s1.32,2.63,1.94,4c1.28,2.65,2.48,5.34,3.71,8l.66,1.44-1.4.55c-2.15.84-4.29,1.68-6.45,2.49s-4.35,1.55-6.53,2.31l-.81.28-.25-.7c-1-2.83-2.07-5.64-3.27-8.39s-2.49-5.45-3.9-8.11-2.83-5.3-4.07-8c-.62-1.37-1.22-2.74-1.78-4.13s-1.14-2.77-1.68-4.17l-.46-1.21,1.14-.38c2.19-.74,4.4-1.39,6.54-2S56.29,142.9,58.22,142.43Z"/><path class="cls-4" d="M53.06,163.36c-5,3.68-8.84,8.13-9.24,13.42-.39,5.13,2.71,7.68,2.45,12.94-.21,4.17-2.47,8.9-8.75,14l1.92,1.23c7.24-5.68,9-10.63,9.27-14.17.37-5.35-2.75-8.31-1.74-13.64.91-4.84,4.59-8.23,7.56-10.34Z"/><path class="cls-5" d="M212.56,113l-17.8,13.75c-33.29,25.74-52.24,41.31-79.47,53.21-9,3.93-17.16,6.72-27,5.21-2.29-.35-16.75-2.79-25.51-15.43a39.07,39.07,0,0,1-4.67-34c4.31-12.26,15.59-22.64,85.22-47.44,19.68-7,36.32-12.42,48.37-16.21"/><polyline class="cls-6" points="97.66 170.58 70.87 117.97 85.05 110.75 120.35 180.06 106.17 187.28 97.66 170.58"/><path class="cls-7" d="M97.39,170.72c-2.89-4.06-5.5-8.25-8.07-12.46s-5-8.5-7.33-12.83C77.29,136.78,72.87,128,68.85,119l-.95-2.13,1.94-.91c1.2-.56,2.44-1.06,3.65-1.59s2.44-1.06,3.68-1.55c2.46-1,4.94-2,7.47-2.87l.8-.27.41.67c1.71,2.76,3.33,5.58,5,8.37l4.85,8.44c3.22,5.64,6.34,11.32,9.45,17s6.22,11.38,9.24,17.12,5.83,11.58,8.54,17.47l1.26,2.74-2.52,1.15c-2.42,1.1-4.81,2.24-7.25,3.3s-4.85,2.16-7.31,3.19l-2,.84-.76-1.75c-1.24-2.87-2.42-5.78-3.6-8.68L99,175.15c-.57-1.47-1.1-3-1.63-4.43l.54-.28q1.33,2,2.63,3.92l2.54,4c1.66,2.67,3.31,5.33,4.91,8l-2.78-.9c2.27-1.38,4.58-2.7,6.87-4s4.62-2.62,6.94-3.92l-1.27,3.88q-4.76-8.49-9.11-17.18c-2.86-5.82-5.63-11.68-8.41-17.54S94.72,134.92,92.06,129l-4-8.89c-1.28-3-2.6-6-3.83-9l1.21.4c-2.2,1.52-4.45,3-6.71,4.35-1.13.71-2.27,1.39-3.42,2.06s-2.27,1.38-3.44,2l1-3c4.92,8.54,9.43,17.29,13.66,26.17,2.13,4.44,4.12,8.95,6.06,13.48s3.75,9.13,5.33,13.85Z"/><path class="cls-8" d="M225.69,110.64l-11.38,5.8-6-11.76-18.86-37,11.38-5.79,5.84,11.46.21.41a29.14,29.14,0,0,1-1.28,3.83l-.88,2a16.18,16.18,0,0,1,5-.28Z"/><path class="cls-9" d="M127.06,162.85l-9.1,9.39a11.12,11.12,0,0,0-3.68-3.54l9.57-9A23.53,23.53,0,0,1,127.06,162.85Z"/><path class="cls-10" d="M132.44,175a23.53,23.53,0,0,1,.22,3.27,24.73,24.73,0,0,1-.23,3.36l-13.1-.37a11.3,11.3,0,0,0,.41-3,10.8,10.8,0,0,0-.44-3.07Z"/><path class="cls-11" d="M127.72,192.85h0a23.74,23.74,0,0,1-4.72,4.67L114,188a11.07,11.07,0,0,0,4.3-4.26Z"/><path class="cls-12" d="M111.09,189.1l-.2,13.1c-.75.07-1.5.1-2.27.1s-1.51,0-2.25-.1h0l-.21-13.09a11.73,11.73,0,0,0,2.46.27A11.13,11.13,0,0,0,111.09,189.1Z"/><path class="cls-13" d="M102.9,187.79l-9,9.27-.1.14a24.2,24.2,0,0,1-4.63-4.8l0,0,9.54-9A11.07,11.07,0,0,0,102.9,187.79Z"/><path class="cls-14" d="M84.73,175.74l13.12-.21a11.22,11.22,0,0,0-.34,2.73,11.47,11.47,0,0,0,.25,2.37l-13-.37h-.06c-.06-.66-.09-1.32-.09-2a23.36,23.36,0,0,1,.14-2.52Z"/><path class="cls-15" d="M93.44,159.63l9.42,9.13a11.32,11.32,0,0,0-3.64,3.58l-9-9.53A24.19,24.19,0,0,1,93.44,159.63Z"/><path class="cls-16" d="M108.62,147.24a31,31,0,0,0-28.07,44.24l3-.85-2.26,2.22a31,31,0,1,0,27.38-45.61Zm19.1,45.62a24,24,0,0,1-16.83,9.34c-.75.07-1.5.1-2.27.1s-1.51,0-2.25-.1a24,24,0,0,1-12.56-5,24.2,24.2,0,0,1-4.63-4.8h0a23.91,23.91,0,0,1-4.5-12.14c-.06-.66-.09-1.32-.09-2a23.36,23.36,0,0,1,.14-2.52,23.85,23.85,0,0,1,5.5-12.93,24,24,0,0,1,15.39-8.4,25.26,25.26,0,0,1,6,0,24,24,0,0,1,12.22,5.26,23.53,23.53,0,0,1,3.21,3.18A23.88,23.88,0,0,1,132.44,175a23.53,23.53,0,0,1,.22,3.27,24.73,24.73,0,0,1-.23,3.36A23.93,23.93,0,0,1,127.72,192.86Z"/><path class="cls-17" d="M111.63,154.41l-.2,13.1a10.88,10.88,0,0,0-2.81-.36,10.75,10.75,0,0,0-2.8.36l-.21-13.1a25.26,25.26,0,0,1,6,0Z"/><path class="cls-18" d="M132.44,175a23.88,23.88,0,0,0-5.38-12.14,23.53,23.53,0,0,0-3.21-3.18,24,24,0,0,0-12.22-5.26,25.26,25.26,0,0,0-6,0,24.07,24.07,0,0,0-20.89,21.33,23.36,23.36,0,0,0-.14,2.52c0,.68,0,1.34.09,2a23.88,23.88,0,0,0,4.5,12.14h0a24.2,24.2,0,0,0,4.63,4.8,24,24,0,0,0,12.56,5c.74.07,1.49.1,2.25.1s1.52,0,2.27-.1a24.07,24.07,0,0,0,21.54-20.58,24.73,24.73,0,0,0,.23-3.36A23.53,23.53,0,0,0,132.44,175Z"/><circle class="cls-18" cx="108.62" cy="178.26" r="31.02"/><path class="cls-18" d="M119.3,175.19a10.8,10.8,0,0,1,.44,3.07,11.3,11.3,0,0,1-.41,3,10.82,10.82,0,0,1-1,2.48A11.07,11.07,0,0,1,114,188a10.88,10.88,0,0,1-2.91,1.11,11.13,11.13,0,0,1-2.47.28,11.73,11.73,0,0,1-2.46-.27,11.18,11.18,0,0,1-8.4-8.48,11.47,11.47,0,0,1-.25-2.37,11.22,11.22,0,0,1,.34-2.73,10.92,10.92,0,0,1,1.37-3.19,11.32,11.32,0,0,1,3.64-3.58,10.94,10.94,0,0,1,3-1.25,10.75,10.75,0,0,1,2.8-.36,10.88,10.88,0,0,1,2.81.36,11.14,11.14,0,0,1,6.53,4.73A10.66,10.66,0,0,1,119.3,175.19Z"/><line class="cls-18" x1="107" y1="202.2" x2="106.79" y2="189.11"/><line class="cls-18" x1="105.82" y1="167.51" x2="105.61" y2="154.41"/><line class="cls-18" x1="111.09" y1="189.1" x2="110.89" y2="202.2"/><line class="cls-18" x1="97.85" y1="175.53" x2="84.73" y2="175.74"/><polyline class="cls-18" points="132.51 174.98 132.44 174.99 119.3 175.19"/><line class="cls-18" x1="97.76" y1="180.63" x2="84.73" y2="180.26"/><polyline class="cls-18" points="132.51 181.63 132.43 181.63 119.33 181.25"/><polyline class="cls-18" points="93.4 159.6 93.44 159.63 102.86 168.76"/><line class="cls-18" x1="127.72" y1="192.85" x2="118.3" y2="183.73"/><polyline class="cls-18" points="90.2 162.79 90.22 162.81 99.22 172.34"/><polyline class="cls-18" points="114 187.99 123 197.53 123.02 197.55"/><line class="cls-18" x1="127.06" y1="162.85" x2="117.96" y2="172.24"/><line class="cls-18" x1="102.9" y1="187.79" x2="93.91" y2="197.06"/><polyline class="cls-18" points="123.85 159.66 123.85 159.67 114.28 168.7"/><line class="cls-18" x1="98.75" y1="183.36" x2="89.21" y2="192.37"/><polygon class="cls-19" points="129.52 166.37 132.66 164.62 130.13 167.51 129.52 166.37"/><polygon class="cls-19" points="102.9 154.91 99.22 150.84 101.06 155.44 102.9 154.91"/><path class="cls-20" d="M202.46,95.62s3.26-2,4.08-1.08-2.8,3.41-2.8,3.41l2.92.93-.51,1.54-3-1.42Z"/><path class="cls-21" d="M208.32,104.68s-58.13,44.57-70.26,49.25l4.5,10.25s64-42.89,70-51.18Z"/><g class="cls-22"><path class="cls-23" d="M190,78.19c-2.66,1.64-5.36,3.2-8,4.81l-8.08,4.69c-5.37,3.14-10.78,6.18-16.17,9.24l-8.08,4.55-8.09,4.5-16.17,8.78c-2.69,1.46-5.31,3-7.88,4.72l-7.62,5.06a72.77,72.77,0,0,1-7.69,4.42,63.4,63.4,0,0,1-7.77,3.16l-7.2,2.36c-2.37.78-4.68,1.57-7,2.41a50.33,50.33,0,0,0-6.92,3.05,24.13,24.13,0,0,0-3.47,2.26,19.19,19.19,0,0,0-1.69,1.49c-.29.28-.57.57-.83.87a6.72,6.72,0,0,1-.79.87l-3,.58a13.88,13.88,0,0,1-.94-1.43c-.27-.47-.51-.94-.74-1.44a16.3,16.3,0,0,1-.94-3,22.08,22.08,0,0,1-.33-6.39,32.36,32.36,0,0,1,3.74-11.92,45.24,45.24,0,0,1,6.94-9.6,55.1,55.1,0,0,1,8.47-7.36,53.43,53.43,0,0,1,8.72-5.08,58.91,58.91,0,0,1,9.09-3.23c3.09-.84,6.22-1.54,9.31-2.26s6.14-1.52,9.14-2.4l9-2.59,9-2.43L143,84.59l9.11-2.11c6.09-1.36,12.18-2.68,18.32-3.87l9.2-1.77c3.09-.52,6.15-1.1,9.26-1.57Z"/></g><polyline class="cls-24" points="134.91 151.97 108.12 99.35 115.13 95.78 150.42 165.1 143.41 168.67 134.91 151.97"/><path class="cls-25" d="M134.69,152.08c-2.83-4.08-5.4-8.29-7.91-12.54-1.24-2.13-2.49-4.25-3.67-6.41s-2.39-4.3-3.53-6.48-2.32-4.34-3.42-6.55-2.12-4.44-3.14-6.68c-2-4.5-3.81-9.1-5.81-13.6l-.43-1,.88-.4c2.39-1.08,4.78-2.17,7.12-3.34l.69-.35.33.68c2.91,5.8,6.07,11.46,9.41,17,1.64,2.8,3.33,5.58,4.93,8.4s3.16,5.67,4.71,8.52l4.62,8.55c1.54,2.86,3.06,5.72,4.52,8.61,2.95,5.78,5.69,11.65,8.42,17.54l1,2.12-1.95.87c-2.39,1.08-4.78,2.16-7.19,3.22l-1.77.78-.68-1.58c-1.25-2.87-2.49-5.75-3.68-8.65s-2.36-5.81-3.42-8.77l.44-.23c1.77,2.61,3.43,5.27,5.08,7.94s3.24,5.35,4.83,8.05l-2.45-.8c2.26-1.32,4.55-2.62,6.82-3.92l-1,3c-3.16-5.66-6.29-11.34-9.23-17.12-1.49-2.88-2.91-5.8-4.31-8.72l-4.2-8.77c-1.39-2.93-2.79-5.85-4.11-8.82s-2.6-6-3.9-8.92c-2.54-6-5.26-11.87-8.24-17.63l1,.33c-2.33,1.21-4.61,2.5-6.89,3.8l.44-1.37c2.47,4.27,5.13,8.43,7.59,12.71,1.21,2.14,2.42,4.28,3.56,6.46s2.19,4.41,3.28,6.62,2.13,4.43,3.16,6.67,2,4.48,3,6.73c2,4.53,3.85,9.09,5.49,13.77Z"/><path class="cls-26" d="M119.74,178.26a11.3,11.3,0,0,1-.41,3,10.82,10.82,0,0,1-1,2.48A11.07,11.07,0,0,1,114,188a10.88,10.88,0,0,1-2.91,1.11,11.13,11.13,0,0,1-2.47.28,11.73,11.73,0,0,1-2.46-.27,11.18,11.18,0,0,1-8.4-8.48,11.47,11.47,0,0,1-.25-2.37,11.22,11.22,0,0,1,.34-2.73,10.92,10.92,0,0,1,1.37-3.19,11.32,11.32,0,0,1,3.64-3.58,10.94,10.94,0,0,1,3-1.25,10.75,10.75,0,0,1,2.8-.36,10.88,10.88,0,0,1,2.81.36,11.14,11.14,0,0,1,6.53,4.73,10.66,10.66,0,0,1,1.34,2.95A10.8,10.8,0,0,1,119.74,178.26Z"/><path class="cls-27" d="M119.94,178.26a18.36,18.36,0,0,1-.58,4.45,12.74,12.74,0,0,1-2,4.31,9.79,9.79,0,0,1-3.82,3.15,10,10,0,0,1-4.94.88,11.08,11.08,0,0,1-4.67-1.5,15.12,15.12,0,0,1-3.64-3,14.92,14.92,0,0,1-3.9-8.31,11.57,11.57,0,0,1,.46-4.87,11.79,11.79,0,0,1,2.56-4.33,12.23,12.23,0,0,1,9.19-4,11.82,11.82,0,0,1,5,1.19,10.28,10.28,0,0,1,3.8,3.26A15.12,15.12,0,0,1,119.94,178.26Zm-.4,0a7.83,7.83,0,0,0-1.15-4,9,9,0,0,0-2.85-2.87,13.56,13.56,0,0,0-3.41-1.57,10.76,10.76,0,0,0-3.51-.49,10.17,10.17,0,0,0-6.52,2.45,10.69,10.69,0,0,0-2.26,2.89,10.55,10.55,0,0,0-1.24,3.63,8.44,8.44,0,0,0,2.62,7.41,8.15,8.15,0,0,0,3.57,1.84,11.07,11.07,0,0,0,3.83.2,15.66,15.66,0,0,0,7-2.49,9.4,9.4,0,0,0,2.85-2.9A7.86,7.86,0,0,0,119.54,178.26Z"/></svg>